<svg width="33" height="32" viewBox="0 0 33 32" fill="none" xmlns="http://www.w3.org/2000/svg">
<path d="M16.6668 3C14.0956 3 11.5822 3.76244 9.44434 5.1909C7.3065 6.61935 5.64026 8.64968 4.65632 11.0251C3.67238 13.4006 3.41494 16.0144 3.91655 18.5362C4.41815 21.0579 5.65628 23.3743 7.47437 25.1924C9.29245 27.0105 11.6088 28.2486 14.1306 28.7502C16.6523 29.2518 19.2662 28.9944 21.6416 28.0104C24.0171 27.0265 26.0474 25.3603 27.4759 23.2224C28.9043 21.0846 29.6668 18.5712 29.6668 16C29.6631 12.5533 28.2923 9.24882 25.8551 6.81163C23.4179 4.37445 20.1135 3.00364 16.6668 3ZM16.6668 27C14.4912 27 12.3644 26.3549 10.5555 25.1462C8.74654 23.9375 7.33664 22.2195 6.50408 20.2095C5.67151 18.1995 5.45368 15.9878 5.87812 13.854C6.30255 11.7202 7.3502 9.7602 8.88858 8.22183C10.427 6.68345 12.387 5.6358 14.5208 5.21136C16.6546 4.78692 18.8663 5.00476 20.8763 5.83733C22.8863 6.66989 24.6042 8.07979 25.8129 9.88873C27.0216 11.6977 27.6668 13.8244 27.6668 16C27.6634 18.9164 26.5035 21.7123 24.4413 23.7745C22.3791 25.8367 19.5831 26.9967 16.6668 27ZM24.6668 16C24.6668 16.2652 24.5614 16.5196 24.3739 16.7071C24.1863 16.8946 23.932 17 23.6668 17H16.6668C16.4015 17 16.1472 16.8946 15.9596 16.7071C15.7721 16.5196 15.6668 16.2652 15.6668 16V9C15.6668 8.73478 15.7721 8.48043 15.9596 8.29289C16.1472 8.10536 16.4015 8 16.6668 8C16.932 8 17.1863 8.10536 17.3739 8.29289C17.5614 8.48043 17.6668 8.73478 17.6668 9V15H23.6668C23.932 15 24.1863 15.1054 24.3739 15.2929C24.5614 15.4804 24.6668 15.7348 24.6668 16Z" fill="#F5F5F5"/>
</svg>
