<svg width="33" height="32" viewBox="0 0 33 32" fill="none" xmlns="http://www.w3.org/2000/svg">
<path d="M29.3334 17.0825C29.121 19.5525 28.2075 21.9104 26.7005 23.8788C25.1935 25.8473 23.1556 27.3444 20.8266 28.194C18.4977 29.0436 15.9745 29.2103 13.554 28.6746C11.1335 28.139 8.91631 26.9231 7.16333 25.1701C5.41035 23.4171 4.19449 21.2 3.6588 18.7794C3.12311 16.3589 3.28988 13.8358 4.13948 11.5068C4.98908 9.17784 6.48617 7.13997 8.45461 5.63296C10.4231 4.12594 12.781 3.21247 15.2509 3.00001C15.3823 2.98918 15.5144 3.00431 15.6399 3.04456C15.7654 3.0848 15.8817 3.14937 15.9822 3.23457C16.0827 3.31976 16.1655 3.42393 16.2257 3.54111C16.286 3.65829 16.3226 3.78619 16.3334 3.91751C16.3443 4.04883 16.3291 4.181 16.2889 4.30647C16.2486 4.43194 16.1841 4.54826 16.0989 4.64878C16.0137 4.7493 15.9095 4.83205 15.7923 4.89232C15.6752 4.95258 15.5473 4.98918 15.4159 5.00001C13.3254 5.17963 11.3297 5.95259 9.66358 7.22796C7.99746 8.50333 6.73026 10.228 6.01109 12.1992C5.29193 14.1703 5.1507 16.3058 5.60404 18.3545C6.05739 20.4031 7.08643 22.2797 8.57009 23.7634C10.0538 25.247 11.9303 26.2761 13.979 26.7294C16.0276 27.1827 18.1632 27.0415 20.1343 26.3224C22.1054 25.6032 23.8301 24.336 25.1055 22.6699C26.3809 21.0038 27.1538 19.008 27.3334 16.9175C27.3553 16.6523 27.4817 16.4066 27.6847 16.2346C27.8877 16.0625 28.1507 15.9781 28.4159 16C28.6812 16.0219 28.9268 16.1482 29.0989 16.3512C29.2709 16.5542 29.3553 16.8173 29.3334 17.0825ZM15.3334 9.00001V16C15.3334 16.2652 15.4388 16.5196 15.6263 16.7071C15.8139 16.8947 16.0682 17 16.3334 17H23.3334C23.5987 17 23.853 16.8947 24.0405 16.7071C24.2281 16.5196 24.3334 16.2652 24.3334 16C24.3334 15.7348 24.2281 15.4804 24.0405 15.2929C23.853 15.1054 23.5987 15 23.3334 15H17.3334V9.00001C17.3334 8.73479 17.2281 8.48044 17.0405 8.2929C16.853 8.10537 16.5987 8.00001 16.3334 8.00001C16.0682 8.00001 15.8139 8.10537 15.6263 8.2929C15.4388 8.48044 15.3334 8.73479 15.3334 9.00001ZM20.3334 6.00001C20.6301 6.00001 20.9201 5.91204 21.1668 5.74721C21.4135 5.58239 21.6057 5.34812 21.7193 5.07404C21.8328 4.79995 21.8625 4.49835 21.8046 4.20737C21.7467 3.9164 21.6039 3.64913 21.3941 3.43935C21.1843 3.22957 20.917 3.08671 20.6261 3.02883C20.3351 2.97095 20.0335 3.00066 19.7594 3.11419C19.4853 3.22772 19.2511 3.41998 19.0862 3.66665C18.9214 3.91333 18.8334 4.20334 18.8334 4.50001C18.8334 4.89783 18.9915 5.27937 19.2728 5.56067C19.5541 5.84197 19.9356 6.00001 20.3334 6.00001ZM24.8334 9.00001C25.1301 9.00001 25.4201 8.91204 25.6668 8.74721C25.9135 8.58239 26.1057 8.34812 26.2193 8.07404C26.3328 7.79995 26.3625 7.49835 26.3046 7.20737C26.2467 6.9164 26.1039 6.64913 25.8941 6.43935C25.6843 6.22957 25.417 6.08671 25.1261 6.02883C24.8351 5.97095 24.5335 6.00066 24.2594 6.11419C23.9853 6.22772 23.7511 6.41998 23.5862 6.66665C23.4214 6.91333 23.3334 7.20334 23.3334 7.50001C23.3334 7.89783 23.4915 8.27937 23.7728 8.56067C24.0541 8.84197 24.4356 9.00001 24.8334 9.00001ZM27.8334 13.5C28.1301 13.5 28.4201 13.412 28.6668 13.2472C28.9135 13.0824 29.1057 12.8481 29.2193 12.574C29.3328 12.2999 29.3625 11.9983 29.3046 11.7074C29.2467 11.4164 29.1039 11.1491 28.8941 10.9393C28.6843 10.7296 28.417 10.5867 28.1261 10.5288C27.8351 10.471 27.5335 10.5007 27.2594 10.6142C26.9853 10.7277 26.7511 10.92 26.5862 11.1667C26.4214 11.4133 26.3334 11.7033 26.3334 12C26.3334 12.3978 26.4915 12.7794 26.7728 13.0607C27.0541 13.342 27.4356 13.5 27.8334 13.5Z" fill="#F5F5F5"/>
</svg>
