<svg width="56" height="56" viewBox="0 0 56 56" fill="none" xmlns="http://www.w3.org/2000/svg">
<path d="M10.4999 16.625C10.4999 13.144 11.8828 9.80564 14.3442 7.34422C16.8056 4.88281 20.144 3.5 23.6249 3.5C27.1059 3.5 30.4443 4.88281 32.9057 7.34422C35.3671 9.80564 36.7499 13.144 36.7499 16.625C36.7499 17.0891 36.5656 17.5343 36.2374 17.8624C35.9092 18.1906 35.4641 18.375 34.9999 18.375C34.5358 18.375 34.0907 18.1906 33.7625 17.8624C33.4343 17.5343 33.2499 17.0891 33.2499 16.625C33.2499 14.0723 32.2359 11.6241 30.4309 9.8191C28.6258 8.01406 26.1777 7 23.6249 7C21.0722 7 18.6241 8.01406 16.819 9.8191C15.014 11.6241 13.9999 14.0723 13.9999 16.625C13.9999 17.0891 13.8156 17.5343 13.4874 17.8624C13.1592 18.1906 12.7141 18.375 12.2499 18.375C11.7858 18.375 11.3407 18.1906 11.0125 17.8624C10.6843 17.5343 10.4999 17.0891 10.4999 16.625ZM41.1249 26.25C40.1041 26.2489 39.0993 26.5039 38.2024 26.9916C37.9345 26.1623 37.4926 25.3997 36.9063 24.7549C36.3201 24.11 35.603 23.5977 34.8029 23.2521C34.0029 22.9065 33.1383 22.7356 32.2669 22.7509C31.3955 22.7662 30.5374 22.9672 29.7499 23.3406V16.625C29.7499 15.0006 29.1046 13.4426 27.956 12.294C26.8073 11.1453 25.2494 10.5 23.6249 10.5C22.0005 10.5 20.4426 11.1453 19.2939 12.294C18.1453 13.4426 17.4999 15.0006 17.4999 16.625V34.125L16.6643 32.7841C15.8472 31.3798 14.5056 30.3576 12.9348 29.9425C11.364 29.5273 9.69266 29.7532 8.28838 30.5703C6.8841 31.3875 5.86195 32.729 5.44679 34.2998C5.03164 35.8706 5.25748 37.542 6.07463 38.9463L12.4884 49.8838C12.5959 50.0968 12.7459 50.2856 12.9292 50.4385C13.1124 50.5914 13.3249 50.7052 13.5537 50.773C13.7826 50.8407 14.0228 50.8609 14.2598 50.8324C14.4967 50.8039 14.7253 50.7272 14.9315 50.607C15.1377 50.4869 15.3171 50.3259 15.4588 50.1338C15.6005 49.9418 15.7014 49.7228 15.7553 49.4903C15.8092 49.2579 15.815 49.0168 15.7723 48.782C15.7296 48.5472 15.6394 48.3236 15.5071 48.125L9.09994 37.1875C8.92006 36.8887 8.80152 36.5571 8.75124 36.212C8.70096 35.8669 8.71995 35.5152 8.80711 35.1775C8.89426 34.8399 9.04783 34.5229 9.25885 34.2453C9.46986 33.9676 9.73409 33.7348 10.0361 33.5604C10.3381 33.386 10.6718 33.2735 11.0178 33.2295C11.3638 33.1855 11.715 33.2109 12.0511 33.3042C12.3871 33.3975 12.7012 33.5569 12.975 33.7729C13.2487 33.9889 13.4767 34.2574 13.6456 34.5625L13.6762 34.6128L17.7624 41.1753C17.9631 41.4991 18.2638 41.7485 18.6191 41.8858C18.9743 42.0231 19.3647 42.0407 19.7309 41.9361C20.0971 41.8314 20.4191 41.6102 20.6481 41.3059C20.8772 41.0016 21.0007 40.6309 20.9999 40.25V16.625C20.9999 15.9288 21.2765 15.2611 21.7688 14.7688C22.2611 14.2766 22.9288 14 23.6249 14C24.3211 14 24.9888 14.2766 25.4811 14.7688C25.9734 15.2611 26.2499 15.9288 26.2499 16.625V31.5C26.2499 31.9641 26.4343 32.4093 26.7625 32.7374C27.0907 33.0656 27.5358 33.25 27.9999 33.25C28.4641 33.25 28.9092 33.0656 29.2374 32.7374C29.5656 32.4093 29.7499 31.9641 29.7499 31.5V28.875C29.7499 28.1788 30.0265 27.5111 30.5188 27.0189C31.0111 26.5266 31.6788 26.25 32.3749 26.25C33.0711 26.25 33.7388 26.5266 34.2311 27.0189C34.7234 27.5111 34.9999 28.1788 34.9999 28.875V33.25C34.9999 33.7141 35.1843 34.1593 35.5125 34.4874C35.8407 34.8156 36.2858 35 36.7499 35C37.2141 35 37.6592 34.8156 37.9874 34.4874C38.3156 34.1593 38.4999 33.7141 38.4999 33.25V32.375C38.4999 31.6788 38.7765 31.0111 39.2688 30.5189C39.7611 30.0266 40.4288 29.75 41.1249 29.75C41.8211 29.75 42.4888 30.0266 42.9811 30.5189C43.4734 31.0111 43.7499 31.6788 43.7499 32.375V40.25C43.7499 44.9772 42.1968 48.1906 42.1837 48.2169C41.9764 48.632 41.9424 49.1125 42.0893 49.5526C42.2361 49.9928 42.5518 50.3566 42.9668 50.5641C43.2096 50.6868 43.4779 50.7505 43.7499 50.75C44.0751 50.7502 44.3938 50.6599 44.6705 50.4891C44.9471 50.3184 45.1707 50.0739 45.3162 49.7831C45.3971 49.6235 47.2521 45.8456 47.2521 40.25V32.375C47.2521 31.5705 47.0936 30.7738 46.7857 30.0306C46.4777 29.2873 46.0264 28.612 45.4574 28.0432C44.8884 27.4744 44.2129 27.0233 43.4696 26.7156C42.7262 26.4079 41.9295 26.2497 41.1249 26.25Z" fill="white"/>
</svg>
