<svg width="16" height="16" viewBox="0 0 16 16" fill="none" xmlns="http://www.w3.org/2000/svg">
<path d="M9.03063 8.53063L6.53062 11.0306C6.38973 11.1715 6.19863 11.2507 5.99937 11.2507C5.80012 11.2507 5.60902 11.1715 5.46812 11.0306C5.32723 10.8897 5.24807 10.6986 5.24807 10.4994C5.24807 10.3001 5.32723 10.109 5.46812 9.96813L6.6875 8.75H1.5C1.30109 8.75 1.11032 8.67098 0.96967 8.53033C0.829018 8.38968 0.75 8.19891 0.75 8C0.75 7.80109 0.829018 7.61032 0.96967 7.46967C1.11032 7.32902 1.30109 7.25 1.5 7.25H6.6875L5.46938 6.03062C5.39961 5.96086 5.34427 5.87804 5.30651 5.78689C5.26876 5.69573 5.24932 5.59804 5.24932 5.49937C5.24932 5.30012 5.32848 5.10902 5.46938 4.96812C5.61027 4.82723 5.80137 4.74807 6.00063 4.74807C6.19988 4.74807 6.39098 4.82723 6.53188 4.96812L9.03187 7.46812C9.10171 7.53788 9.15709 7.62074 9.19484 7.71195C9.23259 7.80316 9.25196 7.90092 9.25184 7.99963C9.25173 8.09835 9.23212 8.19606 9.19416 8.28718C9.1562 8.3783 9.10063 8.46103 9.03063 8.53063ZM12 1.75H8.5C8.30109 1.75 8.11032 1.82902 7.96967 1.96967C7.82902 2.11032 7.75 2.30109 7.75 2.5C7.75 2.69891 7.82902 2.88968 7.96967 3.03033C8.11032 3.17098 8.30109 3.25 8.5 3.25H11.75V12.75H8.5C8.30109 12.75 8.11032 12.829 7.96967 12.9697C7.82902 13.1103 7.75 13.3011 7.75 13.5C7.75 13.6989 7.82902 13.8897 7.96967 14.0303C8.11032 14.171 8.30109 14.25 8.5 14.25H12C12.3315 14.25 12.6495 14.1183 12.8839 13.8839C13.1183 13.6495 13.25 13.3315 13.25 13V3C13.25 2.66848 13.1183 2.35054 12.8839 2.11612C12.6495 1.8817 12.3315 1.75 12 1.75Z" fill="#096F9F"/>
</svg>
