<svg width="343" height="272" viewBox="0 0 343 272" fill="none" xmlns="http://www.w3.org/2000/svg">
<path d="M159.719 41.4775C133.308 39.8382 105.671 23.2626 79.7669 39.248C60.3267 51.2481 57.4576 74.7964 63.1753 96.8511C78.1303 154.782 161.869 164.611 209.028 150.039C257.919 134.993 313.063 83.474 281.454 31.0513C268.444 9.4483 245.731 5.63773 220.963 12.8363C199.921 18.8837 180.419 42.7599 159.719 41.4775Z" fill="#096F9F"/>
<path opacity="0.9" d="M159.719 41.4775C133.308 39.8382 105.671 23.2626 79.7669 39.248C60.3267 51.2481 57.4576 74.7964 63.1753 96.8511C78.1303 154.782 161.869 164.611 209.028 150.039C257.919 134.993 313.063 83.474 281.454 31.0513C268.444 9.4483 245.731 5.63773 220.963 12.8363C199.921 18.8837 180.419 42.7599 159.719 41.4775Z" fill="white"/>
<path d="M171.811 271.649C245.137 271.649 304.578 267.957 304.578 263.402C304.578 258.847 245.137 255.154 171.811 255.154C98.4863 255.154 39.0446 258.847 39.0446 263.402C39.0446 267.957 98.4863 271.649 171.811 271.649Z" fill="#F5F5F5"/>
<path d="M239.02 44.1807C237.562 42.6288 234.754 36.749 237.445 33.9803C240.136 31.2116 242.533 33.7253 242.718 35.0732C242.903 36.4211 242.41 47.78 239.02 44.1807Z" fill="#263238"/>
<path d="M238.404 255.686L232.289 255.744L230.625 240.706L236.733 240.648L238.404 255.686Z" fill="#FF8B7B"/>
<path d="M232.282 254.994L238.952 254.928C239.075 254.93 239.194 254.973 239.292 255.052C239.391 255.13 239.463 255.24 239.499 255.365L241.115 261.128C241.158 261.263 241.17 261.406 241.15 261.546C241.13 261.686 241.079 261.819 241 261.933C240.921 262.048 240.818 262.14 240.699 262.203C240.579 262.266 240.447 262.297 240.314 262.294C237.911 262.294 234.419 262.156 231.412 262.185C227.879 262.185 226.304 262.447 222.155 262.491C219.648 262.491 218.731 259.824 219.792 259.577C224.496 258.418 226.927 258.265 230.865 255.518C231.279 255.2 231.772 255.018 232.282 254.994Z" fill="#263238"/>
<path opacity="0.2" d="M230.625 240.713L231.488 248.465L237.596 248.407L236.74 240.655L230.625 240.713Z" fill="black"/>
<path d="M229.755 256.152C230.415 256.14 231.071 256.054 231.714 255.897C231.744 255.892 231.772 255.877 231.793 255.853C231.814 255.829 231.827 255.799 231.83 255.766C231.833 255.735 231.827 255.703 231.812 255.676C231.797 255.648 231.775 255.626 231.748 255.613C231.46 255.46 228.893 254.156 228.187 254.615C228.122 254.659 228.069 254.721 228.033 254.794C227.997 254.866 227.979 254.948 227.982 255.03C227.98 255.17 228.009 255.309 228.066 255.435C228.123 255.562 228.207 255.672 228.311 255.759C228.739 256.054 229.246 256.193 229.755 256.152ZM231.221 255.686C229.899 255.934 228.893 255.883 228.482 255.533C228.411 255.474 228.354 255.397 228.317 255.31C228.28 255.222 228.264 255.126 228.269 255.03C228.265 255 228.27 254.97 228.282 254.943C228.294 254.915 228.314 254.893 228.338 254.877C228.721 254.629 230.173 255.212 231.221 255.686Z" fill="#096F9F"/>
<path d="M231.686 255.941C231.719 255.938 231.75 255.926 231.775 255.904C231.796 255.888 231.812 255.865 231.82 255.839C231.829 255.813 231.83 255.785 231.823 255.759C231.823 255.642 231.344 252.844 229.892 253.019C229.509 253.063 229.399 253.274 229.379 253.435C229.276 254.163 230.844 255.577 231.625 255.926L231.686 255.941ZM230.016 253.318C230.892 253.318 231.33 254.841 231.481 255.504C230.673 255.023 229.605 253.915 229.666 253.478C229.666 253.478 229.666 253.354 229.927 253.325L230.016 253.318Z" fill="#096F9F"/>
<path d="M234.083 77.0187L233.453 77.7473L232.864 78.3666C232.474 78.7746 232.07 79.1608 231.666 79.5396C230.862 80.3071 230.041 81.0357 229.201 81.7254C227.506 83.1589 225.721 84.4685 223.86 85.6453C222.922 86.2355 221.956 86.7965 220.977 87.3284C219.998 87.8603 218.964 88.3193 217.923 88.7856C215.788 89.6916 213.565 90.3393 211.295 90.7164L210.788 90.7965C210.459 90.8416 210.127 90.8635 209.795 90.8621C209.032 90.8545 208.278 90.6964 207.569 90.3958C206.867 90.0957 206.224 89.6583 205.673 89.1062C205.234 88.6609 204.852 88.1563 204.536 87.6052C204.099 86.8057 203.769 85.9449 203.557 85.0479C203.391 84.3532 203.269 83.6472 203.194 82.9349C203.069 81.7034 203.035 80.4635 203.091 79.2264C203.139 78.046 203.228 76.9094 203.351 75.7946C203.612 73.5578 203.981 71.423 204.433 69.2372C204.885 67.0514 205.399 65.0332 206.063 62.9203L210.562 63.8675C210.397 67.9622 210.213 72.1589 210.336 76.1225C210.358 77.963 210.542 79.7973 210.884 81.6016C210.951 81.9349 211.045 82.2615 211.164 82.5779C211.26 82.8256 211.377 82.9786 211.37 82.9131C211.33 82.8021 211.267 82.7023 211.185 82.6216C210.999 82.4298 210.78 82.2767 210.541 82.1699C210.295 82.0598 210.034 81.9933 209.767 81.9732C209.644 81.9732 209.589 81.9732 209.514 81.9732H209.589L209.733 81.9294C211.355 81.4861 212.933 80.8761 214.444 80.108C216.026 79.2961 217.556 78.3761 219.025 77.3538C220.511 76.3047 221.977 75.168 223.387 73.9659C224.072 73.3684 224.791 72.7418 225.442 72.1079L226.441 71.1462L226.921 70.6726L227.338 70.25L234.083 77.0187Z" fill="#FF8B7B"/>
<path d="M237.705 74.4467C237.473 67.576 232.173 65.1862 225.531 69.8711C222.602 71.8466 219.783 73.9995 217.088 76.3192L221.381 90.9932C221.381 90.9932 229.598 88.2173 234.35 82.7674C237.548 79.0661 237.788 76.7855 237.705 74.4467Z" fill="#263238"/>
<path opacity="0.2" d="M229.618 77.3757C229.618 77.3757 225.654 83.4085 224.25 89.8202C226.199 88.9358 228.077 87.8831 229.865 86.6727L229.618 77.3757Z" fill="black"/>
<path d="M210.336 66.046L212.637 60.5159L206.125 58.4904C206.125 58.4904 205.008 61.1352 205.645 65.6744L210.336 66.046Z" fill="#FF8B7B"/>
<path d="M213.328 54.0314L207.665 54.7527L206.125 58.4904L212.637 60.5159L213.328 54.0314Z" fill="#FF8B7B"/>
<path d="M229.66 124.254C229.66 124.254 225.455 161.748 224.99 181.813C224.51 202.658 228.352 244.706 228.352 244.706L239.383 244.458C239.383 244.458 240.711 199.445 242.314 178.819C244.053 156.334 248.435 123.846 248.435 123.846L229.66 124.254Z" fill="#096F9F"/>
<path opacity="0.6" d="M229.66 124.254C229.66 124.254 225.455 161.748 224.99 181.813C224.51 202.658 228.352 244.706 228.352 244.706L239.383 244.458C239.383 244.458 240.711 199.445 242.314 178.819C244.053 156.334 248.435 123.846 248.435 123.846L229.66 124.254Z" fill="white"/>
<path opacity="0.2" d="M242.8 134.87C237.87 146.432 239.191 172.261 241.992 183.336C242.095 181.726 242.204 180.203 242.314 178.797C243.457 163.977 245.738 144.822 247.182 133.478C245.84 131.409 244.341 131.248 242.8 134.87Z" fill="black"/>
<path d="M240.739 244.961L227.77 245.238L226.811 240.655L240.581 240.618L240.739 244.961Z" fill="#096F9F"/>
<path d="M265.65 255.686L259.542 255.744L257.878 240.706L263.986 240.648L265.65 255.686Z" fill="#FF8B7B"/>
<path d="M259.529 254.994L266.205 254.928C266.328 254.931 266.446 254.975 266.545 255.053C266.643 255.132 266.716 255.241 266.753 255.365L268.369 261.128C268.41 261.263 268.421 261.405 268.4 261.545C268.379 261.684 268.328 261.816 268.249 261.93C268.171 262.044 268.068 262.136 267.95 262.2C267.831 262.263 267.7 262.295 267.568 262.294C265.157 262.294 261.672 262.156 258.666 262.185C255.132 262.185 253.551 262.447 249.408 262.491C246.902 262.491 245.984 259.824 247.045 259.577C251.743 258.418 254.174 258.265 258.118 255.518C258.53 255.2 259.02 255.018 259.529 254.994Z" fill="#263238"/>
<path opacity="0.2" d="M257.878 240.713L258.734 248.465L264.849 248.407L263.993 240.655L257.878 240.713Z" fill="black"/>
<path d="M257.009 256.152C257.668 256.139 258.324 256.053 258.967 255.897C258.997 255.892 259.024 255.876 259.044 255.852C259.064 255.829 259.075 255.798 259.077 255.766C259.081 255.735 259.076 255.704 259.062 255.676C259.049 255.649 259.027 255.627 259.001 255.613C258.707 255.46 256.139 254.156 255.441 254.615C255.374 254.658 255.32 254.719 255.284 254.792C255.248 254.866 255.231 254.948 255.235 255.03C255.234 255.17 255.262 255.307 255.318 255.434C255.373 255.56 255.455 255.671 255.557 255.759C255.988 256.054 256.497 256.192 257.009 256.152ZM258.474 255.686C257.152 255.934 256.146 255.883 255.735 255.533C255.664 255.473 255.608 255.396 255.57 255.309C255.532 255.222 255.513 255.126 255.516 255.03C255.512 255 255.516 254.97 255.528 254.943C255.541 254.915 255.56 254.893 255.584 254.877C255.968 254.629 257.406 255.212 258.474 255.686Z" fill="#096F9F"/>
<path d="M258.933 255.941C258.954 255.94 258.975 255.935 258.993 255.925C259.012 255.915 259.029 255.901 259.043 255.884C259.056 255.867 259.066 255.847 259.072 255.825C259.078 255.804 259.079 255.781 259.077 255.759C259.077 255.642 258.597 252.844 257.146 253.019C256.762 253.063 256.653 253.274 256.625 253.435C256.529 254.163 258.097 255.577 258.878 255.926L258.933 255.941ZM257.269 253.318C258.138 253.318 258.584 254.841 258.734 255.504C257.926 255.023 256.851 253.915 256.913 253.478C256.913 253.478 256.913 253.354 257.173 253.325L257.269 253.318Z" fill="#096F9F"/>
<path d="M240.424 124.006C240.424 124.006 243.471 164.349 245.696 184.254C248.004 204.961 255.605 244.684 255.605 244.684L266.636 244.436C266.636 244.436 263.61 199.336 262.439 178.673C261.158 156.123 260.829 123.511 260.829 123.511L240.424 124.006Z" fill="#096F9F"/>
<path opacity="0.6" d="M240.424 124.006C240.424 124.006 243.471 164.349 245.696 184.254C248.004 204.961 255.605 244.684 255.605 244.684L266.636 244.436C266.636 244.436 263.61 199.336 262.439 178.673C261.158 156.123 260.829 123.511 260.829 123.511L240.424 124.006Z" fill="white"/>
<path d="M267.992 244.961L255.016 245.238L254.064 240.655L267.835 240.618L267.992 244.961Z" fill="#096F9F"/>
<path d="M228.899 68.0715C228.899 68.0715 224.387 85.893 229.66 124.254C239.506 124.028 256.043 123.62 260.83 123.525C260.953 118.185 257.248 91.9987 261.583 66.7527C258.464 66.1798 255.31 65.8534 252.147 65.7764C247.516 65.5965 242.879 65.7035 238.26 66.097C235.096 66.4952 231.967 67.1554 228.899 68.0715Z" fill="#263238"/>
<path opacity="0.2" d="M259.693 84.7199L254.591 80.2245C254.927 83.7363 257.912 92.3411 259.487 96.6981C259.46 92.8803 259.494 88.8511 259.693 84.7199Z" fill="black"/>
<path d="M241.444 78.403L235.877 90.1262C235.76 90.3724 235.718 90.6519 235.76 90.9245C235.801 91.1971 235.922 91.4488 236.107 91.6432C236.291 91.8376 236.529 91.9648 236.785 92.0065C237.042 92.0481 237.304 92.002 237.534 91.8749L241.17 89.7473C241.368 89.6342 241.592 89.5824 241.816 89.5979C242.039 89.6134 242.255 89.6954 242.437 89.8348L246.018 92.5816C246.224 92.7408 246.472 92.8254 246.727 92.8227C246.981 92.8201 247.228 92.7305 247.431 92.567C247.633 92.4036 247.781 92.1751 247.853 91.9153C247.924 91.6555 247.915 91.3782 247.826 91.1244L243.642 78.6071C243.57 78.3689 243.433 78.1589 243.248 78.0031C243.064 77.8472 242.841 77.7525 242.607 77.7308C242.372 77.709 242.137 77.7612 241.93 77.8807C241.724 78.0003 241.555 78.1819 241.444 78.403Z" fill="white"/>
<path d="M250.435 49.1352C249.654 53.9148 248.956 62.6434 252.147 65.74C252.147 65.74 251.216 70.0679 242.718 71.5688C237.007 69.6161 238.26 66.0897 238.26 66.0897C243.218 64.7054 243.005 60.7782 242.067 57.1061L250.435 49.1352Z" fill="#FF8B7B"/>
<path opacity="0.2" d="M247.025 52.3774L242.067 57.0696C242.298 57.9251 242.458 58.8003 242.547 59.6853C244.45 59.3501 247.018 57.0623 247.176 54.9421C247.273 54.0846 247.221 53.2154 247.025 52.3774Z" fill="black"/>
<path d="M253.153 43.2554C251.503 49.4631 250.839 53.1862 247.196 55.729C241.718 59.5469 235.001 55.0004 234.87 48.3775C234.747 42.4321 237.459 33.2736 243.772 32.1078C245.159 31.8461 246.586 31.9654 247.917 32.4545C249.248 32.9436 250.44 33.7863 251.38 34.9027C252.319 36.0192 252.975 37.3723 253.286 38.8341C253.596 40.2958 253.55 41.8176 253.153 43.2554Z" fill="#FF8B7B"/>
<path d="M249.641 47.0587C248.874 45.0769 248.319 38.5487 251.517 36.9458C254.715 35.3428 258.036 39.2554 257.193 41.1061C255.899 43.9767 251.421 51.6489 249.641 47.0587Z" fill="#263238"/>
<path d="M251.551 39.2481C250.764 37.0623 241.376 35.8237 240.061 33.4703C238.5 30.6725 244.902 30.3373 249.305 31.7581C253.174 33.0113 255.755 34.2207 255.303 37.2809C255.05 39.0149 251.551 39.2481 251.551 39.2481Z" fill="#263238"/>
<path d="M253.592 36.9967C253.592 36.9967 255.646 37.5941 256.769 35.9912C256.413 37.5796 254.667 39.1825 253.592 36.9967Z" fill="#263238"/>
<path d="M244.19 30.2572C241.369 27.9256 237.527 30.6652 237.89 33.7034C238.253 36.7417 247.764 39.0514 247.764 39.0514C247.764 39.0514 247.936 33.3537 244.19 30.2572Z" fill="#263238"/>
<path d="M237.897 33.718C238.328 35.8455 239.787 37.514 242.738 38.7526C241.03 37.4086 239.736 35.5548 239.02 33.4265L237.897 33.718Z" fill="#263238"/>
<path d="M243.82 42.9421C243.718 43.4594 243.382 43.8164 243.067 43.7435C242.752 43.6707 242.581 43.1898 242.684 42.6798C242.786 42.1698 243.129 41.8127 243.444 41.8856C243.759 41.9585 243.93 42.4612 243.82 42.9421Z" fill="#263238"/>
<path d="M238.383 41.6889C238.274 42.199 237.938 42.556 237.623 42.4831C237.308 42.4103 237.137 41.9367 237.24 41.4267C237.342 40.9166 237.685 40.5596 238 40.6252C238.315 40.6908 238.486 41.1789 238.383 41.6889Z" fill="#263238"/>
<path d="M240.061 42.3446C239.167 43.7779 238.091 45.0725 236.863 46.1916C237.548 47.2335 239.075 47.1825 239.075 47.1825L240.061 42.3446Z" fill="#FF5652"/>
<path d="M240.184 48.9239C240.827 49.0938 241.499 49.0958 242.143 48.9296C242.787 48.7634 243.384 48.434 243.882 47.9694C243.896 47.9552 243.906 47.9382 243.914 47.9194C243.921 47.9007 243.925 47.8805 243.925 47.8602C243.925 47.8398 243.921 47.8196 243.914 47.8009C243.906 47.7821 243.896 47.7651 243.882 47.7509C243.854 47.7232 243.817 47.7078 243.779 47.7078C243.741 47.7078 243.704 47.7232 243.676 47.7509C243.209 48.1696 242.656 48.466 242.061 48.6166C241.467 48.7671 240.847 48.7676 240.253 48.6179C240.215 48.6092 240.175 48.617 240.142 48.6395C240.109 48.6621 240.086 48.6975 240.078 48.7381C240.07 48.7787 240.077 48.8211 240.098 48.8559C240.12 48.8907 240.153 48.9152 240.191 48.9239H240.184Z" fill="#263238"/>
<path d="M245.84 41.4557C245.893 41.4669 245.947 41.4626 245.998 41.4433C246.048 41.424 246.093 41.3905 246.126 41.3462C246.16 41.302 246.182 41.2488 246.189 41.1923C246.197 41.1359 246.19 41.0783 246.169 41.0259C245.984 40.5771 245.701 40.1818 245.344 39.8726C244.987 39.5634 244.565 39.3493 244.115 39.2481C244.039 39.2376 243.962 39.2592 243.9 39.3081C243.839 39.3571 243.798 39.4297 243.786 39.5104C243.78 39.5501 243.782 39.5906 243.791 39.6297C243.799 39.6688 243.815 39.7056 243.838 39.7381C243.86 39.7705 243.888 39.798 243.92 39.819C243.952 39.8399 243.988 39.8539 244.026 39.8601C244.381 39.9432 244.712 40.1155 244.992 40.3627C245.272 40.6098 245.493 40.9246 245.635 41.2809C245.654 41.325 245.682 41.3637 245.718 41.3941C245.754 41.4244 245.796 41.4455 245.84 41.4557Z" fill="#263238"/>
<path d="M236.397 39.146C236.451 39.1619 236.508 39.1599 236.561 39.1403C236.613 39.1208 236.659 39.0847 236.692 39.0368C236.909 38.7273 237.191 38.4763 237.516 38.3042C237.84 38.1321 238.198 38.0436 238.561 38.0459C238.638 38.0536 238.714 38.0288 238.773 37.9768C238.832 37.9249 238.869 37.8501 238.876 37.769C238.883 37.6878 238.86 37.6069 238.811 37.5441C238.763 37.4812 238.692 37.4416 238.616 37.4338C238.157 37.4193 237.701 37.523 237.287 37.7361C236.873 37.9492 236.514 38.2654 236.24 38.6579C236.216 38.689 236.198 38.7251 236.187 38.764C236.176 38.8028 236.173 38.8436 236.177 38.8838C236.182 38.924 236.194 38.9628 236.213 38.9978C236.232 39.0329 236.257 39.0635 236.288 39.0878C236.319 39.117 236.357 39.137 236.397 39.146Z" fill="#263238"/>
<path d="M263.075 71.7218C264.322 74.0387 265.362 76.2828 266.444 78.5925C267.526 80.9022 268.499 83.2264 269.423 85.6016C270.347 87.9769 271.245 90.3885 272.025 92.8876C272.837 95.3799 273.523 97.9166 274.079 100.487L274.497 102.476C274.68 103.41 274.758 104.364 274.73 105.318C274.672 107.089 274.303 108.834 273.641 110.461C272.478 113.204 270.825 115.678 268.773 117.747C266.942 119.628 264.947 121.319 262.815 122.797C261.781 123.525 260.713 124.196 259.638 124.837C258.563 125.478 257.495 126.068 256.296 126.629L254.023 122.396C254.852 121.667 255.762 120.939 256.611 120.152C257.46 119.365 258.289 118.563 259.111 117.762C260.697 116.196 262.169 114.503 263.514 112.698C264.709 111.151 265.637 109.389 266.253 107.496C266.465 106.791 266.548 106.049 266.499 105.31C266.479 105.013 266.426 104.72 266.342 104.436L265.876 102.804C264.492 98.2769 262.846 93.8458 260.946 89.5361C260.008 87.3503 259.008 85.1645 258.008 82.9787C257.008 80.7929 255.954 78.6071 254.934 76.5306L263.075 71.7218Z" fill="#FF8B7B"/>
<path d="M261.816 66.7892C267.526 68.1006 271.498 83.955 271.498 83.955L261.288 93.8129C258.042 89.9704 255.489 85.5246 253.756 80.6981C251.051 72.7637 255.708 65.3757 261.816 66.7892Z" fill="#263238"/>
<path d="M255.262 121.645L248.696 121.718L252.804 128.764C252.804 128.764 257.481 127.532 257.899 125.033L255.262 121.645Z" fill="#FF8B7B"/>
<path d="M244.608 125.879L248.23 131.532L252.77 128.764L248.696 121.718L244.608 125.879Z" fill="#FF8B7B"/>
<path d="M254.947 48.9385C254.218 50.3668 252.987 51.4302 251.524 51.8966C249.579 52.5014 248.586 50.658 249.106 48.6981C249.579 46.9349 251.161 44.494 253.105 44.7491C255.05 45.0041 255.817 47.1826 254.947 48.9385Z" fill="#FF8B7B"/>
<path d="M196.746 169.49L189.445 170.054L189.495 170.78L196.795 170.217L196.746 169.49Z" fill="#096F9F"/>
<path d="M203.306 168.986L199.721 169.263L199.77 169.99L203.356 169.713L203.306 168.986Z" fill="#096F9F"/>
<path d="M234.809 83.4595L113.909 92.7346C111.392 92.9435 109.055 94.1998 107.404 96.2308C105.753 98.2619 104.921 100.904 105.089 103.583L109.198 164.217C109.392 166.899 110.574 169.39 112.486 171.149C114.398 172.908 116.886 173.792 119.407 173.609L126.255 173.085C126.752 173.046 127.244 173.22 127.621 173.567C127.999 173.914 128.231 174.406 128.268 174.935L129.035 186.17C129.047 186.388 129.121 186.596 129.246 186.769C129.37 186.942 129.541 187.071 129.735 187.14C129.93 187.209 130.139 187.215 130.336 187.156C130.534 187.098 130.71 186.977 130.843 186.811L142.305 172.713C142.787 172.122 143.469 171.758 144.202 171.7L240.287 164.334C242.804 164.127 245.143 162.871 246.796 160.84C248.449 158.809 249.281 156.166 249.113 153.485L245.005 92.8512C244.81 90.1725 243.63 87.6837 241.721 85.9252C239.812 84.1668 237.328 83.2807 234.809 83.4595Z" fill="#096F9F"/>
<path d="M131.568 120.567L138.101 120.064L138.635 127.933L145.77 127.387L145.236 119.518L151.796 119.008L153.323 141.492L146.763 141.995L146.147 132.902L139.012 133.456L139.628 142.549L133.102 143.052L131.568 120.567Z" fill="white"/>
<path opacity="0.2" d="M113.909 92.7346C111.392 92.9434 109.055 94.1997 107.404 96.2308C105.753 98.2619 104.921 100.904 105.089 103.583L109.198 164.217C109.392 166.899 110.574 169.39 112.486 171.149C114.398 172.908 116.886 173.792 119.407 173.609L120.414 173.529C122.086 173.4 123.672 172.688 124.925 171.502C126.178 170.317 127.028 168.724 127.344 166.972L141.114 90.6435L113.909 92.7346Z" fill="black"/>
<path d="M173.818 133.288L162.054 134.192C162.144 135.003 162.464 135.765 162.971 136.378C163.262 136.703 163.62 136.953 164.017 137.107C164.414 137.262 164.839 137.316 165.258 137.267C165.835 137.223 166.392 137.022 166.874 136.684C167.252 136.379 167.575 136.004 167.826 135.576L173.647 135.7C173.013 137.227 171.985 138.531 170.682 139.46C169.486 140.266 167.719 140.752 165.382 140.917C163.748 141.119 162.092 140.933 160.534 140.37C159.285 139.812 158.213 138.884 157.445 137.696C156.566 136.344 156.06 134.756 155.987 133.114C155.865 131.973 155.968 130.817 156.292 129.722C156.615 128.626 157.15 127.615 157.863 126.753C159.287 125.063 161.342 124.113 164.026 123.904C165.803 123.679 167.605 123.904 169.285 124.56C170.571 125.145 171.655 126.14 172.387 127.409C173.224 128.984 173.694 130.751 173.756 132.56L173.818 133.288ZM167.655 130.753C167.572 129.805 167.188 128.916 166.566 128.232C166.253 127.976 165.894 127.79 165.511 127.688C165.128 127.585 164.729 127.568 164.339 127.636C163.95 127.704 163.577 127.857 163.245 128.085C162.913 128.313 162.629 128.611 162.41 128.961C162.044 129.646 161.86 130.424 161.876 131.212L167.655 130.753Z" fill="white"/>
<path d="M175.632 117.179L181.514 116.727L183.041 139.205L177.159 139.656L175.632 117.179Z" fill="white"/>
<path d="M185.459 116.421L191.341 115.97L192.868 138.447L186.992 138.899L185.459 116.421Z" fill="white"/>
<path d="M195.346 130.119C195.235 128.979 195.351 127.826 195.686 126.737C196.021 125.647 196.568 124.645 197.291 123.795C198.757 122.061 200.831 121.089 203.516 120.88C206.574 120.647 208.953 121.415 210.651 123.183C212.061 124.765 212.876 126.844 212.941 129.025C213.005 131.205 212.314 133.334 211 135.008C209.548 136.727 207.444 137.699 204.687 137.922C202.545 138.196 200.381 137.654 198.579 136.392C197.62 135.684 196.829 134.749 196.268 133.661C195.707 132.572 195.392 131.36 195.346 130.119ZM201.229 129.653C201.218 130.803 201.589 131.92 202.276 132.808C202.554 133.11 202.889 133.344 203.26 133.494C203.631 133.645 204.028 133.708 204.424 133.679C204.82 133.649 205.206 133.529 205.554 133.326C205.902 133.123 206.204 132.841 206.44 132.502C206.993 131.487 207.201 130.301 207.028 129.143C207.035 128.016 206.669 126.922 205.994 126.053C205.731 125.746 205.404 125.507 205.039 125.355C204.675 125.203 204.282 125.143 203.892 125.179C203.486 125.199 203.089 125.319 202.732 125.529C202.376 125.738 202.07 126.033 201.838 126.389C201.286 127.369 201.08 128.526 201.256 129.653H201.229Z" fill="white"/>
<path d="M214.793 114.163L221.059 113.682L221.408 118.782L220.895 129.165L217.019 129.463L215.136 119.263L214.793 114.163ZM216.163 131.125L222.011 130.673L222.387 136.181L216.533 136.625L216.163 131.125Z" fill="white"/>
<path d="M112.238 72.7709C112.207 73.8374 112.26 74.9049 112.395 75.9621C106.191 78.1669 99.5733 78.7247 93.1195 77.5869C93.4293 76.3407 93.6175 75.0637 93.681 73.7763C93.4652 75.0726 93.0413 76.3197 92.4279 77.4631C91.2091 77.2153 90.5243 77.004 90.5243 77.004C90.5243 77.004 91.7706 69.8346 89.5246 64.6179C87.2786 59.4011 88.4016 56.4867 90.0998 55.6634C93.2496 45.361 105.089 46.9857 109.095 51.1679C114.176 56.4721 114.203 71.4157 115.107 74.8328C114.361 75.1753 113.628 75.4886 112.895 75.7654C112.528 74.8106 112.306 73.7998 112.238 72.7709Z" fill="#263238"/>
<path d="M117.134 88.8074L117.75 90.8839C117.976 91.6125 118.202 92.3411 118.435 93.0333C118.894 94.4905 119.373 95.9476 119.887 97.3466C120.4 98.7455 120.893 100.217 121.427 101.645L122.222 103.831L122.42 104.37L122.468 104.494C122.384 104.415 122.286 104.354 122.181 104.312C122.03 104.254 121.968 104.312 122.064 104.312C122.229 104.311 122.393 104.284 122.55 104.232C123.086 104.051 123.6 103.807 124.084 103.503C125.252 102.779 126.369 101.966 127.426 101.07C128.535 100.152 129.624 99.1681 130.692 98.1553C131.76 97.1426 132.835 96.0861 133.869 95.0515L135.972 96.9458C135.095 98.2865 134.171 99.5105 133.233 100.756C132.294 102.002 131.24 103.168 130.158 104.327C129.044 105.536 127.832 106.638 126.536 107.62C125.794 108.173 124.997 108.637 124.16 109.004C123.628 109.231 123.071 109.383 122.502 109.456C121.731 109.558 120.947 109.445 120.229 109.128C119.446 108.773 118.779 108.18 118.312 107.423C118.209 107.256 118.113 107.088 118.038 106.935L117.853 106.541L117.606 106.01C117.285 105.281 116.922 104.552 116.641 103.868C116.018 102.41 115.395 100.953 114.826 99.4959C114.258 98.0387 113.703 96.5378 113.176 95.0369C112.93 94.3083 112.683 93.5141 112.45 92.7491C112.217 91.9841 111.991 91.2336 111.766 90.3374L117.134 88.8074Z" fill="#FFC3BD"/>
<path d="M115.511 82.3374C117.873 82.9786 119.524 93.3101 119.524 93.3101L113.018 98.0169C113.018 98.0169 106.787 87.5906 108.602 84.8292C110.492 81.9586 112.067 81.4048 115.511 82.3374Z" fill="#096F9F"/>
<path d="M115.511 82.3374C117.873 82.9786 119.524 93.3101 119.524 93.3101L113.018 98.0169C113.018 98.0169 106.787 87.5906 108.602 84.8292C110.492 81.9586 112.067 81.4048 115.511 82.3374Z" fill="#096F9F"/>
<path opacity="0.4" d="M115.511 82.3374C117.873 82.9786 119.524 93.3101 119.524 93.3101L113.018 98.0169C113.018 98.0169 106.787 87.5906 108.602 84.8292C110.492 81.9586 112.067 81.4048 115.511 82.3374Z" fill="white"/>
<path opacity="0.3" d="M115.299 84.6471L117.113 95.0588L113.457 97.6963L115.299 84.6471Z" fill="black"/>
<path d="M133.76 95.2992L135.93 89.7327L138.608 95.2992C138.608 95.2992 136.868 98.0679 134.575 97.3903L133.76 95.2992Z" fill="#FFC3BD"/>
<path d="M138.32 89.1571L141.758 90.6289L138.608 95.2992L135.924 89.7327L138.32 89.1571Z" fill="#FFC3BD"/>
<path d="M102.74 256.269H108.472L108.855 242.156H103.124L102.74 256.269Z" fill="#FFC3BD"/>
<path d="M64.3119 238.09L69.5776 240.48L76.4731 228.269L71.2005 225.879L64.3119 238.09Z" fill="#FFC3BD"/>
<path d="M70.5912 239.649L65.1131 236.065C65.0195 236.001 64.9069 235.976 64.7969 235.994C64.687 236.013 64.5874 236.074 64.5174 236.167L61.2237 240.371C61.1418 240.481 61.0829 240.608 61.0511 240.744C61.0193 240.881 61.0152 241.022 61.0392 241.16C61.0632 241.299 61.1147 241.43 61.1902 241.545C61.2658 241.66 61.3636 241.756 61.4771 241.828C63.4081 243.045 64.3941 243.525 66.8045 245.099C68.2904 246.076 70.3583 247.649 72.4058 248.99C74.4532 250.331 75.8295 248.261 75.0695 247.496C71.7484 244.123 71.8443 242.52 71.2211 240.524C71.1176 240.161 70.8937 239.85 70.5912 239.649Z" fill="#263238"/>
<path d="M108.663 255.562H102.234C102.123 255.561 102.015 255.602 101.931 255.678C101.847 255.755 101.791 255.861 101.775 255.977L101.042 261.398C101.024 261.537 101.035 261.679 101.073 261.813C101.112 261.947 101.178 262.071 101.265 262.175C101.353 262.28 101.462 262.363 101.583 262.419C101.704 262.475 101.835 262.502 101.967 262.498C104.213 262.462 105.294 262.316 108.129 262.316C109.869 262.316 113.47 262.513 115.874 262.513C118.277 262.513 118.401 259.985 117.401 259.751C112.916 258.724 111.149 257.311 109.636 255.963C109.368 255.709 109.022 255.566 108.663 255.562Z" fill="#263238"/>
<path opacity="0.2" d="M108.848 242.163L108.657 249.434H102.925L103.124 242.163H108.848Z" fill="black"/>
<path opacity="0.2" d="M71.2006 225.886L76.4664 228.269L72.9125 234.564L67.6467 232.174L71.2006 225.886Z" fill="black"/>
<path d="M115.511 82.3374C115.511 82.3374 118.25 83.3575 112.772 119.11H89.4904C89.8807 109.041 89.8944 102.833 85.3818 82.1626C88.6373 81.4467 91.9374 80.984 95.256 80.7782C98.7733 80.5083 102.304 80.5083 105.822 80.7782C110.369 81.2154 115.511 82.3374 115.511 82.3374Z" fill="#096F9F"/>
<path opacity="0.4" d="M115.511 82.3374C115.511 82.3374 118.25 83.3575 112.772 119.11H89.4904C89.8807 109.041 89.8944 102.833 85.3818 82.1626C88.6373 81.4467 91.9374 80.984 95.256 80.7782C98.7733 80.5083 102.304 80.5083 105.822 80.7782C110.369 81.2154 115.511 82.3374 115.511 82.3374Z" fill="white"/>
<path d="M95.2698 80.7709C98.7874 80.5082 102.318 80.5082 105.836 80.7709C106.404 80.8292 106.986 80.8948 107.561 80.9676C107.801 81.3505 107.954 81.7868 108.01 82.2429C108.066 82.6989 108.022 83.1625 107.883 83.5979C107.137 85.5578 104.459 85.7837 102.514 85.7837C95.3177 85.7837 94.0988 81.3101 94.0509 81.1206L93.9824 80.8511L95.2698 80.7709Z" fill="white"/>
<path d="M96.3174 68.1224C97.0022 71.7654 97.6527 78.3665 95.2698 80.7782C95.2698 80.7782 96.201 84.4212 102.514 84.4212C109.458 84.4212 105.836 80.7782 105.836 80.7782C102.042 79.8165 102.145 76.8219 102.802 74.0168L96.3174 68.1224Z" fill="#FFC3BD"/>
<path d="M97.009 65.5505C96.1941 68.4139 97.324 75.1898 99.0016 77.8128C95.6943 75.7946 94.5781 69.6452 94.5781 69.6452L97.009 65.5505Z" fill="#263238"/>
<path opacity="0.2" d="M98.9604 70.5268L102.802 74.0095C102.633 74.6624 102.523 75.3309 102.473 76.0059C101.028 75.78 99.0494 74.0896 98.8851 72.4794C98.8 71.829 98.8255 71.1676 98.9604 70.5268Z" fill="black"/>
<path d="M93.1812 61.6671C94.5096 67.5469 94.9478 70.0678 98.2757 72.5961C103.281 76.3921 109.78 73.3757 110.129 67.1899C110.444 61.6234 108.225 52.9457 102.371 51.6051C101.081 51.3021 99.7392 51.3548 98.4738 51.7584C97.2084 52.1619 96.0609 52.9029 95.1403 53.911C94.2196 54.919 93.5564 56.1607 93.2135 57.5181C92.8706 58.8756 92.8595 60.3038 93.1812 61.6671Z" fill="#FFC3BD"/>
<path d="M112.779 119.11C112.779 119.11 117.291 166.046 116.887 184.626C116.497 203.948 109.841 248.014 109.841 248.014H102.104C102.104 248.014 103.329 205.063 102.645 186.083C101.898 165.39 95.7217 119.095 95.7217 119.095L112.779 119.11Z" fill="#096F9F"/>
<path opacity="0.4" d="M112.779 119.11C112.779 119.11 117.291 166.046 116.887 184.626C116.497 203.948 109.841 248.014 109.841 248.014H102.104C102.104 248.014 103.329 205.063 102.645 186.083C101.898 165.39 95.7217 119.095 95.7217 119.095L112.779 119.11Z" fill="black"/>
<path d="M101.46 248.32H110.54L111.211 245.238L101.035 244.859L101.46 248.32Z" fill="#096F9F"/>
<path opacity="0.2" d="M102.747 130.789C108.458 143.015 103.891 165.318 101.871 173.616C100.837 161.157 99.0907 145.93 97.728 134.731C98.5908 128.436 100.111 125.15 102.747 130.789Z" fill="black"/>
<path d="M106.637 119.11C106.637 119.11 101.364 167.926 97.3856 183.569C92.6676 202.17 74.7065 233.842 74.7065 233.842L67.5234 230.593C67.5234 230.593 78.637 194.629 82.2525 184.83C89.956 163.919 83.3618 132.757 89.5177 119.11H106.637Z" fill="#096F9F"/>
<path opacity="0.4" d="M106.637 119.11C106.637 119.11 101.364 167.926 97.3856 183.569C92.6676 202.17 74.7065 233.842 74.7065 233.842L67.5234 230.593C67.5234 230.593 78.637 194.629 82.2525 184.83C89.956 163.919 83.3618 132.757 89.5177 119.11H106.637Z" fill="black"/>
<path d="M66.5305 230.615L75.446 234.651L77.5893 232.101L67.3043 226.848L66.5305 230.615Z" fill="#096F9F"/>
<path d="M101.967 61.7472C102.049 62.2281 102.35 62.5778 102.651 62.5195C102.953 62.4612 103.124 62.0241 103.042 61.5432C102.959 61.0623 102.658 60.7126 102.357 60.7636C102.056 60.8146 101.85 61.2591 101.967 61.7472Z" fill="#263238"/>
<path d="M107.075 60.7854C107.15 61.2663 107.458 61.616 107.76 61.5577C108.061 61.4995 108.239 61.0623 108.157 60.5814C108.075 60.1005 107.773 59.7508 107.472 59.8018C107.171 59.8528 106.993 60.2973 107.075 60.7854Z" fill="#263238"/>
<path d="M107.342 59.8601L108.376 59.3137C108.376 59.3137 107.965 60.3264 107.342 59.8601Z" fill="#263238"/>
<path d="M105.849 61.8711C106.437 62.8994 107.156 63.8361 107.985 64.6543C107.782 64.8732 107.537 65.0426 107.266 65.1508C106.995 65.259 106.706 65.3034 106.417 65.2809L105.849 61.8711Z" fill="#ED847E"/>
<path d="M104.356 67.5614C104.616 67.5609 104.875 67.5366 105.13 67.4886C105.15 67.4878 105.169 67.4825 105.186 67.4731C105.204 67.4637 105.219 67.4504 105.232 67.4342C105.244 67.418 105.253 67.3991 105.257 67.379C105.262 67.3588 105.263 67.3377 105.26 67.3172C105.256 67.2967 105.249 67.2773 105.237 67.2601C105.226 67.243 105.212 67.2286 105.195 67.2179C105.178 67.2072 105.159 67.2005 105.14 67.1982C105.121 67.1958 105.101 67.198 105.082 67.2044C104.518 67.324 103.936 67.2998 103.383 67.1339C102.829 66.968 102.32 66.6651 101.898 66.25C101.873 66.2233 101.838 66.2083 101.802 66.2083C101.766 66.2083 101.732 66.2233 101.706 66.25C101.693 66.2629 101.683 66.2787 101.675 66.2963C101.668 66.3138 101.664 66.3328 101.664 66.352C101.664 66.3711 101.668 66.3901 101.675 66.4077C101.683 66.4252 101.693 66.441 101.706 66.454C102.421 67.1752 103.371 67.5724 104.356 67.5614Z" fill="#263238"/>
<path d="M95.119 58.2208C95.2688 59.7702 95.4973 61.3098 95.8038 62.8328C95.8038 62.8328 99.2275 58.2208 99.7959 55.7508C99.66 56.7233 99.3949 57.6702 99.0084 58.5632C99.0084 58.5632 103.617 57.4922 104.069 54.2572C104.061 55.7055 103.909 57.1488 103.617 58.5632C103.617 58.5632 108.013 56.7272 107.609 53.6233C107.205 50.5195 100.453 49.3173 97.3376 50.3665C94.222 51.4157 91.1748 54.8182 92.0924 59.4959C93.01 64.1735 94.7698 65.9294 94.7698 65.9294C94.7698 65.9294 93.503 61.2153 95.119 58.2208Z" fill="#263238"/>
<path d="M92.9415 66.097C93.3642 67.1762 94.1719 68.0331 95.1875 68.4795C96.557 69.0624 97.3719 67.8165 97.1322 66.3738C96.92 65.0696 95.9545 63.2044 94.537 63.2336C94.2269 63.2482 93.925 63.3448 93.6587 63.5146C93.3924 63.6844 93.1701 63.9221 93.0117 64.2063C92.8534 64.4904 92.7641 64.8121 92.7518 65.1422C92.7396 65.4723 92.8048 65.8004 92.9415 66.097Z" fill="#FFC3BD"/>
<path d="M95.9477 55.9767C95.2629 58.8911 96.6872 65.5942 98.4813 68.1224C95.0575 66.2791 93.688 60.188 93.688 60.188L95.9477 55.9767Z" fill="#263238"/>
<path d="M100.09 60.086C100.126 60.0747 100.158 60.0559 100.186 60.0309C100.215 60.0059 100.238 59.9751 100.255 59.9403C100.399 59.6116 100.615 59.324 100.884 59.1011C101.153 58.8782 101.467 58.7263 101.802 58.6579C101.873 58.6471 101.937 58.6078 101.982 58.5482C102.026 58.4887 102.048 58.4132 102.042 58.3373C102.039 58.2993 102.028 58.2623 102.011 58.2287C101.994 58.195 101.97 58.1654 101.942 58.1416C101.914 58.1178 101.882 58.1003 101.847 58.0901C101.812 58.0799 101.776 58.0773 101.741 58.0823C101.316 58.1608 100.915 58.3466 100.572 58.6243C100.229 58.902 99.9531 59.2634 99.7685 59.678C99.7453 59.7286 99.7363 59.7854 99.7428 59.8413C99.7492 59.8973 99.7708 59.9501 99.8048 59.9933C99.8389 60.0365 99.884 60.0682 99.9347 60.0847C99.9854 60.1011 100.039 60.1016 100.09 60.086Z" fill="#263238"/>
<path d="M108.944 57.8273C108.979 57.8289 109.013 57.8225 109.045 57.8087C109.077 57.7949 109.106 57.7739 109.129 57.7472C109.179 57.6927 109.207 57.6195 109.207 57.5432C109.207 57.4669 109.179 57.3936 109.129 57.3392C108.837 57.0029 108.475 56.7446 108.072 56.5851C107.668 56.4256 107.235 56.3694 106.808 56.4211C106.772 56.4281 106.738 56.4425 106.708 56.4636C106.678 56.4846 106.651 56.5119 106.631 56.5437C106.611 56.5756 106.596 56.6114 106.589 56.6491C106.582 56.6869 106.582 56.7258 106.589 56.7636C106.604 56.8372 106.645 56.9019 106.703 56.944C106.762 56.9861 106.834 57.0024 106.904 56.9894C107.241 56.9494 107.582 56.9944 107.9 57.121C108.217 57.2476 108.503 57.4522 108.732 57.718C108.757 57.7519 108.79 57.7793 108.826 57.7982C108.863 57.8171 108.903 57.8271 108.944 57.8273Z" fill="#263238"/>
<path d="M88.2236 90.811C87.2718 94.0096 86.3611 97.3684 85.5873 100.676C84.8084 103.942 84.2388 107.26 83.8822 110.607L83.8275 111.219C83.8275 111.416 83.8275 111.46 83.8275 111.634C83.835 111.978 83.8602 112.321 83.9028 112.662C83.99 113.46 84.1157 114.253 84.2794 115.037C84.6012 116.662 84.9642 118.338 85.4298 119.999C85.8954 121.66 86.2926 123.35 86.7582 125.026L88.1277 130.053L85.5873 131.168C84.026 127.991 82.6702 124.756 81.4034 121.419C80.794 119.744 80.1983 118.053 79.7052 116.268C79.4587 115.379 79.2259 114.469 79.0205 113.478C78.923 112.953 78.8544 112.423 78.8151 111.889C78.8151 111.62 78.8151 111.219 78.8151 110.979V110.25C78.8731 108.393 79.0332 106.542 79.2944 104.705C79.5204 102.884 79.8559 101.106 80.2188 99.3356C80.9313 95.7897 81.846 92.2933 82.9578 88.8657L88.2236 90.811Z" fill="#FFC3BD"/>
<path d="M85.3955 82.1626C83.0674 82.8912 80.2667 91.4522 80.2667 91.4522L89.3055 98.3302C89.3055 98.3302 92.606 91.2045 91.6268 87.9987C90.6065 84.6617 88.0592 81.3028 85.3955 82.1626Z" fill="#096F9F"/>
<path opacity="0.4" d="M85.3955 82.1626C83.0674 82.8912 80.2667 91.4522 80.2667 91.4522L89.3055 98.3302C89.3055 98.3302 92.606 91.2045 91.6268 87.9987C90.6065 84.6617 88.0592 81.3028 85.3955 82.1626Z" fill="white"/>
<path d="M72.9056 241.966C73.017 241.925 73.1183 241.857 73.2023 241.769C73.2864 241.681 73.3511 241.574 73.3918 241.456C73.4314 241.38 73.4522 241.295 73.4522 241.209C73.4522 241.122 73.4314 241.037 73.3918 240.961C72.981 240.32 70.9062 240.371 70.6528 240.378C70.6265 240.378 70.601 240.387 70.5791 240.402C70.5573 240.418 70.54 240.44 70.5295 240.465C70.5162 240.488 70.5092 240.515 70.5092 240.542C70.5092 240.569 70.5162 240.595 70.5295 240.618C71.0705 241.194 72.0839 242.134 72.7961 241.988L72.9056 241.966ZM70.9815 240.64C71.81 240.64 72.9193 240.764 73.1385 241.107C73.1572 241.139 73.1671 241.177 73.1671 241.216C73.1671 241.254 73.1572 241.292 73.1385 241.325C73.1082 241.413 73.058 241.492 72.9923 241.554C72.9266 241.616 72.8474 241.66 72.7618 241.682C72.3852 241.784 71.7279 241.369 70.9815 240.64Z" fill="#096F9F"/>
<path d="M71.5909 240.487C72.2209 240.276 72.892 239.904 73.0358 239.489C73.0715 239.381 73.072 239.263 73.0372 239.155C73.0024 239.047 72.9344 238.954 72.844 238.892C72.7643 238.821 72.6704 238.77 72.5696 238.744C72.4688 238.717 72.3636 238.715 72.262 238.739C71.4471 238.892 70.5707 240.378 70.5364 240.444C70.5244 240.466 70.5181 240.491 70.5181 240.516C70.5181 240.542 70.5244 240.567 70.5364 240.589C70.5487 240.611 70.5658 240.628 70.5861 240.641C70.6064 240.654 70.6293 240.661 70.6528 240.662C70.9718 240.652 71.2878 240.594 71.5909 240.487ZM72.2209 239.03H72.3099C72.3743 239.016 72.4409 239.017 72.5048 239.033C72.5687 239.05 72.6285 239.081 72.6797 239.125C72.8166 239.241 72.8029 239.329 72.7824 239.394C72.6455 239.795 71.6046 240.276 70.913 240.371C71.2277 239.81 71.6798 239.352 72.2209 239.045V239.03Z" fill="#096F9F"/>
<path d="M110.814 256.626C111.296 256.668 111.778 256.537 112.183 256.254C112.277 256.164 112.349 256.05 112.392 255.923C112.435 255.796 112.448 255.659 112.43 255.526C112.424 255.447 112.4 255.37 112.359 255.304C112.319 255.238 112.263 255.184 112.197 255.147C111.512 254.739 109.218 255.977 108.958 256.116C108.933 256.127 108.911 256.145 108.896 256.169C108.881 256.193 108.873 256.222 108.873 256.25C108.873 256.279 108.881 256.308 108.896 256.332C108.911 256.356 108.933 256.374 108.958 256.385C109.567 256.532 110.189 256.612 110.814 256.626ZM111.834 255.365C111.921 255.359 112.008 255.377 112.087 255.416C112.114 255.432 112.137 255.455 112.152 255.483C112.168 255.512 112.176 255.544 112.176 255.577C112.189 255.66 112.182 255.746 112.156 255.826C112.129 255.907 112.085 255.978 112.026 256.036C111.676 256.371 110.731 256.429 109.465 256.203C110.204 255.783 111.005 255.5 111.834 255.365Z" fill="#096F9F"/>
<path d="M109.04 256.414H109.095C109.78 256.087 111.149 254.775 111.026 254.083C111.026 253.915 110.889 253.719 110.512 253.675C110.378 253.659 110.241 253.673 110.111 253.715C109.982 253.758 109.862 253.828 109.759 253.923C109.074 254.564 108.91 256.203 108.903 256.269C108.902 256.294 108.907 256.32 108.918 256.343C108.929 256.366 108.945 256.385 108.965 256.4C108.987 256.415 109.014 256.42 109.04 256.414ZM110.41 253.944H110.492C110.738 253.944 110.759 254.083 110.759 254.112C110.827 254.527 109.91 255.569 109.211 256.014C109.266 255.321 109.522 254.664 109.944 254.134C110.07 254.012 110.233 253.945 110.403 253.944H110.41Z" fill="#096F9F"/>
<path d="M89.1685 117.66L88.5796 119.846C88.4975 120.013 88.6892 120.188 88.9563 120.188H112.923C113.135 120.188 113.306 120.079 113.32 119.94L113.532 117.755C113.532 117.602 113.361 117.47 113.135 117.47H89.552C89.4782 117.464 89.4041 117.479 89.337 117.512C89.2698 117.545 89.2118 117.596 89.1685 117.66Z" fill="#263238"/>
<path d="M92.3321 120.458H91.6953C91.572 120.458 91.4762 120.392 91.483 120.305L91.7775 117.39C91.7775 117.31 91.9007 117.237 92.024 117.237H92.6539C92.784 117.237 92.8731 117.31 92.8662 117.39L92.5718 120.305C92.5718 120.421 92.4622 120.458 92.3321 120.458Z" fill="#096F9F"/>
<path opacity="0.4" d="M92.3321 120.458H91.6953C91.572 120.458 91.4762 120.392 91.483 120.305L91.7775 117.39C91.7775 117.31 91.9007 117.237 92.024 117.237H92.6539C92.784 117.237 92.8731 117.31 92.8662 117.39L92.5718 120.305C92.5718 120.421 92.4622 120.458 92.3321 120.458Z" fill="black"/>
<path d="M111.115 120.458H110.485C110.362 120.458 110.266 120.392 110.273 120.305L110.574 117.39C110.574 117.31 110.69 117.237 110.814 117.237H111.444C111.574 117.237 111.67 117.31 111.656 117.39L111.361 120.305C111.355 120.421 111.245 120.458 111.115 120.458Z" fill="#096F9F"/>
<path opacity="0.4" d="M111.115 120.458H110.485C110.362 120.458 110.266 120.392 110.273 120.305L110.574 117.39C110.574 117.31 110.69 117.237 110.814 117.237H111.444C111.574 117.237 111.67 117.31 111.656 117.39L111.361 120.305C111.355 120.421 111.245 120.458 111.115 120.458Z" fill="black"/>
<path d="M101.727 120.458H101.097C100.967 120.458 100.871 120.392 100.885 120.305L101.179 117.39C101.179 117.31 101.295 117.237 101.426 117.237H102.056C102.179 117.237 102.275 117.31 102.268 117.39L101.973 120.305C101.967 120.421 101.85 120.458 101.727 120.458Z" fill="#096F9F"/>
<path opacity="0.4" d="M101.727 120.458H101.097C100.967 120.458 100.871 120.392 100.885 120.305L101.179 117.39C101.179 117.31 101.295 117.237 101.426 117.237H102.056C102.179 117.237 102.275 117.31 102.268 117.39L101.973 120.305C101.967 120.421 101.85 120.458 101.727 120.458Z" fill="black"/>
<path d="M102.199 60.8146L103.233 60.2755C103.233 60.2755 102.822 61.2882 102.199 60.8146Z" fill="#263238"/>
<path d="M87.9359 129.23L92.8456 133.237L87.1553 134.571C87.1553 134.571 84.7381 131.656 85.5735 129.252L87.9359 129.23Z" fill="#FFC3BD"/>
<path d="M94.0508 138.199L89.2302 139.037L86.6007 133.777L92.8457 133.237L94.0508 138.199Z" fill="#FFC3BD"/>
</svg>
