<svg width="343" height="253" viewBox="0 0 343 253" fill="none" xmlns="http://www.w3.org/2000/svg">
<path d="M153.755 87.218C142.291 92.1017 117.325 78.88 105.239 75.8704C74.7392 68.278 39.2669 81.0893 42.3107 123.75C46.4147 182.061 132.517 246.145 222.511 215.468C267.969 199.969 305.192 156.644 305.104 104.66C304.912 10.2543 215.383 7.05316 187.25 30.7059C160.903 52.9085 168.858 80.7815 153.755 87.218Z" fill="#096F9F"/>
<path opacity="0.9" d="M153.755 87.218C142.291 92.1017 117.325 78.88 105.239 75.8704C74.7392 68.278 39.2669 81.0893 42.3107 123.75C46.4147 182.061 132.517 246.145 222.511 215.468C267.969 199.969 305.192 156.644 305.104 104.66C304.912 10.2543 215.383 7.05316 187.25 30.7059C160.903 52.9085 168.858 80.7815 153.755 87.218Z" fill="white"/>
<path d="M168.673 252.808C241.917 252.808 301.294 249.341 301.294 245.065C301.294 240.788 241.917 237.322 168.673 237.322C95.4286 237.322 36.0522 240.788 36.0522 245.065C36.0522 249.341 95.4286 252.808 168.673 252.808Z" fill="#F5F5F5"/>
<path d="M201.142 44.8236H184.726C184.192 44.835 183.676 45.0251 183.262 45.3635C182.848 45.7019 182.559 46.1692 182.442 46.6909L182.332 47.2039C182.049 48.4766 181.346 49.6171 180.336 50.442C179.326 51.267 178.068 51.7285 176.765 51.7525H161.169C159.933 51.7802 158.735 51.3174 157.838 50.4652C156.941 49.6131 156.417 48.4407 156.381 47.2039V46.6909C156.369 46.1842 156.156 45.703 155.789 45.353C155.423 45.003 154.932 44.8126 154.425 44.8236H138.009C135.313 44.8716 132.728 45.9059 130.743 47.731C128.758 49.556 127.51 52.0453 127.236 54.7279L114.062 205.577C113.923 206.839 114.054 208.115 114.447 209.322C114.84 210.528 115.485 211.637 116.34 212.575C117.195 213.513 118.24 214.258 119.405 214.76C120.57 215.262 121.829 215.511 123.098 215.488H186.211C188.908 215.439 191.493 214.403 193.478 212.577C195.463 210.751 196.71 208.261 196.984 205.577L210.185 54.7279C210.323 53.4666 210.191 52.1903 209.797 50.984C209.404 49.7778 208.758 48.6692 207.902 47.7321C207.047 46.7951 206.001 46.051 204.836 45.5495C203.67 45.048 202.411 44.8005 201.142 44.8236Z" fill="#096F9F"/>
<path opacity="0.7" d="M201.142 44.8236H184.726C184.192 44.835 183.676 45.0251 183.262 45.3635C182.848 45.7019 182.559 46.1692 182.442 46.6909L182.332 47.2039C182.049 48.4766 181.346 49.6171 180.336 50.442C179.326 51.267 178.068 51.7285 176.765 51.7525H161.169C159.933 51.7802 158.735 51.3174 157.838 50.4652C156.941 49.6131 156.417 48.4407 156.381 47.2039V46.6909C156.369 46.1842 156.156 45.703 155.789 45.353C155.423 45.003 154.932 44.8126 154.425 44.8236H138.009C135.313 44.8716 132.728 45.9059 130.743 47.731C128.758 49.556 127.51 52.0453 127.236 54.7279L114.062 205.577C113.923 206.839 114.054 208.115 114.447 209.322C114.84 210.528 115.485 211.637 116.34 212.575C117.195 213.513 118.24 214.258 119.405 214.76C120.57 215.262 121.829 215.511 123.098 215.488H186.211C188.908 215.439 191.493 214.403 193.478 212.577C195.463 210.751 196.71 208.261 196.984 205.577L210.185 54.7279C210.323 53.4666 210.191 52.1903 209.797 50.984C209.404 49.7778 208.758 48.6692 207.902 47.7321C207.047 46.7951 206.001 46.051 204.836 45.5495C203.67 45.048 202.411 44.8005 201.142 44.8236Z" fill="white"/>
<path d="M194.747 114.209H161.231C160.949 114.213 160.669 114.158 160.411 114.046C160.152 113.934 159.919 113.769 159.729 113.561C159.539 113.352 159.395 113.106 159.308 112.838C159.22 112.57 159.19 112.287 159.22 112.006L161.744 83.1482C161.804 82.5516 162.081 81.9979 162.522 81.592C162.964 81.186 163.539 80.9561 164.138 80.9457H197.654C197.936 80.9401 198.217 80.9948 198.476 81.1061C198.735 81.2175 198.968 81.3829 199.158 81.5914C199.349 81.7999 199.492 82.0467 199.58 82.3151C199.667 82.5836 199.696 82.8676 199.665 83.1482L197.141 112.006C197.079 112.602 196.802 113.155 196.361 113.561C195.92 113.966 195.346 114.197 194.747 114.209Z" fill="white"/>
<path d="M183.598 204.442H127.51C126.809 204.455 126.113 204.318 125.469 204.041C124.825 203.764 124.248 203.353 123.776 202.835C123.303 202.317 122.946 201.705 122.729 201.038C122.512 200.372 122.44 199.667 122.517 198.97C122.668 197.488 123.358 196.113 124.454 195.105C125.551 194.097 126.978 193.525 128.467 193.498H184.555C185.256 193.485 185.952 193.622 186.596 193.899C187.24 194.176 187.817 194.587 188.29 195.105C188.762 195.622 189.119 196.235 189.336 196.901C189.553 197.568 189.626 198.273 189.549 198.97C189.398 200.452 188.709 201.828 187.613 202.836C186.516 203.845 185.087 204.416 183.598 204.442Z" fill="white"/>
<path d="M188.064 73.0113H136.607C136.213 73.0231 135.82 72.9495 135.457 72.7955C135.094 72.6415 134.768 72.4107 134.502 72.119C134.236 71.8272 134.037 71.4814 133.917 71.1053C133.798 70.7293 133.761 70.3317 133.809 69.9401L134.227 65.1521C134.313 64.322 134.701 63.5523 135.315 62.9878C135.93 62.4234 136.73 62.1033 137.565 62.0878H189.022C189.415 62.0807 189.805 62.1572 190.165 62.3123C190.526 62.4674 190.85 62.6975 191.115 62.9873C191.381 63.2771 191.581 63.62 191.704 63.9932C191.826 64.3665 191.868 64.7615 191.826 65.1521L191.402 69.9401C191.317 70.7714 190.931 71.5428 190.316 72.1087C189.701 72.6745 188.9 72.9956 188.064 73.0113Z" fill="white"/>
<path d="M198.53 64.988C198.506 65.2197 198.398 65.4347 198.227 65.5923C198.056 65.7499 197.832 65.8391 197.599 65.843C197.49 65.8445 197.382 65.8229 197.281 65.7795C197.181 65.736 197.091 65.6718 197.017 65.591C196.943 65.5101 196.888 65.4146 196.854 65.3106C196.82 65.2067 196.808 65.0967 196.82 64.988C196.843 64.7569 196.951 64.5426 197.123 64.3862C197.294 64.2297 197.518 64.142 197.75 64.1398C197.859 64.1372 197.967 64.158 198.068 64.2006C198.168 64.2433 198.258 64.3069 198.332 64.3872C198.406 64.4675 198.462 64.5626 198.496 64.6662C198.53 64.7698 198.541 64.8795 198.53 64.988Z" fill="white"/>
<path d="M198.304 67.5461C198.282 67.7772 198.176 67.9922 198.005 68.15C197.835 68.3077 197.613 68.3971 197.38 68.4011C197.271 68.4027 197.163 68.3811 197.062 68.3376C196.962 68.2942 196.872 68.2299 196.798 68.1491C196.724 68.0683 196.669 67.9728 196.635 67.8688C196.601 67.7649 196.589 67.6549 196.601 67.5461C196.623 67.315 196.729 67.1 196.899 66.9423C197.069 66.7846 197.292 66.6951 197.524 66.6911C197.633 66.6895 197.742 66.7112 197.842 66.7546C197.943 66.7981 198.033 66.8623 198.106 66.9431C198.18 67.0239 198.236 67.1195 198.27 67.2234C198.304 67.3274 198.315 67.4374 198.304 67.5461Z" fill="white"/>
<path d="M198.085 70.0975C198.061 70.3292 197.954 70.5442 197.782 70.7018C197.611 70.8594 197.388 70.9486 197.155 70.9525C197.045 70.954 196.937 70.9324 196.836 70.889C196.736 70.8455 196.646 70.7813 196.572 70.7005C196.499 70.6196 196.443 70.5241 196.409 70.4201C196.375 70.3162 196.363 70.2062 196.375 70.0975C196.398 69.8657 196.506 69.6507 196.677 69.4931C196.849 69.3355 197.072 69.2463 197.305 69.2425C197.415 69.2409 197.523 69.2625 197.623 69.306C197.724 69.3494 197.814 69.4136 197.887 69.4945C197.961 69.5753 198.017 69.6708 198.051 69.7748C198.085 69.8787 198.097 69.9887 198.085 70.0975Z" fill="white"/>
<path d="M190.581 161.815H127.975C127.693 161.821 127.412 161.766 127.153 161.655C126.894 161.543 126.661 161.378 126.471 161.169C126.28 160.961 126.136 160.714 126.049 160.446C125.962 160.177 125.933 159.893 125.964 159.613L128.878 126.678C128.938 126.081 129.215 125.528 129.656 125.122C130.097 124.716 130.672 124.486 131.272 124.475H193.858C194.139 124.471 194.419 124.526 194.678 124.638C194.936 124.75 195.168 124.915 195.358 125.124C195.547 125.332 195.69 125.579 195.777 125.846C195.864 126.114 195.893 126.398 195.862 126.678L192.982 159.613C192.922 160.21 192.644 160.765 192.201 161.171C191.759 161.577 191.182 161.806 190.581 161.815Z" fill="white"/>
<path d="M145.198 168.696H125.704C125.636 168.697 125.568 168.684 125.505 168.657C125.442 168.63 125.386 168.59 125.34 168.54C125.294 168.489 125.259 168.429 125.238 168.364C125.217 168.299 125.211 168.23 125.218 168.163C125.232 168.017 125.299 167.881 125.406 167.781C125.513 167.682 125.653 167.625 125.8 167.622H145.294C145.363 167.621 145.431 167.634 145.495 167.661C145.558 167.689 145.615 167.729 145.661 167.781C145.707 167.832 145.741 167.893 145.762 167.959C145.782 168.025 145.788 168.094 145.78 168.163C145.765 168.307 145.697 168.441 145.59 168.54C145.483 168.638 145.343 168.693 145.198 168.696Z" fill="white"/>
<path d="M169.562 168.696H148.639C148.57 168.698 148.501 168.686 148.437 168.659C148.374 168.633 148.317 168.593 148.27 168.542C148.223 168.492 148.188 168.432 148.167 168.366C148.145 168.3 148.138 168.231 148.146 168.163C148.16 168.017 148.226 167.881 148.334 167.781C148.441 167.682 148.581 167.625 148.728 167.622H169.658C169.727 167.621 169.795 167.634 169.859 167.661C169.922 167.689 169.979 167.729 170.025 167.781C170.071 167.832 170.105 167.893 170.126 167.959C170.146 168.025 170.152 168.094 170.144 168.163C170.129 168.307 170.061 168.441 169.954 168.54C169.847 168.638 169.708 168.693 169.562 168.696Z" fill="white"/>
<path d="M138.454 173.45H125.294C125.224 173.451 125.156 173.438 125.092 173.411C125.028 173.383 124.971 173.343 124.925 173.291C124.878 173.24 124.843 173.18 124.822 173.114C124.8 173.048 124.793 172.978 124.801 172.91C124.816 172.764 124.883 172.629 124.99 172.53C125.097 172.431 125.237 172.373 125.383 172.369H138.57C138.639 172.369 138.707 172.383 138.77 172.411C138.833 172.438 138.89 172.479 138.936 172.53C138.983 172.581 139.018 172.641 139.04 172.706C139.062 172.772 139.069 172.841 139.063 172.91C139.047 173.059 138.976 173.198 138.863 173.298C138.751 173.398 138.605 173.452 138.454 173.45Z" fill="white"/>
<path d="M163.516 173.45H141.915C141.846 173.451 141.777 173.438 141.713 173.411C141.65 173.383 141.593 173.343 141.546 173.291C141.499 173.24 141.464 173.18 141.443 173.114C141.422 173.048 141.415 172.978 141.422 172.909C141.437 172.763 141.506 172.627 141.614 172.528C141.722 172.428 141.863 172.372 142.011 172.369H163.605C163.674 172.368 163.742 172.381 163.806 172.408C163.87 172.436 163.927 172.476 163.973 172.528C164.02 172.579 164.055 172.639 164.077 172.705C164.098 172.771 164.105 172.841 164.097 172.909C164.084 173.055 164.017 173.191 163.91 173.291C163.802 173.39 163.662 173.447 163.516 173.45Z" fill="white"/>
<path d="M160.027 178.197H124.876C124.807 178.199 124.739 178.187 124.675 178.16C124.612 178.134 124.554 178.094 124.508 178.043C124.461 177.992 124.426 177.932 124.404 177.867C124.383 177.801 124.376 177.732 124.384 177.663C124.399 177.517 124.467 177.381 124.575 177.281C124.684 177.182 124.825 177.126 124.972 177.123H160.123C160.192 177.123 160.26 177.137 160.323 177.164C160.386 177.192 160.443 177.233 160.489 177.284C160.536 177.335 160.571 177.395 160.593 177.46C160.614 177.525 160.622 177.595 160.615 177.663C160.599 177.808 160.53 177.943 160.422 178.041C160.314 178.139 160.173 178.194 160.027 178.197Z" fill="white"/>
<path d="M165.814 178.197H163.495C163.426 178.199 163.358 178.187 163.294 178.16C163.23 178.134 163.173 178.094 163.126 178.043C163.08 177.992 163.044 177.932 163.023 177.867C163.002 177.801 162.995 177.732 163.003 177.663C163.016 177.517 163.083 177.382 163.19 177.282C163.297 177.182 163.438 177.126 163.584 177.123H165.91C165.979 177.121 166.047 177.135 166.11 177.162C166.174 177.189 166.23 177.23 166.277 177.282C166.323 177.333 166.357 177.394 166.378 177.459C166.398 177.525 166.404 177.595 166.395 177.663C166.38 177.808 166.313 177.942 166.206 178.04C166.099 178.139 165.959 178.194 165.814 178.197Z" fill="white"/>
<path d="M140.868 182.951H124.452C124.383 182.951 124.315 182.937 124.252 182.909C124.189 182.881 124.132 182.841 124.086 182.79C124.04 182.739 124.004 182.679 123.983 182.613C123.961 182.548 123.953 182.479 123.96 182.41C123.975 182.264 124.043 182.128 124.151 182.028C124.26 181.929 124.401 181.872 124.548 181.87H140.964C141.033 181.868 141.102 181.882 141.166 181.909C141.229 181.937 141.286 181.977 141.333 182.028C141.38 182.08 141.415 182.14 141.436 182.206C141.457 182.272 141.464 182.341 141.457 182.41C141.442 182.557 141.373 182.693 141.265 182.792C141.157 182.892 141.015 182.948 140.868 182.951Z" fill="white"/>
<path d="M164.747 182.951H144.309C144.24 182.951 144.172 182.937 144.109 182.909C144.046 182.881 143.989 182.841 143.943 182.79C143.896 182.739 143.861 182.679 143.839 182.613C143.817 182.548 143.81 182.479 143.816 182.41C143.831 182.264 143.9 182.128 144.008 182.028C144.116 181.929 144.258 181.872 144.405 181.87H164.836C164.905 181.868 164.974 181.882 165.037 181.909C165.101 181.937 165.158 181.977 165.205 182.028C165.251 182.08 165.286 182.14 165.308 182.206C165.329 182.272 165.336 182.341 165.328 182.41C165.313 182.556 165.246 182.69 165.139 182.79C165.032 182.889 164.893 182.946 164.747 182.951Z" fill="white"/>
<path d="M144.254 187.698H124.042C123.973 187.699 123.905 187.686 123.841 187.658C123.778 187.631 123.721 187.59 123.675 187.539C123.629 187.488 123.594 187.427 123.574 187.361C123.553 187.295 123.547 187.226 123.556 187.157C123.571 187.013 123.639 186.879 123.746 186.78C123.853 186.682 123.992 186.626 124.138 186.624H144.343C144.412 186.621 144.481 186.634 144.544 186.66C144.608 186.687 144.665 186.727 144.712 186.777C144.759 186.828 144.794 186.888 144.815 186.954C144.837 187.019 144.844 187.089 144.836 187.157C144.822 187.303 144.755 187.439 144.648 187.538C144.541 187.638 144.401 187.695 144.254 187.698Z" fill="white"/>
<path d="M163.967 187.698H147.688C147.619 187.699 147.55 187.686 147.487 187.658C147.424 187.631 147.367 187.59 147.321 187.539C147.275 187.488 147.24 187.427 147.22 187.361C147.199 187.295 147.193 187.226 147.202 187.157C147.217 187.013 147.285 186.879 147.392 186.78C147.499 186.682 147.638 186.626 147.784 186.624H164.063C164.132 186.621 164.2 186.634 164.264 186.66C164.328 186.687 164.385 186.727 164.432 186.777C164.478 186.828 164.514 186.888 164.535 186.954C164.556 187.019 164.563 187.089 164.555 187.157C164.54 187.304 164.472 187.439 164.364 187.539C164.255 187.639 164.114 187.695 163.967 187.698Z" fill="white"/>
<path d="M193.954 111.473C193.894 111.541 193.822 111.597 193.741 111.637C193.659 111.677 193.571 111.701 193.481 111.706C193.39 111.712 193.3 111.7 193.214 111.67C193.129 111.641 193.05 111.594 192.982 111.534L164.986 84.8171C164.859 84.689 164.787 84.5156 164.787 84.3349C164.787 84.1542 164.859 83.9808 164.986 83.8527C165.046 83.7844 165.118 83.7285 165.199 83.6884C165.28 83.6483 165.369 83.6247 165.459 83.619C165.549 83.6133 165.64 83.6255 165.725 83.6551C165.811 83.6846 165.89 83.7309 165.957 83.7911L193.954 110.508C194.081 110.636 194.152 110.81 194.152 110.99C194.152 111.171 194.081 111.344 193.954 111.473Z" fill="#096F9F"/>
<path d="M162.51 111.466C162.454 111.393 162.414 111.31 162.391 111.221C162.368 111.133 162.363 111.04 162.376 110.95C162.39 110.859 162.421 110.772 162.469 110.694C162.517 110.616 162.579 110.548 162.654 110.495L176.936 98.8186C177.071 98.7012 177.248 98.6418 177.427 98.6533C177.606 98.6648 177.774 98.7463 177.893 98.8802C177.948 98.9527 177.988 99.0353 178.01 99.1233C178.032 99.2112 178.037 99.3027 178.024 99.3925C178.01 99.4823 177.979 99.5685 177.932 99.6461C177.885 99.7237 177.823 99.7912 177.75 99.8446L163.468 111.527C163.332 111.645 163.156 111.704 162.976 111.693C162.797 111.681 162.63 111.6 162.51 111.466Z" fill="#096F9F"/>
<path d="M180.964 96.3699C180.91 96.2974 180.87 96.2147 180.848 96.1268C180.826 96.0388 180.821 95.9473 180.834 95.8575C180.848 95.7678 180.879 95.6816 180.926 95.604C180.973 95.5263 181.035 95.4588 181.108 95.4054L195.417 83.709C195.553 83.5916 195.73 83.5322 195.909 83.5437C196.088 83.5552 196.255 83.6367 196.375 83.7706C196.43 83.8431 196.469 83.9257 196.492 84.0136C196.514 84.1016 196.519 84.1931 196.505 84.2829C196.492 84.3726 196.461 84.4589 196.414 84.5365C196.367 84.6141 196.305 84.6816 196.231 84.735L181.922 96.4314C181.786 96.5489 181.61 96.6082 181.431 96.5967C181.251 96.5852 181.084 96.5037 180.964 96.3699Z" fill="#096F9F"/>
<g opacity="0.7">
<path d="M193.954 111.473C193.894 111.541 193.822 111.597 193.741 111.637C193.659 111.677 193.571 111.701 193.481 111.706C193.39 111.712 193.3 111.7 193.214 111.67C193.129 111.641 193.05 111.594 192.982 111.534L164.986 84.8171C164.859 84.689 164.787 84.5156 164.787 84.3349C164.787 84.1542 164.859 83.9808 164.986 83.8527C165.046 83.7844 165.118 83.7285 165.199 83.6884C165.28 83.6483 165.369 83.6247 165.459 83.619C165.549 83.6133 165.64 83.6255 165.725 83.6551C165.811 83.6846 165.89 83.7309 165.957 83.7911L193.954 110.508C194.081 110.636 194.152 110.81 194.152 110.99C194.152 111.171 194.081 111.344 193.954 111.473Z" fill="white"/>
</g>
<g opacity="0.7">
<path d="M162.51 111.466C162.454 111.393 162.414 111.31 162.391 111.221C162.368 111.133 162.363 111.04 162.376 110.95C162.39 110.859 162.421 110.772 162.469 110.694C162.517 110.616 162.579 110.548 162.654 110.495L176.936 98.8186C177.071 98.7012 177.248 98.6418 177.427 98.6533C177.606 98.6648 177.774 98.7463 177.893 98.8802C177.948 98.9527 177.988 99.0353 178.01 99.1233C178.032 99.2112 178.037 99.3027 178.024 99.3925C178.01 99.4823 177.979 99.5685 177.932 99.6461C177.885 99.7237 177.823 99.7912 177.75 99.8446L163.468 111.527C163.332 111.645 163.156 111.704 162.976 111.693C162.797 111.681 162.63 111.6 162.51 111.466Z" fill="white"/>
</g>
<g opacity="0.7">
<path d="M180.964 96.3699C180.91 96.2974 180.87 96.2147 180.848 96.1268C180.826 96.0388 180.821 95.9473 180.834 95.8575C180.848 95.7678 180.879 95.6816 180.926 95.604C180.973 95.5263 181.035 95.4588 181.108 95.4054L195.417 83.709C195.553 83.5916 195.73 83.5322 195.909 83.5437C196.088 83.5552 196.255 83.6367 196.375 83.7706C196.43 83.8431 196.469 83.9257 196.492 84.0136C196.514 84.1016 196.519 84.1931 196.505 84.2829C196.492 84.3726 196.461 84.4589 196.414 84.5365C196.367 84.6141 196.305 84.6816 196.231 84.735L181.922 96.4314C181.786 96.5489 181.61 96.6082 181.431 96.5967C181.251 96.5852 181.084 96.5037 180.964 96.3699Z" fill="white"/>
</g>
<path d="M114.336 41.5404H105.444C104.583 41.5441 103.758 41.8887 103.151 42.4989C102.543 43.1091 102.202 43.9351 102.202 44.7963V53.6883C102.202 54.5518 102.545 55.3799 103.155 55.9905C103.766 56.6011 104.594 56.9441 105.458 56.9441H114.35C115.213 56.9441 116.041 56.6011 116.652 55.9905C117.262 55.3799 117.605 54.5518 117.605 53.6883V44.7963C117.605 44.3676 117.521 43.9431 117.356 43.5472C117.192 43.1512 116.951 42.7917 116.647 42.4892C116.343 42.1867 115.983 41.9472 115.586 41.7843C115.19 41.6215 114.765 41.5386 114.336 41.5404ZM109.91 44.6868C111.244 44.6868 111.962 45.7744 111.962 47.1082C111.962 48.442 111.244 49.5296 109.91 49.5296C108.577 49.5296 107.858 48.4488 107.858 47.1082C107.858 45.7676 108.57 44.6868 109.91 44.6868ZM115.253 53.7635H104.562C104.518 53.7636 104.476 53.7552 104.436 53.7388C104.396 53.7224 104.36 53.6982 104.329 53.6678L105.013 51.8004C105.226 51.2116 105.616 50.7027 106.129 50.3429C106.642 49.9831 107.253 49.7899 107.879 49.7895H111.921C112.549 49.7895 113.161 49.9824 113.675 50.3422C114.189 50.7019 114.58 51.211 114.794 51.8004L115.478 53.6678C115.449 53.698 115.414 53.7221 115.375 53.7385C115.336 53.755 115.295 53.7635 115.253 53.7635Z" fill="#096F9F"/>
<path opacity="0.7" d="M114.336 41.5404H105.444C104.583 41.5441 103.758 41.8887 103.151 42.4989C102.543 43.1091 102.202 43.9351 102.202 44.7963V53.6883C102.202 54.5518 102.545 55.3799 103.155 55.9905C103.766 56.6011 104.594 56.9441 105.458 56.9441H114.35C115.213 56.9441 116.041 56.6011 116.652 55.9905C117.262 55.3799 117.605 54.5518 117.605 53.6883V44.7963C117.605 44.3676 117.521 43.9431 117.356 43.5472C117.192 43.1512 116.951 42.7917 116.647 42.4892C116.343 42.1867 115.983 41.9472 115.586 41.7843C115.19 41.6215 114.765 41.5386 114.336 41.5404ZM109.91 44.6868C111.244 44.6868 111.962 45.7744 111.962 47.1082C111.962 48.442 111.244 49.5296 109.91 49.5296C108.577 49.5296 107.858 48.4488 107.858 47.1082C107.858 45.7676 108.57 44.6868 109.91 44.6868ZM115.253 53.7635H104.562C104.518 53.7636 104.476 53.7552 104.436 53.7388C104.396 53.7224 104.36 53.6982 104.329 53.6678L105.013 51.8004C105.226 51.2116 105.616 50.7027 106.129 50.3429C106.642 49.9831 107.253 49.7899 107.879 49.7895H111.921C112.549 49.7895 113.161 49.9824 113.675 50.3422C114.189 50.7019 114.58 51.211 114.794 51.8004L115.478 53.6678C115.449 53.698 115.414 53.7221 115.375 53.7385C115.336 53.755 115.295 53.7635 115.253 53.7635Z" fill="white"/>
<path d="M82.8173 77.984H76.0867C75.5113 77.9831 74.9413 78.0956 74.4094 78.3152C73.8775 78.5348 73.3941 78.8571 72.9869 79.2637C72.5796 79.6703 72.2566 80.1532 72.0361 80.6847C71.8157 81.2163 71.7023 81.7861 71.7023 82.3616V89.0921C71.7023 90.2549 72.1642 91.3701 72.9864 92.1924C73.8087 93.0146 74.9239 93.4766 76.0867 93.4766H82.8173C83.3927 93.4766 83.9625 93.3631 84.4941 93.1427C85.0256 92.9223 85.5085 92.5992 85.9151 92.192C86.3217 91.7848 86.644 91.3014 86.8636 90.7695C87.0832 90.2375 87.1958 89.6676 87.1949 89.0921V82.3616C87.1958 81.7864 87.0832 81.2168 86.8635 80.6853C86.6438 80.1537 86.3214 79.6708 85.9147 79.2641C85.508 78.8574 85.0251 78.535 84.4936 78.3153C83.962 78.0957 83.3924 77.9831 82.8173 77.984ZM79.452 89.3999C79.452 89.3999 76.716 86.3972 76.716 84.865C76.716 84.1312 77.0075 83.4275 77.5264 82.9086C78.0452 82.3897 78.749 82.0982 79.4828 82.0982C80.2166 82.0982 80.9203 82.3897 81.4392 82.9086C81.958 83.4275 82.2495 84.1312 82.2495 84.865C82.2153 86.3972 79.452 89.3999 79.452 89.3999Z" fill="#096F9F"/>
<path d="M79.452 83.6065C79.2012 83.6051 78.9556 83.6784 78.7464 83.8169C78.5373 83.9554 78.3741 84.153 78.2774 84.3844C78.1808 84.6159 78.1552 84.8709 78.2038 85.117C78.2524 85.3631 78.3731 85.5892 78.5504 85.7666C78.7278 85.944 78.9539 86.0647 79.2 86.1133C79.4461 86.1619 79.7011 86.1362 79.9326 86.0396C80.1641 85.943 80.3617 85.7797 80.5002 85.5706C80.6387 85.3615 80.7119 85.1159 80.7106 84.865C80.7106 84.5312 80.578 84.2111 80.342 83.9751C80.1059 83.7391 79.7858 83.6065 79.452 83.6065Z" fill="#096F9F"/>
<g opacity="0.7">
<path d="M82.8173 77.984H76.0867C75.5113 77.9831 74.9413 78.0956 74.4094 78.3152C73.8775 78.5348 73.3941 78.8571 72.9869 79.2637C72.5796 79.6703 72.2566 80.1532 72.0361 80.6847C71.8157 81.2163 71.7023 81.7861 71.7023 82.3616V89.0921C71.7023 90.2549 72.1642 91.3701 72.9864 92.1924C73.8087 93.0146 74.9239 93.4766 76.0867 93.4766H82.8173C83.3927 93.4766 83.9625 93.3631 84.4941 93.1427C85.0256 92.9223 85.5085 92.5992 85.9151 92.192C86.3217 91.7848 86.644 91.3014 86.8636 90.7695C87.0832 90.2375 87.1958 89.6676 87.1949 89.0921V82.3616C87.1958 81.7864 87.0832 81.2168 86.8635 80.6853C86.6438 80.1537 86.3214 79.6708 85.9147 79.2641C85.508 78.8574 85.0251 78.535 84.4936 78.3153C83.962 78.0957 83.3924 77.9831 82.8173 77.984ZM79.452 89.3999C79.452 89.3999 76.716 86.3972 76.716 84.865C76.716 84.1312 77.0075 83.4275 77.5264 82.9086C78.0452 82.3897 78.749 82.0982 79.4828 82.0982C80.2166 82.0982 80.9203 82.3897 81.4392 82.9086C81.958 83.4275 82.2495 84.1312 82.2495 84.865C82.2153 86.3972 79.452 89.3999 79.452 89.3999Z" fill="white"/>
<path d="M79.452 83.6064C79.2012 83.6051 78.9556 83.6783 78.7464 83.8168C78.5373 83.9553 78.3741 84.1529 78.2774 84.3844C78.1808 84.6159 78.1552 84.8709 78.2038 85.117C78.2524 85.3631 78.3731 85.5892 78.5504 85.7666C78.7278 85.9439 78.9539 86.0646 79.2 86.1132C79.4461 86.1618 79.7011 86.1362 79.9326 86.0396C80.1641 85.9429 80.3617 85.7797 80.5002 85.5705C80.6387 85.3614 80.7119 85.1158 80.7106 84.865C80.7106 84.5312 80.578 84.2111 80.342 83.975C80.1059 83.739 79.7858 83.6064 79.452 83.6064Z" fill="white"/>
</g>
<path d="M230.589 58.9072L235.096 55.9934L230.589 53.0727V58.9072Z" fill="#096F9F"/>
<path d="M236.396 48.0384H227.805C226.834 48.0384 225.903 48.4239 225.217 49.1102C224.531 49.7965 224.145 50.7273 224.145 51.6978V60.2888C224.147 61.2588 224.533 62.1886 225.219 62.8744C225.905 63.5603 226.835 63.9464 227.805 63.9482H236.396C237.366 63.9482 238.297 63.5627 238.983 62.8764C239.67 62.1902 240.055 61.2594 240.055 60.2888V51.6978C240.056 51.217 239.962 50.7407 239.779 50.2963C239.595 49.852 239.325 49.4482 238.985 49.1082C238.645 48.7682 238.242 48.4987 237.797 48.3151C237.353 48.1315 236.877 48.0375 236.396 48.0384ZM232.1 61.7184C230.968 61.7184 229.861 61.3825 228.919 60.7531C227.977 60.1237 227.243 59.2292 226.81 58.1826C226.377 57.1361 226.264 55.9846 226.486 54.8739C226.707 53.7632 227.253 52.743 228.054 51.9427C228.856 51.1423 229.877 50.5975 230.988 50.3774C232.099 50.1573 233.25 50.2716 234.296 50.706C235.342 51.1404 236.236 51.8752 236.864 52.8176C237.492 53.76 237.827 54.8676 237.825 56.0002C237.824 56.7511 237.676 57.4945 237.387 58.1879C237.099 58.8813 236.677 59.5112 236.146 60.0416C235.614 60.5719 234.983 60.9924 234.289 61.2789C233.595 61.5654 232.851 61.7125 232.1 61.7116V61.7184Z" fill="#096F9F"/>
<g opacity="0.7">
<path d="M230.589 58.9072L235.096 55.9933L230.589 53.0726V58.9072Z" fill="white"/>
<path d="M236.396 48.0384H227.805C226.834 48.0384 225.903 48.4239 225.217 49.1102C224.531 49.7965 224.145 50.7273 224.145 51.6978V60.2888C224.147 61.2588 224.533 62.1886 225.219 62.8744C225.905 63.5603 226.835 63.9464 227.805 63.9482H236.396C237.366 63.9482 238.297 63.5627 238.983 62.8764C239.67 62.1902 240.055 61.2594 240.055 60.2888V51.6978C240.056 51.217 239.962 50.7407 239.779 50.2963C239.595 49.852 239.325 49.4482 238.985 49.1082C238.645 48.7682 238.242 48.4987 237.797 48.3151C237.353 48.1315 236.877 48.0375 236.396 48.0384ZM232.1 61.7184C230.968 61.7184 229.861 61.3825 228.919 60.7531C227.977 60.1237 227.243 59.2292 226.81 58.1826C226.377 57.1361 226.264 55.9846 226.486 54.8739C226.707 53.7632 227.253 52.743 228.054 51.9427C228.856 51.1423 229.877 50.5975 230.988 50.3774C232.099 50.1573 233.25 50.2716 234.296 50.706C235.342 51.1404 236.236 51.8752 236.864 52.8176C237.492 53.76 237.827 54.8676 237.825 56.0002C237.824 56.7511 237.676 57.4945 237.387 58.1879C237.099 58.8813 236.677 59.5112 236.146 60.0416C235.614 60.5719 234.983 60.9924 234.289 61.2789C233.595 61.5654 232.851 61.7125 232.1 61.7116V61.7184Z" fill="white"/>
</g>
<path d="M244.83 80.9867C244.83 80.8089 244.83 80.631 244.83 80.46L245.862 79.8855C245.787 79.3964 245.659 78.917 245.479 78.4559H244.303C244.153 78.1348 243.975 77.828 243.769 77.5393L244.378 76.5339C244.066 76.1479 243.715 75.7949 243.332 75.4805L242.319 76.0893C242.032 75.8876 241.727 75.7114 241.41 75.5626V74.3793C240.947 74.2044 240.468 74.0761 239.98 73.9962L239.405 75.0291C239.234 75.0291 239.057 75.0291 238.879 75.0291C238.701 75.0291 238.53 75.0291 238.352 75.0291L237.777 73.9962C237.29 74.0778 236.811 74.2061 236.348 74.3793V75.5626C236.029 75.7099 235.725 75.8862 235.438 76.0893L234.426 75.4805C234.038 75.793 233.685 76.1461 233.373 76.5339L233.981 77.5393C233.781 77.8298 233.604 78.1363 233.455 78.4559H232.278C232.1 78.9178 231.969 79.3969 231.888 79.8855L232.921 80.46C232.921 80.631 232.921 80.8089 232.921 80.9867C232.921 81.1645 232.921 81.3424 232.921 81.5134L231.888 82.0879C231.968 82.5767 232.099 83.0559 232.278 83.5175H233.455C233.604 83.8371 233.781 84.1437 233.981 84.4341L233.373 85.4464C233.687 85.8303 234.04 86.181 234.426 86.4929L235.438 85.8841C235.723 86.0897 236.028 86.2662 236.348 86.4108V87.5941C236.81 87.7704 237.289 87.8988 237.777 87.9772L238.352 86.9443C238.53 86.9443 238.701 86.9443 238.879 86.9443C239.057 86.9443 239.234 86.9443 239.405 86.9443L239.98 87.9772C240.469 87.9005 240.948 87.7721 241.41 87.5941V86.4108C241.729 86.2646 242.033 86.0883 242.319 85.8841L243.332 86.4929C243.714 86.1791 244.064 85.8286 244.378 85.4464L243.769 84.4341C243.975 84.1454 244.153 83.8386 244.303 83.5175H245.479C245.66 83.0567 245.788 82.5772 245.862 82.0879L244.83 81.5134C244.816 81.3219 244.83 81.1645 244.83 80.9867ZM238.865 85.036C238.064 85.036 237.281 84.7985 236.615 84.3536C235.949 83.9086 235.43 83.2762 235.124 82.5363C234.818 81.7964 234.737 80.9822 234.894 80.1967C235.05 79.4112 235.435 78.6897 236.002 78.1234C236.568 77.5571 237.29 77.1715 238.075 77.0152C238.861 76.859 239.675 76.9392 240.415 77.2457C241.155 77.5521 241.787 78.0711 242.232 78.737C242.677 79.4029 242.914 80.1858 242.914 80.9867C242.914 82.0606 242.488 83.0906 241.728 83.85C240.969 84.6094 239.939 85.036 238.865 85.036Z" fill="#096F9F"/>
<path opacity="0.7" d="M244.83 80.9867C244.83 80.8089 244.83 80.631 244.83 80.46L245.862 79.8855C245.787 79.3964 245.659 78.917 245.479 78.4559H244.303C244.153 78.1348 243.975 77.828 243.769 77.5393L244.378 76.5339C244.066 76.1479 243.715 75.7949 243.332 75.4805L242.319 76.0893C242.032 75.8876 241.727 75.7114 241.41 75.5626V74.3793C240.947 74.2044 240.468 74.0761 239.98 73.9962L239.405 75.0291C239.234 75.0291 239.057 75.0291 238.879 75.0291C238.701 75.0291 238.53 75.0291 238.352 75.0291L237.777 73.9962C237.29 74.0778 236.811 74.2061 236.348 74.3793V75.5626C236.029 75.7099 235.725 75.8862 235.438 76.0893L234.426 75.4805C234.038 75.793 233.685 76.1461 233.373 76.5339L233.981 77.5393C233.781 77.8298 233.604 78.1363 233.455 78.4559H232.278C232.1 78.9178 231.969 79.3969 231.888 79.8855L232.921 80.46C232.921 80.631 232.921 80.8089 232.921 80.9867C232.921 81.1645 232.921 81.3424 232.921 81.5134L231.888 82.0879C231.968 82.5767 232.099 83.0559 232.278 83.5175H233.455C233.604 83.8371 233.781 84.1437 233.981 84.4341L233.373 85.4464C233.687 85.8303 234.04 86.181 234.426 86.4929L235.438 85.8841C235.723 86.0897 236.028 86.2662 236.348 86.4108V87.5941C236.81 87.7704 237.289 87.8988 237.777 87.9772L238.352 86.9443C238.53 86.9443 238.701 86.9443 238.879 86.9443C239.057 86.9443 239.234 86.9443 239.405 86.9443L239.98 87.9772C240.469 87.9005 240.948 87.7721 241.41 87.5941V86.4108C241.729 86.2646 242.033 86.0883 242.319 85.8841L243.332 86.4929C243.714 86.1791 244.064 85.8286 244.378 85.4464L243.769 84.4341C243.975 84.1454 244.153 83.8386 244.303 83.5175H245.479C245.66 83.0567 245.788 82.5772 245.862 82.0879L244.83 81.5134C244.816 81.3219 244.83 81.1645 244.83 80.9867ZM238.865 85.036C238.064 85.036 237.281 84.7985 236.615 84.3536C235.949 83.9086 235.43 83.2762 235.124 82.5363C234.818 81.7964 234.737 80.9822 234.894 80.1967C235.05 79.4112 235.435 78.6897 236.002 78.1234C236.568 77.5571 237.29 77.1715 238.075 77.0152C238.861 76.859 239.675 76.9392 240.415 77.2457C241.155 77.5521 241.787 78.0711 242.232 78.737C242.677 79.4029 242.914 80.1858 242.914 80.9867C242.914 82.0606 242.488 83.0906 241.728 83.85C240.969 84.6094 239.939 85.036 238.865 85.036Z" fill="white"/>
<path d="M229.241 101.322C229.241 101.055 229.241 100.795 229.207 100.535L230.753 99.6804C230.637 98.9464 230.444 98.2266 230.178 97.5326L228.414 97.5668C228.191 97.0879 227.925 96.6301 227.62 96.1988L228.53 94.6872C228.064 94.1118 227.539 93.5868 226.963 93.1208L225.452 94.0237C225.019 93.7234 224.561 93.4602 224.084 93.2371V91.4724C223.392 91.2059 222.675 91.0133 221.943 90.8978L221.088 92.4437C220.828 92.4437 220.568 92.4437 220.301 92.4437C220.035 92.4437 219.775 92.4437 219.515 92.4437L218.68 90.8978C217.949 91.015 217.231 91.2075 216.539 91.4724V93.2371C216.062 93.4599 215.604 93.7231 215.171 94.0237L213.694 93.1208C213.116 93.5867 212.589 94.1116 212.121 94.6872L213.03 96.1988C212.728 96.6302 212.464 97.0881 212.244 97.5668L210.479 97.5326C210.21 98.2256 210.018 98.9458 209.904 99.6804L211.45 100.535C211.396 101.058 211.396 101.586 211.45 102.109L209.904 102.97C210.018 103.703 210.211 104.42 210.479 105.111L212.244 105.077C212.463 105.557 212.726 106.015 213.03 106.445L212.121 107.957C212.589 108.532 213.116 109.057 213.694 109.523L215.205 108.62C215.637 108.923 216.095 109.187 216.573 109.407V111.172C217.264 111.44 217.982 111.632 218.714 111.746L219.576 110.2C220.099 110.255 220.626 110.255 221.149 110.2L222.004 111.746C222.737 111.634 223.455 111.441 224.145 111.172V109.407C224.624 109.186 225.082 108.923 225.513 108.62L227.025 109.523C227.6 109.057 228.125 108.532 228.591 107.957L227.682 106.445C227.988 106.015 228.254 105.557 228.475 105.077L230.24 105.111C230.505 104.419 230.697 103.702 230.814 102.97L229.269 102.109C229.227 101.842 229.241 101.589 229.241 101.322ZM220.349 104.838C219.654 104.838 218.974 104.632 218.396 104.245C217.818 103.859 217.367 103.31 217.101 102.667C216.835 102.025 216.765 101.318 216.901 100.636C217.037 99.9541 217.371 99.3277 217.863 98.836C218.355 98.3443 218.981 98.0094 219.663 97.8738C220.345 97.7381 221.052 97.8077 221.695 98.0738C222.337 98.3399 222.886 98.7906 223.272 99.3687C223.659 99.9469 223.865 100.627 223.865 101.322C223.865 101.785 223.773 102.244 223.595 102.672C223.417 103.1 223.157 103.489 222.828 103.815C222.499 104.142 222.109 104.401 221.68 104.576C221.251 104.752 220.792 104.84 220.329 104.838H220.349Z" fill="#096F9F"/>
<path opacity="0.7" d="M229.241 101.322C229.241 101.055 229.241 100.795 229.207 100.535L230.753 99.6804C230.637 98.9464 230.444 98.2266 230.178 97.5326L228.414 97.5668C228.191 97.0879 227.925 96.6301 227.62 96.1988L228.53 94.6872C228.064 94.1118 227.539 93.5868 226.963 93.1208L225.452 94.0237C225.019 93.7234 224.561 93.4602 224.084 93.2371V91.4724C223.392 91.2059 222.675 91.0133 221.943 90.8978L221.088 92.4437C220.828 92.4437 220.568 92.4437 220.301 92.4437C220.035 92.4437 219.775 92.4437 219.515 92.4437L218.68 90.8978C217.949 91.015 217.231 91.2075 216.539 91.4724V93.2371C216.062 93.4599 215.604 93.7231 215.171 94.0237L213.694 93.1208C213.116 93.5867 212.589 94.1116 212.121 94.6872L213.03 96.1988C212.728 96.6302 212.464 97.0881 212.244 97.5668L210.479 97.5326C210.21 98.2256 210.018 98.9458 209.904 99.6804L211.45 100.535C211.396 101.058 211.396 101.586 211.45 102.109L209.904 102.97C210.018 103.703 210.211 104.42 210.479 105.111L212.244 105.077C212.463 105.557 212.726 106.015 213.03 106.445L212.121 107.957C212.589 108.532 213.116 109.057 213.694 109.523L215.205 108.62C215.637 108.923 216.095 109.187 216.573 109.407V111.172C217.264 111.44 217.982 111.632 218.714 111.746L219.576 110.2C220.099 110.255 220.626 110.255 221.149 110.2L222.004 111.746C222.737 111.634 223.455 111.441 224.145 111.172V109.407C224.624 109.186 225.082 108.923 225.513 108.62L227.025 109.523C227.6 109.057 228.125 108.532 228.591 107.957L227.682 106.445C227.988 106.015 228.254 105.557 228.475 105.077L230.24 105.111C230.505 104.419 230.697 103.702 230.814 102.97L229.269 102.109C229.227 101.842 229.241 101.589 229.241 101.322ZM220.349 104.838C219.654 104.838 218.974 104.632 218.396 104.245C217.818 103.859 217.367 103.31 217.101 102.667C216.835 102.025 216.765 101.318 216.901 100.636C217.037 99.9541 217.371 99.3277 217.863 98.836C218.355 98.3443 218.981 98.0094 219.663 97.8738C220.345 97.7381 221.052 97.8077 221.695 98.0738C222.337 98.3399 222.886 98.7906 223.272 99.3687C223.659 99.9469 223.865 100.627 223.865 101.322C223.865 101.785 223.773 102.244 223.595 102.672C223.417 103.1 223.157 103.489 222.828 103.815C222.499 104.142 222.109 104.401 221.68 104.576C221.251 104.752 220.792 104.84 220.329 104.838H220.349Z" fill="white"/>
<path d="M204.118 61.6637V65.2479L200.698 67.0468C200.565 67.1181 200.454 67.2242 200.376 67.3537C200.299 67.4831 200.258 67.6312 200.258 67.7821C200.258 67.933 200.299 68.081 200.376 68.2105C200.454 68.34 200.565 68.446 200.698 68.5174L204.118 70.3163V73.9005C204.118 74.2832 204.27 74.6503 204.541 74.921C204.811 75.1917 205.178 75.3437 205.561 75.3437H217.798C218.181 75.3437 218.549 75.1919 218.821 74.9214C219.093 74.6509 219.246 74.2839 219.248 73.9005V61.6637C219.248 61.2791 219.095 60.9103 218.823 60.6383C218.551 60.3664 218.183 60.2136 217.798 60.2136H205.541C205.16 60.219 204.797 60.3744 204.531 60.646C204.265 60.9175 204.116 61.2833 204.118 61.6637Z" fill="#096F9F"/>
<g opacity="0.9">
<path d="M208.304 65.3984H215.26C215.487 65.3984 215.704 65.3083 215.865 65.1479C216.025 64.9876 216.115 64.7701 216.115 64.5434C216.115 64.3166 216.025 64.0991 215.865 63.9388C215.704 63.7784 215.487 63.6884 215.26 63.6884H208.304C208.077 63.6884 207.86 63.7784 207.699 63.9388C207.539 64.0991 207.449 64.3166 207.449 64.5434C207.449 64.7701 207.539 64.9876 207.699 65.1479C207.86 65.3083 208.077 65.3984 208.304 65.3984Z" fill="white"/>
<path d="M215.26 66.9579H208.304C208.077 66.9579 207.86 67.048 207.699 67.2083C207.539 67.3687 207.449 67.5861 207.449 67.8129C207.449 68.0396 207.539 68.2571 207.699 68.4175C207.86 68.5778 208.077 68.6679 208.304 68.6679H215.26C215.487 68.6679 215.704 68.5778 215.865 68.4175C216.025 68.2571 216.115 68.0396 216.115 67.8129C216.115 67.5861 216.025 67.3687 215.865 67.2083C215.704 67.048 215.487 66.9579 215.26 66.9579Z" fill="white"/>
<path d="M215.26 70.1658H208.304C208.077 70.1658 207.86 70.2559 207.699 70.4163C207.539 70.5766 207.449 70.7941 207.449 71.0208C207.449 71.2476 207.539 71.4651 207.699 71.6254C207.86 71.7858 208.077 71.8758 208.304 71.8758H215.26C215.487 71.8758 215.704 71.7858 215.865 71.6254C216.025 71.4651 216.115 71.2476 216.115 71.0208C216.115 70.7941 216.025 70.5766 215.865 70.4163C215.704 70.2559 215.487 70.1658 215.26 70.1658Z" fill="white"/>
</g>
<path d="M134.965 56.0139H137.886L139.391 58.8661C139.49 59.0521 139.638 59.2076 139.819 59.316C139.999 59.4245 140.206 59.4818 140.417 59.4818C140.628 59.4818 140.835 59.4245 141.015 59.316C141.196 59.2076 141.344 59.0521 141.443 58.8661L142.948 56.0139H145.868C146.146 56.0139 146.42 55.9592 146.676 55.8529C146.932 55.7466 147.165 55.5908 147.361 55.3944C147.556 55.1981 147.711 54.965 147.817 54.7086C147.922 54.4522 147.976 54.1775 147.975 53.9003V43.0179C147.975 42.4591 147.753 41.9233 147.358 41.5282C146.963 41.1331 146.427 40.9111 145.868 40.9111H134.965C134.689 40.9102 134.414 40.9641 134.158 41.0697C133.902 41.1752 133.67 41.3304 133.474 41.5262C133.278 41.722 133.123 41.9546 133.017 42.2106C132.912 42.4666 132.858 42.741 132.859 43.0179V53.9619C132.873 54.5111 133.101 55.033 133.495 55.4163C133.888 55.7996 134.416 56.0141 134.965 56.0139Z" fill="#096F9F"/>
<path opacity="0.9" d="M140.424 44.1738L137.059 46.1437V51.903H139.562V48.0384H141.293V51.903H143.796V46.1437L140.424 44.1738Z" fill="white"/>
<path d="M167.729 212.506H165.13L163.454 209.319C163.371 209.164 163.248 209.036 163.097 208.946C162.946 208.856 162.774 208.808 162.599 208.808C162.424 208.808 162.252 208.856 162.101 208.946C161.951 209.036 161.827 209.164 161.744 209.319L160.068 212.506H157.401C156.764 212.506 156.153 212.759 155.703 213.209C155.253 213.66 155 214.27 155 214.907V225.235C155 225.872 155.253 226.483 155.703 226.933C156.153 227.383 156.764 227.636 157.401 227.636H167.729C168.366 227.636 168.977 227.383 169.427 226.933C169.877 226.483 170.13 225.872 170.13 225.235V214.907C170.13 214.27 169.877 213.66 169.427 213.209C168.977 212.759 168.366 212.506 167.729 212.506Z" fill="#096F9F"/>
<path opacity="0.9" d="M164.029 216.453C163.527 215.951 162.893 215.603 162.2 215.448C161.508 215.294 160.786 215.339 160.118 215.581C159.451 215.822 158.866 216.248 158.432 216.809C157.998 217.371 157.733 218.044 157.668 218.75C157.603 219.457 157.741 220.168 158.065 220.799C158.389 221.43 158.886 221.956 159.498 222.315C160.11 222.674 160.812 222.851 161.521 222.825C162.23 222.8 162.917 222.573 163.502 222.171C163.53 222.341 163.609 222.498 163.728 222.623L166.053 224.941C166.21 225.098 166.423 225.186 166.645 225.186C166.867 225.186 167.08 225.098 167.237 224.941C167.394 224.784 167.482 224.572 167.482 224.35C167.482 224.128 167.394 223.915 167.237 223.758L164.918 221.439C164.793 221.316 164.633 221.235 164.46 221.207C164.951 220.488 165.177 219.62 165.099 218.752C165.02 217.885 164.642 217.072 164.029 216.453ZM163.235 220.947C162.869 221.313 162.402 221.562 161.894 221.663C161.386 221.764 160.859 221.712 160.381 221.513C159.902 221.315 159.493 220.979 159.206 220.548C158.918 220.118 158.764 219.611 158.764 219.093C158.764 218.575 158.918 218.069 159.206 217.638C159.493 217.207 159.902 216.872 160.381 216.673C160.859 216.475 161.386 216.423 161.894 216.524C162.402 216.624 162.869 216.874 163.235 217.24C163.479 217.483 163.672 217.772 163.804 218.09C163.936 218.408 164.004 218.749 164.004 219.093C164.004 219.438 163.936 219.778 163.804 220.097C163.672 220.415 163.479 220.704 163.235 220.947Z" fill="white"/>
<path d="M278.188 143.723C278.188 143.723 272.614 157.54 267.155 159.031C261.697 160.522 253.475 159.311 253.475 159.311L250.931 159.995L248.434 159.626H248.345L245.534 159.558C245.433 159.566 245.331 159.545 245.241 159.498C245.151 159.451 245.076 159.378 245.026 159.29C244.976 159.202 244.952 159.101 244.957 158.999C244.962 158.897 244.996 158.799 245.055 158.716L246.061 157.348C246.145 157.236 246.262 157.152 246.396 157.109L249.077 156.247C249.183 156.224 249.293 156.224 249.399 156.247L253.503 156.897C253.503 156.897 264.891 155.03 266.054 153.976C267.217 152.923 270.644 141.876 270.644 141.876L278.188 143.723Z" fill="#EEC1BB"/>
<path opacity="0.1" d="M253.756 156.808L253.489 156.849L249.385 156.199C249.279 156.176 249.169 156.176 249.064 156.199L246.382 157.061C246.249 157.105 246.132 157.188 246.047 157.301L245.042 158.669C244.983 158.751 244.948 158.849 244.943 158.951C244.938 159.053 244.962 159.154 245.012 159.242C245.063 159.331 245.137 159.403 245.227 159.45C245.317 159.498 245.419 159.518 245.52 159.51L248.332 159.578H248.421L250.096 159.825C251.526 159.104 252.776 158.074 253.756 156.808Z" fill="black"/>
<path d="M281.553 130.036C277.504 128.709 271.806 131.753 269.625 144.503L278.031 146.986C278.031 146.986 287.34 131.938 281.553 130.036Z" fill="#096F9F"/>
<path d="M257.997 113.374C257.997 113.798 258.222 114.133 258.496 114.133C258.77 114.133 259.009 113.771 258.988 113.36C258.968 112.95 258.763 112.608 258.489 112.615C258.215 112.622 257.997 112.957 257.997 113.374Z" fill="#263238"/>
<path d="M259.652 113.791L257.661 117.081C257.661 117.081 258.345 117.861 259.843 117.287L259.652 113.791Z" fill="#D4827D"/>
<path d="M260.028 110.734C260.004 110.761 259.973 110.782 259.938 110.794C259.903 110.806 259.866 110.809 259.83 110.802C259.56 110.756 259.284 110.775 259.024 110.857C258.763 110.939 258.526 111.082 258.332 111.274C258.29 111.313 258.235 111.335 258.178 111.335C258.121 111.335 258.066 111.313 258.024 111.274C257.985 111.231 257.963 111.175 257.963 111.117C257.963 111.059 257.985 111.002 258.024 110.96C258.265 110.712 258.564 110.528 258.893 110.422C259.222 110.316 259.571 110.291 259.912 110.351C259.941 110.354 259.968 110.363 259.994 110.378C260.019 110.392 260.041 110.411 260.059 110.434C260.077 110.457 260.09 110.483 260.098 110.511C260.105 110.539 260.107 110.568 260.103 110.597C260.093 110.649 260.067 110.697 260.028 110.734Z" fill="#263238"/>
<path d="M274.091 110.392C274.399 115.953 274.652 118.306 272.196 121.466C268.277 124.852 261.601 125.392 259.631 120.036C257.86 115.248 257.655 106.951 262.798 104.085C263.671 103.599 264.631 103.29 265.623 103.175C266.615 103.06 267.62 103.142 268.58 103.415C269.541 103.689 270.438 104.15 271.221 104.771C272.003 105.391 272.655 106.16 273.14 107.033C273.709 108.066 274.035 109.215 274.091 110.392Z" fill="#EEC1BB"/>
<path d="M266.341 122.56L267.75 130.802L274.618 129.216L272.217 120.802L266.341 122.56Z" fill="#EEC1BB"/>
<path d="M261.396 110.802C261.745 107.191 260.5 111.363 258.831 106.596C257.162 101.828 265.049 97.9567 266.307 98.8459C267.566 99.7351 266.848 101.096 271.02 101.869C272.158 102.05 273.192 102.639 273.927 103.527C274.662 104.414 275.049 105.539 275.014 106.691C275.014 106.691 277.415 107.799 276.56 112.957C275.933 116.261 274.526 119.368 272.456 122.02C272.456 122.02 270.876 120.392 268.352 121.89C267.367 121.247 266.534 120.397 265.91 119.4C264.789 117.717 264.44 116.117 262.901 115.98C259.686 115.686 261.28 111.992 261.396 110.802Z" fill="#263238"/>
<path d="M274.57 107.314C274.57 107.314 277.99 105.221 276.471 103.025C274.953 100.829 275.685 105.446 274.57 107.314Z" fill="#263238"/>
<path d="M262.374 112.902C261.616 113.75 261.224 114.865 261.287 116.001C261.382 117.505 262.86 117.772 264.023 116.951C265.185 116.131 266.287 114.53 265.616 113.21C265.468 112.922 265.249 112.676 264.98 112.494C264.712 112.313 264.402 112.202 264.079 112.171C263.757 112.14 263.431 112.191 263.133 112.319C262.835 112.447 262.574 112.647 262.374 112.902Z" fill="#FFC3BD"/>
<path opacity="0.1" d="M266.471 123.34L267.032 126.609C266.983 125.8 267.094 124.988 267.359 124.222C267.625 123.455 268.039 122.749 268.578 122.143C268.159 122.17 267.752 122.292 267.387 122.499C267.022 122.706 266.709 122.994 266.471 123.34Z" fill="black"/>
<path d="M218.188 144.599H216.225V156.179H218.188V144.599Z" fill="#096F9F"/>
<path opacity="0.7" d="M218.188 144.599H216.225V156.179H218.188V144.599Z" fill="white"/>
<path d="M204.699 121.603H199.809C198.929 121.603 198.085 121.952 197.463 122.574C196.841 123.196 196.491 124.04 196.491 124.92V147.581C196.491 148.017 196.577 148.448 196.744 148.85C196.91 149.253 197.155 149.619 197.463 149.927C197.771 150.235 198.137 150.479 198.539 150.646C198.942 150.813 199.373 150.898 199.809 150.898H204.699V121.603Z" fill="#096F9F"/>
<path d="M234.611 121.603H201.519C199.687 121.603 198.201 123.088 198.201 124.92V147.574C198.201 149.406 199.687 150.891 201.519 150.891H234.611C236.443 150.891 237.928 149.406 237.928 147.574V124.92C237.928 123.088 236.443 121.603 234.611 121.603Z" fill="#096F9F"/>
<path opacity="0.5" d="M234.611 121.603H201.519C199.687 121.603 198.201 123.088 198.201 124.92V147.574C198.201 149.406 199.687 150.891 201.519 150.891H234.611C236.443 150.891 237.928 149.406 237.928 147.574V124.92C237.928 123.088 236.443 121.603 234.611 121.603Z" fill="white"/>
<path d="M234.611 122.971H201.519C200.442 122.971 199.569 123.843 199.569 124.92V147.574C199.569 148.651 200.442 149.523 201.519 149.523H234.611C235.687 149.523 236.56 148.651 236.56 147.574V124.92C236.56 123.843 235.687 122.971 234.611 122.971Z" fill="#263238"/>
<path d="M210.062 161.035C210.119 159.179 210.897 157.417 212.231 156.124C213.564 154.832 215.349 154.109 217.206 154.109C219.064 154.109 220.848 154.832 222.182 156.124C223.515 157.417 224.293 159.179 224.351 161.035H210.062Z" fill="#096F9F"/>
<path d="M226.922 158.6H212.634V160.919H241.211V159.968L226.922 158.6Z" fill="#096F9F"/>
<path opacity="0.8" d="M226.922 158.6H212.634V160.919H241.211V159.968L226.922 158.6Z" fill="white"/>
<path d="M226.922 160.919H212.634V158.6L226.922 159.968V160.919Z" fill="#096F9F"/>
<path opacity="0.6" d="M226.922 160.919H212.634V158.6L226.922 159.968V160.919Z" fill="white"/>
<path d="M258.427 240.749H228.954C228.366 240.749 227.783 240.634 227.24 240.41C226.696 240.186 226.202 239.856 225.786 239.441C225.37 239.025 225.04 238.532 224.815 237.989C224.59 237.446 224.474 236.863 224.474 236.275V168.504C224.474 167.916 224.59 167.334 224.815 166.791C225.04 166.248 225.37 165.754 225.786 165.339C226.202 164.923 226.696 164.594 227.24 164.37C227.783 164.145 228.366 164.03 228.954 164.031H258.427C258.745 164.031 259.049 164.157 259.274 164.382C259.498 164.606 259.624 164.911 259.624 165.228C259.624 165.546 259.498 165.85 259.274 166.075C259.049 166.299 258.745 166.425 258.427 166.425H228.954C228.682 166.421 228.411 166.47 228.158 166.571C227.905 166.672 227.675 166.823 227.481 167.014C227.287 167.205 227.132 167.433 227.027 167.684C226.922 167.935 226.868 168.205 226.868 168.477V236.248C226.868 236.52 226.922 236.79 227.027 237.041C227.132 237.292 227.287 237.52 227.481 237.711C227.675 237.902 227.905 238.053 228.158 238.154C228.411 238.255 228.682 238.304 228.954 238.3H258.427C258.745 238.3 259.049 238.426 259.274 238.65C259.498 238.875 259.624 239.179 259.624 239.497C259.632 239.659 259.606 239.82 259.55 239.972C259.493 240.123 259.406 240.262 259.294 240.379C259.182 240.496 259.047 240.589 258.899 240.653C258.75 240.716 258.589 240.749 258.427 240.749Z" fill="#263238"/>
<g opacity="0.5">
<path d="M258.427 240.749H228.954C228.366 240.749 227.783 240.634 227.24 240.41C226.696 240.186 226.202 239.856 225.786 239.441C225.37 239.025 225.04 238.532 224.815 237.989C224.59 237.446 224.474 236.863 224.474 236.275V168.504C224.474 167.916 224.59 167.334 224.815 166.791C225.04 166.248 225.37 165.754 225.786 165.339C226.202 164.923 226.696 164.594 227.24 164.37C227.783 164.145 228.366 164.03 228.954 164.031H258.427C258.745 164.031 259.049 164.157 259.274 164.382C259.498 164.606 259.624 164.911 259.624 165.228C259.624 165.546 259.498 165.85 259.274 166.075C259.049 166.299 258.745 166.425 258.427 166.425H228.954C228.682 166.421 228.411 166.47 228.158 166.571C227.905 166.672 227.675 166.823 227.481 167.014C227.287 167.205 227.132 167.433 227.027 167.684C226.922 167.935 226.868 168.205 226.868 168.477V236.248C226.868 236.52 226.922 236.79 227.027 237.041C227.132 237.292 227.287 237.52 227.481 237.711C227.675 237.902 227.905 238.053 228.158 238.154C228.411 238.255 228.682 238.304 228.954 238.3H258.427C258.745 238.3 259.049 238.426 259.274 238.65C259.498 238.875 259.624 239.179 259.624 239.497C259.632 239.659 259.606 239.82 259.55 239.972C259.493 240.123 259.406 240.262 259.294 240.379C259.182 240.496 259.047 240.589 258.899 240.653C258.75 240.716 258.589 240.749 258.427 240.749Z" fill="white"/>
</g>
<path d="M228.838 160.919H186.984V164.428H228.838V160.919Z" fill="#096F9F"/>
<path opacity="0.2" d="M228.838 160.919H186.984V164.428H228.838V160.919Z" fill="white"/>
<path d="M262.62 160.919H226.922V164.428H262.62V160.919Z" fill="#096F9F"/>
<path opacity="0.5" d="M262.62 160.919H226.922V164.428H262.62V160.919Z" fill="white"/>
<path d="M250.103 215.885L252.08 235.872H247.347L242.607 216.405L250.103 215.885Z" fill="#EEC1BB"/>
<path d="M246.902 234.538L252.942 234.64C253.052 234.643 253.158 234.683 253.243 234.754C253.327 234.825 253.385 234.922 253.407 235.03L254.419 239.962C254.462 240.171 254.421 240.389 254.304 240.568C254.188 240.747 254.005 240.874 253.797 240.92H253.626C251.444 240.844 249.522 240.694 246.786 240.646C243.591 240.591 244.392 240.988 240.63 240.981C238.366 240.981 237.996 238.389 238.954 238.279C243.366 237.801 243.845 236.48 245.568 234.935C245.949 234.643 246.424 234.502 246.902 234.538Z" fill="#263238"/>
<path opacity="0.1" d="M251.567 230.653L250.103 215.885L242.607 216.405L246.074 230.653H251.567Z" fill="black"/>
<path d="M282.511 169.804L263.099 170.488C263.099 170.488 236.95 179.633 236.266 186.658C235.513 193.895 244.296 227.144 244.296 227.144H252.1C252.1 227.144 249.946 202.746 249.125 195.276C248.304 187.807 276.341 190.276 281.212 183.908C285.664 178.067 282.511 169.804 282.511 169.804Z" fill="#263238"/>
<path opacity="0.2" d="M282.511 169.804L263.099 170.488C263.099 170.488 236.95 179.633 236.266 186.658C235.513 193.895 244.296 227.144 244.296 227.144H252.1C252.1 227.144 249.946 202.746 249.125 195.276C248.304 187.807 276.341 190.276 281.212 183.908C285.664 178.067 282.511 169.804 282.511 169.804Z" fill="black"/>
<path d="M253.4 226.049L253.571 228.806H243.927L242.983 226.049H253.4Z" fill="#096F9F"/>
<path d="M232.039 216.836L232.559 235.872H227.907L225.151 216.836H232.039Z" fill="#EEC1BB"/>
<path d="M227.264 234.538L233.304 234.64C233.414 234.643 233.521 234.683 233.605 234.754C233.69 234.825 233.748 234.922 233.769 235.03L234.782 239.962C234.824 240.171 234.783 240.389 234.666 240.568C234.55 240.747 234.368 240.874 234.159 240.92H233.988C231.806 240.844 229.884 240.694 227.148 240.646C223.947 240.591 224.754 240.988 220.992 240.981C218.728 240.981 218.359 238.389 219.316 238.279C223.728 237.801 224.207 236.48 225.931 234.935C226.311 234.642 226.786 234.501 227.264 234.538Z" fill="#263238"/>
<path opacity="0.1" d="M232.415 230.639L232.039 216.836H225.151L227.155 230.653C228.653 230.66 230.712 230.646 232.415 230.639Z" fill="black"/>
<path d="M274.071 171.411C274.071 171.411 275.685 186.172 260.671 186.863C245.657 187.554 233.933 189.271 233.591 194.613C233.249 199.955 233.591 227.171 233.591 227.171H225.431C225.431 227.171 222.258 209.962 221.02 199.291C219.816 188.929 217.6 181.412 228.249 177.903C239.556 174.168 259.652 170.721 259.652 170.721L274.125 169.804L274.071 171.411Z" fill="#263238"/>
<path d="M234.795 226.049L234.282 228.806H225.322L224.378 226.049H234.795Z" fill="#096F9F"/>
<path d="M277.306 129.065C277.306 129.065 277.306 125.741 270.582 126.124C263.441 126.534 264.789 129.722 264.789 129.722L277.306 129.065Z" fill="#096F9F"/>
<path opacity="0.3" d="M277.306 129.065C277.306 129.065 277.306 125.741 270.582 126.124C263.441 126.534 264.789 129.722 264.789 129.722L277.306 129.065Z" fill="black"/>
<path d="M283.571 143.976C283.12 150.55 283.277 170.324 283.277 170.324C283.277 170.324 268.913 171.268 257.641 170.898L256.334 132.861C256.339 132.189 256.547 131.533 256.93 130.981C257.313 130.428 257.854 130.003 258.482 129.763C261.67 128.525 269.153 127.123 280.856 128.662C284.891 129.202 284.105 136.206 283.571 143.976Z" fill="#096F9F"/>
<path d="M258.639 143.723C258.639 143.723 253.058 157.54 247.607 159.031C242.155 160.522 233.927 159.311 233.927 159.311L231.382 159.995L228.892 159.626H228.803L225.985 159.558C225.884 159.566 225.782 159.545 225.692 159.498C225.602 159.451 225.528 159.378 225.477 159.29C225.427 159.202 225.403 159.101 225.408 158.999C225.413 158.897 225.447 158.799 225.507 158.716L226.519 157.348C226.603 157.236 226.72 157.152 226.854 157.109L229.528 156.247C229.637 156.223 229.749 156.223 229.857 156.247L233.961 156.897C233.961 156.897 245.349 155.03 246.505 153.976C247.661 152.923 251.102 141.876 251.102 141.876L258.639 143.723Z" fill="#EEC1BB"/>
<path opacity="0.1" d="M258.496 137.294C258.496 137.294 257.627 138.326 256.574 139.818L256.95 150.83C261.143 148.976 262.805 138.183 262.805 138.183L260.069 136.254L258.496 137.294Z" fill="black"/>
<path d="M262.005 130.036C257.955 128.709 252.251 131.753 250.069 144.503L258.482 146.959C258.482 146.959 267.791 131.938 262.005 130.036Z" fill="#096F9F"/>
<path d="M267.361 194.025H261.034V212.568H267.361V194.025Z" fill="#263238"/>
<path opacity="0.6" d="M267.361 194.025H261.034V212.568H267.361V194.025Z" fill="white"/>
<path d="M268.339 229.367V205.81H260.049V229.367L241.177 231.987V234.606L264.194 232.643L287.21 234.606V231.987L268.339 229.367Z" fill="#263238"/>
<path d="M240.903 241.029C242.282 241.029 243.4 239.911 243.4 238.532C243.4 237.154 242.282 236.036 240.903 236.036C239.525 236.036 238.407 237.154 238.407 238.532C238.407 239.911 239.525 241.029 240.903 241.029Z" fill="#096F9F"/>
<path d="M287.21 241.029C288.589 241.029 289.707 239.911 289.707 238.532C289.707 237.154 288.589 236.036 287.21 236.036C285.831 236.036 284.714 237.154 284.714 238.532C284.714 239.911 285.831 241.029 287.21 241.029Z" fill="#096F9F"/>
<path d="M264.194 241.029C265.572 241.029 266.69 239.911 266.69 238.532C266.69 237.154 265.572 236.036 264.194 236.036C262.815 236.036 261.697 237.154 261.697 238.532C261.697 239.911 262.815 241.029 264.194 241.029Z" fill="#096F9F"/>
<path opacity="0.3" d="M267.361 194.025H261.034V198.607H267.361V194.025Z" fill="black"/>
<path d="M289.207 151.993H268.592C266.971 151.994 265.409 152.6 264.211 153.691C263.013 154.783 262.266 156.282 262.114 157.896L260.377 176.521C260.184 178.574 259.259 180.488 257.771 181.915C256.282 183.342 254.33 184.185 252.271 184.291L232.374 185.29C231.209 185.349 230.112 185.854 229.309 186.699C228.506 187.544 228.058 188.666 228.058 189.832V190.249C228.058 191.248 228.455 192.207 229.162 192.914C229.869 193.621 230.827 194.018 231.827 194.018H292.422L295.685 159.134C295.773 158.23 295.67 157.318 295.385 156.456C295.099 155.594 294.637 154.802 294.027 154.129C293.417 153.457 292.673 152.92 291.843 152.552C291.013 152.184 290.115 151.993 289.207 151.993Z" fill="#096F9F"/>
<path opacity="0.3" d="M289.207 151.993H268.592C266.971 151.994 265.409 152.6 264.211 153.691C263.013 154.783 262.266 156.282 262.114 157.896L260.377 176.521C260.184 178.574 259.259 180.488 257.771 181.915C256.282 183.342 254.33 184.185 252.271 184.291L232.374 185.29C231.209 185.349 230.112 185.854 229.309 186.699C228.506 187.544 228.058 188.666 228.058 189.832V190.249C228.058 191.248 228.455 192.207 229.162 192.914C229.869 193.621 230.827 194.018 231.827 194.018H292.422L295.685 159.134C295.773 158.23 295.67 157.318 295.385 156.456C295.099 155.594 294.637 154.802 294.027 154.129C293.417 153.457 292.673 152.92 291.843 152.552C291.013 152.184 290.115 151.993 289.207 151.993Z" fill="white"/>
<path d="M241.888 172.978H244.727V187.827C244.727 188.19 244.583 188.538 244.326 188.795C244.07 189.051 243.722 189.195 243.359 189.195H243.256C242.894 189.195 242.546 189.051 242.289 188.795C242.032 188.538 241.888 188.19 241.888 187.827V172.978Z" fill="#263238"/>
<path opacity="0.2" d="M241.888 172.978H244.727V187.827C244.727 188.19 244.583 188.538 244.326 188.795C244.07 189.051 243.722 189.195 243.359 189.195H243.256C242.894 189.195 242.546 189.051 242.289 188.795C242.032 188.538 241.888 188.19 241.888 187.827V172.978Z" fill="white"/>
<path d="M255.575 168.716H249.262V173.949H255.589C255.944 173.967 256.298 173.913 256.632 173.79C256.965 173.666 257.27 173.477 257.527 173.232C257.785 172.987 257.99 172.693 258.13 172.366C258.27 172.04 258.342 171.688 258.342 171.333C258.342 170.978 258.27 170.626 258.13 170.299C257.99 169.973 257.785 169.678 257.527 169.434C257.27 169.189 256.965 168.999 256.632 168.876C256.298 168.753 255.944 168.698 255.589 168.716H255.575Z" fill="#096F9F"/>
<path opacity="0.5" d="M255.575 168.716H249.262V173.949H255.589C255.944 173.967 256.298 173.913 256.632 173.79C256.965 173.666 257.27 173.477 257.527 173.232C257.785 172.987 257.99 172.693 258.13 172.366C258.27 172.04 258.342 171.688 258.342 171.333C258.342 170.978 258.27 170.626 258.13 170.299C257.99 169.973 257.785 169.678 257.527 169.434C257.27 169.189 256.965 168.999 256.632 168.876C256.298 168.753 255.944 168.698 255.589 168.716H255.575Z" fill="white"/>
<path d="M253.051 168.717H230.938C229.544 168.717 228.414 169.847 228.414 171.241V171.432C228.414 172.826 229.544 173.956 230.938 173.956H253.051C254.445 173.956 255.575 172.826 255.575 171.432V171.241C255.575 169.847 254.445 168.717 253.051 168.717Z" fill="#096F9F"/>
<path opacity="0.3" d="M253.051 168.717H230.938C229.544 168.717 228.414 169.847 228.414 171.241V171.432C228.414 172.826 229.544 173.956 230.938 173.956H253.051C254.445 173.956 255.575 172.826 255.575 171.432V171.241C255.575 169.847 254.445 168.717 253.051 168.717Z" fill="white"/>
<path d="M293.845 194.025H263.537L266.916 157.93C267.067 156.316 267.815 154.817 269.013 153.726C270.211 152.634 271.773 152.028 273.393 152.027H294.009C294.915 152.028 295.81 152.217 296.638 152.584C297.466 152.95 298.208 153.485 298.818 154.154C299.427 154.824 299.89 155.613 300.178 156.472C300.465 157.33 300.57 158.239 300.487 159.141L297.539 190.7C297.442 191.613 297.012 192.457 296.33 193.071C295.648 193.685 294.763 194.025 293.845 194.025Z" fill="#096F9F"/>
<path opacity="0.5" d="M293.845 194.025H263.537L266.916 157.93C267.067 156.316 267.815 154.817 269.013 153.726C270.211 152.634 271.773 152.028 273.393 152.027H294.009C294.915 152.028 295.81 152.217 296.638 152.584C297.466 152.95 298.208 153.485 298.818 154.154C299.427 154.824 299.89 155.613 300.178 156.472C300.465 157.33 300.57 158.239 300.487 159.141L297.539 190.7C297.442 191.613 297.012 192.457 296.33 193.071C295.648 193.685 294.763 194.025 293.845 194.025Z" fill="white"/>
<path d="M223.044 240.749H193.571C192.983 240.749 192.4 240.634 191.857 240.41C191.313 240.186 190.819 239.856 190.403 239.441C189.987 239.025 189.657 238.532 189.432 237.989C189.206 237.446 189.09 236.863 189.09 236.275V168.504C189.09 167.916 189.206 167.334 189.432 166.791C189.657 166.248 189.987 165.754 190.403 165.339C190.819 164.923 191.313 164.594 191.857 164.37C192.4 164.145 192.983 164.03 193.571 164.031H223.044C223.362 164.031 223.666 164.157 223.891 164.382C224.115 164.606 224.241 164.911 224.241 165.228C224.241 165.546 224.115 165.85 223.891 166.075C223.666 166.299 223.362 166.425 223.044 166.425H193.571C193.298 166.421 193.028 166.47 192.775 166.571C192.522 166.672 192.292 166.823 192.097 167.014C191.903 167.205 191.749 167.433 191.644 167.684C191.539 167.935 191.484 168.205 191.484 168.477V236.248C191.484 236.52 191.539 236.79 191.644 237.041C191.749 237.292 191.903 237.52 192.097 237.711C192.292 237.902 192.522 238.053 192.775 238.154C193.028 238.255 193.298 238.304 193.571 238.3H223.044C223.362 238.3 223.666 238.426 223.891 238.65C224.115 238.875 224.241 239.179 224.241 239.497C224.249 239.659 224.223 239.82 224.166 239.972C224.109 240.123 224.022 240.262 223.911 240.379C223.799 240.496 223.664 240.589 223.515 240.653C223.366 240.716 223.206 240.749 223.044 240.749Z" fill="#263238"/>
<g opacity="0.5">
<path d="M223.044 240.749H193.571C192.983 240.749 192.4 240.634 191.857 240.41C191.313 240.186 190.819 239.856 190.403 239.441C189.987 239.025 189.657 238.532 189.432 237.989C189.206 237.446 189.09 236.863 189.09 236.275V168.504C189.09 167.916 189.206 167.334 189.432 166.791C189.657 166.248 189.987 165.754 190.403 165.339C190.819 164.923 191.313 164.594 191.857 164.37C192.4 164.145 192.983 164.03 193.571 164.031H223.044C223.362 164.031 223.666 164.157 223.891 164.382C224.115 164.606 224.241 164.911 224.241 165.228C224.241 165.546 224.115 165.85 223.891 166.075C223.666 166.299 223.362 166.425 223.044 166.425H193.571C193.298 166.421 193.028 166.47 192.775 166.571C192.522 166.672 192.292 166.823 192.097 167.014C191.903 167.205 191.749 167.433 191.644 167.684C191.539 167.935 191.484 168.205 191.484 168.477V236.248C191.484 236.52 191.539 236.79 191.644 237.041C191.749 237.292 191.903 237.52 192.097 237.711C192.292 237.902 192.522 238.053 192.775 238.154C193.028 238.255 193.298 238.304 193.571 238.3H223.044C223.362 238.3 223.666 238.426 223.891 238.65C224.115 238.875 224.241 239.179 224.241 239.497C224.249 239.659 224.223 239.82 224.166 239.972C224.109 240.123 224.022 240.262 223.911 240.379C223.799 240.496 223.664 240.589 223.515 240.653C223.366 240.716 223.206 240.749 223.044 240.749Z" fill="white"/>
</g>
<path d="M203.564 128.374L201.512 127.006C201.46 126.973 201.417 126.927 201.387 126.872C201.357 126.818 201.341 126.757 201.341 126.695C201.341 126.633 201.357 126.572 201.387 126.518C201.417 126.463 201.46 126.417 201.512 126.384L203.564 125.016C203.639 124.966 203.731 124.949 203.819 124.966C203.908 124.984 203.986 125.037 204.036 125.112C204.083 125.186 204.1 125.277 204.082 125.363C204.064 125.45 204.013 125.527 203.94 125.577L202.237 126.705L203.94 127.834C204.013 127.884 204.064 127.96 204.082 128.047C204.1 128.134 204.083 128.224 204.036 128.299C203.981 128.369 203.902 128.416 203.815 128.43C203.727 128.444 203.637 128.424 203.564 128.374Z" fill="white"/>
<path d="M208.106 128.278C208.065 128.203 208.054 128.116 208.076 128.033C208.097 127.95 208.149 127.879 208.222 127.834L209.925 126.705L208.222 125.556C208.148 125.506 208.098 125.429 208.081 125.342C208.065 125.255 208.083 125.164 208.133 125.091C208.157 125.054 208.188 125.022 208.225 124.998C208.261 124.973 208.302 124.955 208.346 124.947C208.389 124.938 208.433 124.937 208.477 124.946C208.52 124.954 208.561 124.971 208.598 124.995L210.65 126.363C210.702 126.397 210.745 126.443 210.775 126.497C210.805 126.551 210.821 126.612 210.821 126.674C210.821 126.736 210.805 126.797 210.775 126.852C210.745 126.906 210.702 126.952 210.65 126.986L208.598 128.354C208.561 128.382 208.519 128.403 208.474 128.415C208.429 128.427 208.382 128.43 208.336 128.422C208.289 128.415 208.245 128.399 208.206 128.374C208.166 128.349 208.132 128.317 208.106 128.278Z" fill="white"/>
<path d="M205.294 129.202C205.252 129.189 205.213 129.167 205.179 129.139C205.145 129.11 205.117 129.075 205.096 129.036C205.076 128.996 205.064 128.953 205.06 128.909C205.056 128.864 205.062 128.82 205.075 128.778L206.491 124.304C206.504 124.262 206.525 124.223 206.552 124.189C206.58 124.155 206.615 124.127 206.654 124.107C206.693 124.086 206.735 124.074 206.779 124.07C206.823 124.067 206.867 124.072 206.909 124.086C206.951 124.098 206.99 124.119 207.024 124.147C207.058 124.175 207.086 124.209 207.106 124.248C207.127 124.287 207.139 124.329 207.143 124.373C207.146 124.417 207.141 124.461 207.127 124.503L205.718 128.983C205.705 129.025 205.684 129.065 205.655 129.099C205.627 129.133 205.592 129.161 205.552 129.181C205.513 129.201 205.47 129.214 205.425 129.217C205.381 129.221 205.337 129.216 205.294 129.202Z" fill="white"/>
<path d="M216.909 132.622H201.676C201.63 132.622 201.584 132.613 201.541 132.595C201.498 132.577 201.459 132.55 201.427 132.517C201.394 132.484 201.369 132.445 201.352 132.402C201.335 132.359 201.326 132.313 201.327 132.266C201.326 132.22 201.335 132.174 201.352 132.131C201.369 132.087 201.394 132.048 201.427 132.015C201.459 131.982 201.498 131.956 201.541 131.938C201.584 131.92 201.63 131.911 201.676 131.911H216.909C217.003 131.911 217.093 131.948 217.16 132.015C217.227 132.081 217.264 132.172 217.264 132.266C217.264 132.313 217.255 132.359 217.237 132.402C217.219 132.445 217.193 132.485 217.16 132.518C217.127 132.551 217.088 132.577 217.045 132.595C217.002 132.613 216.955 132.622 216.909 132.622Z" fill="white"/>
<path d="M234.405 132.622H219.166C219.119 132.622 219.073 132.613 219.03 132.595C218.987 132.577 218.947 132.551 218.914 132.518C218.881 132.485 218.855 132.445 218.837 132.402C218.819 132.359 218.81 132.313 218.81 132.266C218.817 132.177 218.858 132.093 218.924 132.032C218.99 131.971 219.076 131.938 219.166 131.938H234.392C234.486 131.938 234.576 131.975 234.643 132.042C234.71 132.109 234.747 132.199 234.747 132.294C234.741 132.381 234.702 132.462 234.639 132.523C234.576 132.584 234.493 132.619 234.405 132.622Z" fill="white"/>
<path d="M210.383 135.755H201.676C201.63 135.755 201.584 135.745 201.541 135.727C201.498 135.709 201.459 135.683 201.427 135.65C201.394 135.617 201.369 135.578 201.352 135.534C201.335 135.491 201.326 135.445 201.327 135.399C201.327 135.306 201.364 135.218 201.429 135.152C201.495 135.087 201.583 135.05 201.676 135.05H210.383C210.476 135.05 210.566 135.087 210.632 135.152C210.699 135.217 210.737 135.306 210.739 135.399C210.739 135.493 210.702 135.584 210.635 135.65C210.568 135.717 210.478 135.755 210.383 135.755Z" fill="white"/>
<path d="M226.909 135.755H212.647C212.601 135.755 212.555 135.745 212.512 135.727C212.469 135.709 212.431 135.683 212.398 135.65C212.366 135.617 212.34 135.578 212.323 135.534C212.306 135.491 212.298 135.445 212.298 135.399C212.298 135.306 212.335 135.218 212.401 135.152C212.466 135.087 212.555 135.05 212.647 135.05H226.909C227.001 135.05 227.09 135.087 227.155 135.152C227.221 135.218 227.258 135.306 227.258 135.399C227.258 135.445 227.25 135.491 227.233 135.534C227.216 135.578 227.19 135.617 227.158 135.65C227.125 135.683 227.087 135.709 227.044 135.727C227.001 135.745 226.955 135.755 226.909 135.755Z" fill="white"/>
<path d="M224.877 138.894H201.676C201.583 138.892 201.494 138.854 201.429 138.788C201.364 138.721 201.327 138.632 201.327 138.538C201.326 138.492 201.335 138.446 201.352 138.403C201.369 138.36 201.394 138.32 201.427 138.287C201.459 138.254 201.498 138.228 201.541 138.21C201.584 138.192 201.63 138.183 201.676 138.183H224.877C224.972 138.183 225.062 138.22 225.129 138.287C225.195 138.354 225.233 138.444 225.233 138.538C225.233 138.633 225.195 138.723 225.129 138.79C225.062 138.857 224.972 138.894 224.877 138.894Z" fill="white"/>
<path d="M231.991 138.894H227.148C227.054 138.894 226.963 138.857 226.897 138.79C226.83 138.723 226.792 138.633 226.792 138.538C226.792 138.444 226.83 138.354 226.897 138.287C226.963 138.22 227.054 138.183 227.148 138.183H231.991C232.085 138.183 232.176 138.22 232.242 138.287C232.309 138.354 232.347 138.444 232.347 138.538C232.347 138.633 232.309 138.723 232.242 138.79C232.176 138.857 232.085 138.894 231.991 138.894Z" fill="white"/>
<path d="M212.511 142.027H201.676C201.63 142.027 201.584 142.018 201.541 142C201.498 141.982 201.459 141.955 201.427 141.922C201.394 141.889 201.369 141.85 201.352 141.807C201.335 141.764 201.326 141.718 201.327 141.671C201.326 141.625 201.335 141.579 201.352 141.536C201.369 141.492 201.394 141.453 201.427 141.42C201.459 141.387 201.498 141.361 201.541 141.343C201.584 141.325 201.63 141.315 201.676 141.315H212.511C212.605 141.315 212.695 141.353 212.762 141.42C212.829 141.486 212.866 141.577 212.866 141.671C212.866 141.766 212.829 141.856 212.762 141.923C212.695 141.989 212.605 142.027 212.511 142.027Z" fill="white"/>
<path d="M228.263 142.027H214.781C214.687 142.027 214.597 141.989 214.53 141.923C214.463 141.856 214.426 141.766 214.426 141.671C214.426 141.577 214.463 141.486 214.53 141.42C214.597 141.353 214.687 141.315 214.781 141.315H228.263C228.357 141.315 228.448 141.353 228.515 141.42C228.581 141.486 228.619 141.577 228.619 141.671C228.619 141.766 228.581 141.856 228.515 141.923C228.448 141.989 228.357 142.027 228.263 142.027Z" fill="white"/>
<path d="M216.909 145.16H201.676C201.63 145.16 201.584 145.15 201.541 145.132C201.498 145.114 201.459 145.088 201.427 145.055C201.394 145.022 201.369 144.983 201.352 144.939C201.335 144.896 201.326 144.85 201.327 144.804C201.327 144.711 201.364 144.623 201.429 144.557C201.495 144.492 201.583 144.455 201.676 144.455H216.909C216.955 144.454 217.001 144.462 217.044 144.48C217.087 144.497 217.127 144.522 217.16 144.555C217.193 144.587 217.219 144.626 217.237 144.669C217.255 144.712 217.264 144.757 217.264 144.804C217.264 144.898 217.227 144.989 217.16 145.055C217.093 145.122 217.003 145.16 216.909 145.16Z" fill="white"/>
<path d="M229.925 145.16H219.166C219.072 145.16 218.981 145.122 218.914 145.055C218.848 144.989 218.81 144.898 218.81 144.804C218.81 144.757 218.819 144.712 218.837 144.669C218.855 144.626 218.882 144.587 218.915 144.555C218.948 144.522 218.987 144.497 219.03 144.48C219.073 144.462 219.119 144.454 219.166 144.455H229.911C230.004 144.455 230.093 144.492 230.158 144.557C230.224 144.623 230.26 144.711 230.26 144.804C230.262 144.895 230.228 144.984 230.165 145.05C230.103 145.117 230.017 145.156 229.925 145.16Z" fill="white"/>
<path d="M97.7353 83.9348C98.0158 87.1564 97.3181 92.9909 94.8899 94.8788C98.8503 96.3083 103.05 98.7707 105.731 102.02C108.392 98.1483 105.369 95.9389 105.369 95.9389C101.949 94.7214 102.311 92.1291 103.194 89.7419L97.7353 83.9348Z" fill="#B97964"/>
<path d="M110.683 81.1577C110.642 81.5613 110.834 81.9101 111.101 81.9375C111.367 81.9649 111.607 81.6502 111.648 81.2535C111.689 80.8568 111.497 80.5011 111.231 80.4737C110.964 80.4464 110.731 80.7542 110.683 81.1577Z" fill="#263238"/>
<path d="M111.128 80.4806L112.12 80.2891C112.12 80.2891 111.552 81.0209 111.128 80.4806Z" fill="#263238"/>
<path d="M110.82 81.5886C111.099 82.5507 111.507 83.4709 112.031 84.3246C111.809 84.4529 111.562 84.5315 111.307 84.5552C111.052 84.5788 110.795 84.5468 110.553 84.4614L110.82 81.5886Z" fill="#A24E3F"/>
<path d="M111.833 79.0305C111.896 79.0205 111.954 78.9891 111.997 78.9416C112.039 78.896 112.063 78.8362 112.063 78.774C112.063 78.7118 112.039 78.652 111.997 78.6064C111.716 78.3496 111.377 78.164 111.009 78.0653C110.641 77.9665 110.255 77.9574 109.883 78.0387C109.831 78.0749 109.794 78.1294 109.78 78.1916C109.766 78.2537 109.776 78.3188 109.808 78.3739C109.829 78.409 109.859 78.4378 109.895 78.457C109.931 78.4763 109.972 78.4854 110.013 78.4833C110.309 78.4267 110.614 78.44 110.903 78.5219C111.193 78.6038 111.46 78.7522 111.682 78.9552C111.722 78.9972 111.775 79.0239 111.833 79.0305Z" fill="#263238"/>
<path d="M97.4139 78.5859C97.2565 83.5859 97.0855 85.7132 99.3154 88.5039C102.674 92.6968 108.755 91.7802 110.383 86.9102C111.846 82.5257 111.86 75.0564 107.257 72.6351C102.653 70.2137 97.5575 73.5722 97.4139 78.5859Z" fill="#B97964"/>
<path d="M97.6328 88.0319C92.7148 87.1906 94.1239 84.0921 94.1239 84.0921C89.2811 83.1139 93.0226 80.7473 93.0226 80.7473C88.9939 79.0099 93.0226 77.4504 93.0226 77.4504C89.1375 74.2288 94.6779 73.1139 94.6779 73.1139C93.3099 68.0865 98.0979 70.1521 98.0979 70.1521C100.697 65.8293 102.941 69.9538 102.941 69.9538C107.496 63.7978 108.604 68.9893 108.604 68.9893C113.262 67.765 111.477 72.6624 111.477 72.6624C115.307 73.6884 112.298 75.631 112.298 75.631C113.775 77.4983 108.433 77.8198 108.433 77.8198C108.433 77.8198 110.978 81.9238 108.433 83.0524L101.962 88.0114C101.962 88.0114 98.9734 86.7939 97.6328 88.0319Z" fill="#263238"/>
<path d="M102.469 83.9963C102.469 83.9963 105.889 75.7883 103.214 68.7842L105.471 68.0112C105.471 68.0112 108.419 78.196 102.469 83.9963Z" fill="#096F9F"/>
<path d="M105.882 83.0934C106.443 84.2699 106.662 84.7829 107.469 85.1454C107.718 85.2884 108.004 85.3549 108.291 85.3366C108.577 85.3183 108.852 85.216 109.081 85.0424C109.31 84.8688 109.483 84.6316 109.578 84.3605C109.674 84.0893 109.687 83.7961 109.616 83.5175C109.404 82.341 108.501 80.6105 107.25 80.5763C106.957 80.5778 106.67 80.6578 106.419 80.808C106.168 80.9583 105.961 81.1732 105.822 81.4304C105.682 81.6876 105.614 81.9776 105.624 82.2701C105.635 82.5627 105.724 82.847 105.882 83.0934Z" fill="#B97964"/>
<path d="M102.346 100.18C102.346 100.18 106.976 103.6 108.857 104.968L122.257 98.6476C122.238 97.9047 122.443 97.1734 122.846 96.5487C123.248 95.9241 123.83 95.4351 124.514 95.1455L125.472 94.7488L127.489 93.8459C127.865 93.678 128.279 93.6124 128.689 93.6556C129.098 93.6989 129.489 93.8495 129.822 94.0922C130.213 94.3771 130.506 94.7757 130.661 95.2337C130.817 95.6916 130.827 96.1864 130.69 96.6503C130.409 97.6122 129.883 98.4846 129.164 99.1823C128.444 99.8801 127.556 100.379 126.586 100.631L124.63 101.144C124.63 101.144 113.146 109.845 109.042 110.05C104.938 110.255 98.9255 106.226 98.9255 106.226L102.346 100.18Z" fill="#B97964"/>
<path d="M91.2099 94.4136C94.7462 94.4136 98.6997 96.6161 104.89 100.652C104.001 103.561 102.347 106.178 100.102 108.23C100.102 108.23 96.6819 107.314 92.1402 103.039C86.6681 97.861 89.0416 94.4205 91.2099 94.4136Z" fill="#263238"/>
<path d="M158.379 104.66H124.863C124.581 104.664 124.301 104.609 124.042 104.497C123.783 104.386 123.551 104.22 123.361 104.012C123.171 103.804 123.027 103.557 122.939 103.289C122.852 103.021 122.822 102.738 122.852 102.457L125.376 73.6063C125.436 73.0098 125.713 72.456 126.154 72.0501C126.595 71.6441 127.17 71.4142 127.77 71.4038H161.286C161.567 71.3992 161.847 71.4546 162.106 71.5664C162.364 71.6782 162.596 71.8438 162.786 72.0522C162.975 72.2605 163.118 72.5069 163.205 72.7749C163.292 73.0429 163.321 73.3263 163.29 73.6063L160.766 102.457C160.706 103.053 160.43 103.606 159.99 104.011C159.55 104.417 158.977 104.648 158.379 104.66Z" fill="#096F9F"/>
<path opacity="0.4" d="M158.379 104.66H124.863C124.581 104.664 124.301 104.609 124.042 104.497C123.783 104.386 123.551 104.22 123.361 104.012C123.171 103.804 123.027 103.557 122.939 103.289C122.852 103.021 122.822 102.738 122.852 102.457L125.376 73.6063C125.436 73.0098 125.713 72.456 126.154 72.0501C126.595 71.6441 127.17 71.4142 127.77 71.4038H161.286C161.567 71.3992 161.847 71.4546 162.106 71.5664C162.364 71.6782 162.596 71.8438 162.786 72.0522C162.975 72.2605 163.118 72.5069 163.205 72.7749C163.292 73.0429 163.321 73.3263 163.29 73.6063L160.766 102.457C160.706 103.053 160.43 103.606 159.99 104.011C159.55 104.417 158.977 104.648 158.379 104.66Z" fill="white"/>
<path opacity="0.7" d="M158.502 103.292C158.729 103.288 158.946 103.201 159.112 103.047C159.279 102.893 159.383 102.683 159.405 102.457L161.929 73.6064C161.94 73.5003 161.929 73.393 161.896 73.2915C161.863 73.19 161.809 73.0968 161.737 73.0178C161.666 72.9389 161.578 72.8762 161.48 72.8338C161.382 72.7914 161.276 72.7703 161.17 72.7719H127.654C127.426 72.7757 127.208 72.8627 127.04 73.0165C126.873 73.1702 126.767 73.3801 126.744 73.6064L124.227 102.457C124.215 102.564 124.226 102.671 124.259 102.772C124.292 102.874 124.346 102.967 124.418 103.046C124.49 103.125 124.578 103.188 124.676 103.23C124.773 103.272 124.879 103.294 124.986 103.292H158.502Z" fill="white"/>
<path d="M135.212 86.3287L124.268 102.17V102.457C124.256 102.564 124.267 102.671 124.3 102.772C124.333 102.874 124.387 102.967 124.459 103.046C124.531 103.125 124.619 103.188 124.717 103.23C124.814 103.272 124.92 103.294 125.027 103.292H144.015L135.212 86.3287Z" fill="#096F9F"/>
<path opacity="0.3" d="M135.212 86.3287L124.268 102.17V102.457C124.256 102.564 124.267 102.671 124.3 102.772C124.333 102.874 124.387 102.967 124.459 103.046C124.531 103.125 124.619 103.188 124.717 103.23C124.814 103.272 124.92 103.294 125.027 103.292H144.015L135.212 86.3287Z" fill="white"/>
<path d="M159.5 101.356L150.328 83.9348L136.744 103.292H158.502C158.729 103.288 158.946 103.201 159.112 103.047C159.279 102.893 159.383 102.683 159.405 102.457L159.5 101.356Z" fill="#096F9F"/>
<path d="M146.785 80.8567C146.701 81.6905 146.314 82.4644 145.698 83.0318C145.081 83.5992 144.278 83.9205 143.44 83.9347C143.046 83.9419 142.655 83.865 142.292 83.7092C141.93 83.5534 141.605 83.3222 141.339 83.031C141.073 82.7398 140.872 82.3952 140.75 82.0204C140.627 81.6455 140.586 81.2488 140.629 80.8567C140.711 80.0218 141.097 79.2462 141.714 78.6774C142.331 78.1086 143.135 77.7863 143.974 77.7719C144.369 77.7646 144.761 77.8416 145.123 77.9979C145.486 78.1541 145.812 78.386 146.078 78.6779C146.344 78.9699 146.544 79.3153 146.666 79.691C146.788 80.0667 146.829 80.4642 146.785 80.8567Z" fill="#096F9F"/>
<path opacity="0.4" d="M146.785 80.8567C146.701 81.6905 146.314 82.4644 145.698 83.0318C145.081 83.5992 144.278 83.9205 143.44 83.9347C143.046 83.9419 142.655 83.865 142.292 83.7092C141.93 83.5534 141.605 83.3222 141.339 83.031C141.073 82.7398 140.872 82.3952 140.75 82.0204C140.627 81.6455 140.586 81.2488 140.629 80.8567C140.711 80.0218 141.097 79.2462 141.714 78.6774C142.331 78.1086 143.135 77.7863 143.974 77.7719C144.369 77.7646 144.761 77.8416 145.123 77.9979C145.486 78.1541 145.812 78.386 146.078 78.6779C146.344 78.9699 146.544 79.3153 146.666 79.691C146.788 80.0667 146.829 80.4642 146.785 80.8567Z" fill="white"/>
<path d="M63.1455 221.111L59.7391 231.207L64.9581 233.341L69.0415 224.025L63.1455 221.111Z" fill="#B97964"/>
<path d="M66.8322 233.088C66.8054 233.072 66.7836 233.048 66.7691 233.021C66.7547 232.993 66.7481 232.962 66.7501 232.93C66.7539 232.9 66.7673 232.872 66.7882 232.85C66.8091 232.828 66.8365 232.813 66.8664 232.807C66.9758 232.807 69.4382 232.233 70.3548 232.807C70.5281 232.913 70.6533 233.083 70.7036 233.279C70.7419 233.389 70.7454 233.507 70.7136 233.619C70.6817 233.73 70.6161 233.829 70.5258 233.902C70.177 234.148 69.363 234.045 68.6174 233.813C68.0027 233.623 67.4054 233.38 66.8322 233.088ZM67.352 233.04C68.4259 233.519 69.9444 233.977 70.3411 233.676C70.3958 233.635 70.4642 233.567 70.4095 233.355C70.3989 233.293 70.3735 233.234 70.3353 233.184C70.2972 233.134 70.2476 233.094 70.1906 233.067C70.11 233.016 70.0225 232.977 69.9307 232.951C69.0733 232.817 68.1982 232.847 67.352 233.04Z" fill="#096F9F"/>
<path d="M66.757 233.054C66.7438 233.031 66.7368 233.005 66.7368 232.978C66.7368 232.952 66.7438 232.926 66.757 232.903C66.757 232.835 67.441 231.262 68.4054 230.851C68.543 230.794 68.6907 230.764 68.8398 230.764C68.9889 230.764 69.1365 230.794 69.2741 230.851C69.6503 231.008 69.7119 231.248 69.6777 231.412C69.5956 232.13 67.7488 232.985 66.9417 233.081C66.9321 233.086 66.9216 233.088 66.9109 233.088C66.9002 233.088 66.8896 233.086 66.8801 233.081C66.8589 233.087 66.8365 233.088 66.815 233.083C66.7935 233.078 66.7735 233.068 66.757 233.054ZM69.0757 231.118C68.8991 231.053 68.7052 231.053 68.5285 231.118C67.9196 231.496 67.442 232.052 67.1605 232.712C68.0429 232.5 69.3015 231.775 69.3904 231.344C69.3904 231.303 69.3904 231.193 69.1578 231.097H69.0757V231.118Z" fill="#096F9F"/>
<path d="M66.4765 232.055L59.9238 230.003C59.8038 229.966 59.6748 229.971 59.558 230.017C59.4412 230.063 59.3435 230.147 59.2808 230.256L56.4491 235.222C56.3879 235.326 56.348 235.442 56.3317 235.562C56.3154 235.682 56.3231 235.804 56.3542 235.921C56.3854 236.038 56.4394 236.148 56.5133 236.244C56.5871 236.34 56.6792 236.42 56.7842 236.48C56.8401 236.515 56.8998 236.542 56.9621 236.563C59.3356 237.247 61.4765 237.766 64.4177 238.683C67.8924 239.75 66.8801 239.894 70.943 241.214C73.3918 242.007 74.705 239.346 73.679 238.888C69.0894 236.836 69.0415 235.222 67.7282 232.944C67.4312 232.507 66.9869 232.192 66.4765 232.055Z" fill="#263238"/>
<path opacity="0.2" d="M61.5106 225.954L66.9826 228.717L69.0415 224.025L63.1454 221.111L61.5106 225.954Z" fill="#263238"/>
<path d="M86.2784 127.731C86.2784 127.731 78.9254 133.347 80.4986 150.939C80.649 152.567 81.1826 154.27 81.1826 156.131C81.1826 157.369 80.8406 158.238 80.437 161.022C79.8488 165.071 78.768 180.174 77.6258 182.137C76.4835 184.1 76.0184 183.751 72.8378 189.168C69.4178 194.996 64.9718 205.215 61.5312 222.534C63.8285 224.155 66.4525 225.255 69.2194 225.755C69.2194 225.755 88.0089 196.124 92.0034 185.091C95.5808 175.221 99.8421 143.723 99.8421 143.723L100.184 130.043L86.2784 127.731Z" fill="#096F9F"/>
<path opacity="0.1" d="M94.3221 150.939H89.0006C89.0006 150.939 87.2496 167.684 93.0362 181.651C93.6381 179.407 94.2469 176.719 94.842 173.812L97.1471 159.065C96.8187 156.576 96.5657 154.674 96.5246 154.551C96.4083 154.161 94.3221 150.939 94.3221 150.939Z" fill="black"/>
<path d="M93.4467 225.174L93.4809 235.906L99.5343 235.502L100.465 225.174H93.4467Z" fill="#B97964"/>
<path d="M100.232 235.318C100.202 235.314 100.173 235.301 100.151 235.28C100.129 235.259 100.114 235.231 100.109 235.201C100.102 235.171 100.105 235.14 100.117 235.111C100.129 235.083 100.15 235.059 100.177 235.044C100.273 234.989 102.414 233.676 103.474 233.909C103.672 233.953 103.845 234.07 103.96 234.237C104.03 234.329 104.072 234.441 104.078 234.557C104.084 234.673 104.055 234.788 103.994 234.887C103.468 235.281 102.817 235.473 102.161 235.427C101.516 235.449 100.87 235.412 100.232 235.318ZM100.711 235.106C101.88 235.208 103.447 235.14 103.741 234.723C103.782 234.668 103.816 234.579 103.7 234.394C103.668 234.34 103.624 234.295 103.572 234.26C103.52 234.226 103.461 234.204 103.399 234.196C103.306 234.182 103.211 234.182 103.118 234.196C102.264 234.339 101.446 234.648 100.711 235.106Z" fill="#096F9F"/>
<path d="M100.15 235.318C100.127 235.303 100.108 235.283 100.095 235.259C100.082 235.235 100.075 235.208 100.075 235.181C100.075 235.106 100.191 233.402 100.964 232.718C101.074 232.617 101.204 232.54 101.345 232.49C101.486 232.441 101.635 232.421 101.785 232.431C102.195 232.431 102.332 232.664 102.352 232.835C102.51 233.519 101.053 234.948 100.3 235.311C100.28 235.318 100.259 235.318 100.239 235.311C100.211 235.323 100.179 235.326 100.15 235.318ZM101.696 232.718C101.507 232.722 101.327 232.795 101.19 232.924C100.738 233.481 100.471 234.164 100.423 234.88C101.183 234.394 102.133 233.293 102.079 232.869C102.079 232.828 102.045 232.718 101.778 232.705H101.696V232.718Z" fill="#096F9F"/>
<path d="M99.5616 234.463L92.7216 234.709C92.5967 234.714 92.4774 234.762 92.383 234.844C92.2887 234.926 92.2248 235.037 92.2018 235.16L91.1621 240.783C91.1159 241.021 91.1664 241.268 91.3023 241.47C91.4383 241.671 91.6486 241.81 91.8871 241.857C91.9531 241.863 92.0195 241.863 92.0855 241.857C94.5547 241.72 96.7435 241.508 99.8215 241.405C103.454 241.275 102.558 241.74 106.819 241.651C109.398 241.59 109.76 238.649 108.666 238.546C103.652 238.095 103.077 236.604 101.087 234.887C100.649 234.561 100.105 234.41 99.5616 234.463Z" fill="#263238"/>
<path opacity="0.2" d="M93.4672 230.728L99.9789 230.591L100.465 225.174H93.4467L93.4672 230.728Z" fill="#263238"/>
<path d="M90.3755 125.782C90.3755 125.782 83.0362 135.502 88.474 154.51L94.63 182.273C94.63 182.273 88.7886 194.9 91.894 228.211C94.9039 228.634 97.9625 228.564 100.95 228.006C100.95 228.006 107.79 192.828 108.823 180.946C109.965 167.855 109.281 128.395 109.281 128.395L90.3755 125.782Z" fill="#096F9F"/>
<path d="M94.8078 94.2768C94.8078 94.2768 93.6724 89.4204 100.964 91.5408C108.255 93.6612 107.64 97.8131 107.64 97.8131L94.8078 94.2768Z" fill="#263238"/>
<path opacity="0.4" d="M94.8078 94.2768C94.8078 94.2768 93.6724 89.4204 100.964 91.5408C108.255 93.6612 107.64 97.8131 107.64 97.8131L94.8078 94.2768Z" fill="black"/>
<path d="M112.893 106.425C112.893 108.128 112.209 110.59 111.525 113.347C111.21 114.653 110.923 116.014 110.731 117.396C109.698 124.92 109.363 132.848 109.363 132.848C105.338 133.726 101.175 133.765 97.1341 132.964C93.093 132.162 89.2603 130.537 85.8748 128.19C85.8748 128.19 88.7407 125.761 88.1525 108.942C87.8857 101.363 85.1497 92.3548 97.6738 93.7707C108.248 94.9677 111.805 98.2509 112.66 103.388C112.66 103.449 112.66 103.518 112.66 103.586L112.722 104.065C112.825 104.847 112.882 105.635 112.893 106.425Z" fill="#263238"/>
<path opacity="0.4" d="M112.893 106.425C112.893 108.128 112.209 110.59 111.525 113.347C108.666 109.927 105.8 103.463 105.8 103.463L108.159 99.9882L112.318 101.924C112.462 102.404 112.576 102.893 112.66 103.388C112.66 103.449 112.66 103.518 112.66 103.586L112.722 104.065C112.825 104.847 112.882 105.635 112.893 106.425Z" fill="black"/>
<path d="M117.25 103.456C117.25 103.456 121.354 107.505 122.975 109.133L137.161 104.879C137.254 104.145 137.564 103.457 138.052 102.901C138.539 102.345 139.182 101.948 139.897 101.76L140.896 101.5L143.03 100.912C143.427 100.804 143.846 100.802 144.245 100.907C144.643 101.011 145.007 101.218 145.301 101.507C145.645 101.846 145.875 102.283 145.961 102.758C146.047 103.233 145.983 103.723 145.78 104.161C145.357 105.07 144.707 105.854 143.892 106.438C143.077 107.022 142.125 107.385 141.128 107.492L139.117 107.704C139.117 107.704 126.457 114.619 122.38 114.236C118.303 113.853 112.948 108.949 112.948 108.949L117.25 103.456Z" fill="#B97964"/>
<path d="M107.058 96.0894C110.56 96.6024 114.138 99.3863 119.692 104.297C118.376 107.044 116.347 109.388 113.816 111.083C113.816 111.083 110.581 109.667 106.723 104.763C102.058 98.8254 104.938 95.7748 107.058 96.0894Z" fill="#263238"/>
</svg>
