<svg width="343" height="256" viewBox="0 0 343 256" fill="none" xmlns="http://www.w3.org/2000/svg">
<path d="M69.3992 186.426C80.4047 192.021 102.58 191.898 114.27 185.366C129.188 176.994 127.129 164.846 137.526 155.236C165.693 129.285 198.552 137.452 232.061 140.482C306.344 147.172 342.185 64.6469 265.967 31.5071C220.139 11.5822 128.531 7.44398 127.471 82.1778C127.012 114.483 142.97 114.073 107.423 127.459C93.4281 132.739 19.5356 161.098 69.3992 186.426Z" fill="#096F9F"/>
<path opacity="0.9" d="M69.3992 186.426C80.4047 192.021 102.58 191.898 114.27 185.366C129.188 176.994 127.129 164.846 137.526 155.236C165.693 129.285 198.552 137.452 232.061 140.482C306.344 147.172 342.185 64.6469 265.967 31.5071C220.139 11.5822 128.531 7.44398 127.471 82.1778C127.012 114.483 142.97 114.073 107.423 127.459C93.4281 132.739 19.5356 161.098 69.3992 186.426Z" fill="white"/>
<path d="M171.924 255.681C245.168 255.681 304.545 252.215 304.545 247.938C304.545 243.662 245.168 240.195 171.924 240.195C98.6793 240.195 39.303 243.662 39.303 247.938C39.303 252.215 98.6793 255.681 171.924 255.681Z" fill="#F5F5F5"/>
<path d="M200.166 60.8712C200.075 60.8767 199.986 60.8458 199.918 60.7856C199.85 60.7253 199.809 60.6404 199.804 60.5497C199.798 60.459 199.829 60.3699 199.889 60.3019C199.95 60.2339 200.034 60.1927 200.125 60.1872L211.705 58.744C211.796 58.7331 211.887 58.7587 211.959 58.8151C212.031 58.8716 212.077 58.9542 212.088 59.0449C212.099 59.1356 212.074 59.2269 212.017 59.2988C211.961 59.3706 211.878 59.4171 211.787 59.428L200.214 60.8712H200.166Z" fill="#096F9F"/>
<path d="M211.705 63.1421H211.65L200.152 61.179C200.107 61.1714 200.065 61.155 200.026 61.1307C199.987 61.1065 199.954 61.0749 199.928 61.0377C199.901 61.0006 199.882 60.9586 199.872 60.9142C199.862 60.8698 199.861 60.8238 199.869 60.7789C199.876 60.734 199.893 60.691 199.917 60.6524C199.941 60.6139 199.973 60.5804 200.01 60.5541C200.047 60.5277 200.089 60.5089 200.133 60.4988C200.178 60.4887 200.224 60.4874 200.269 60.495L211.767 62.4649C211.857 62.4731 211.941 62.517 212 62.5869C212.058 62.6568 212.086 62.747 212.078 62.8377C212.07 62.9284 212.026 63.0122 211.956 63.0705C211.886 63.1289 211.796 63.1571 211.705 63.1489V63.1421Z" fill="#096F9F"/>
<path d="M185.392 44.4005C181.404 42.9162 175.303 52.4375 177.868 62.5265C182.238 58.8739 188.292 58.0736 190.549 59.5579C193.819 61.7125 191.055 61.6099 192.745 66.1722C194.434 70.7345 209.038 69.859 203.374 59.6742C211.945 42.3074 188.148 34.0994 185.392 44.4005Z" fill="#263238"/>
<path d="M157.444 81.9384L158.976 83.2449C159.261 83.4856 159.484 83.7916 159.626 84.1369C159.767 84.4823 159.824 84.8567 159.79 85.2285L159.482 88.7579C159.423 89.4519 159.199 90.1216 158.827 90.7108C158.456 91.3 157.949 91.7914 157.348 92.1437L156.589 92.5883C153.9 90.5979 152.485 86.4323 152.485 86.4323L151.944 85.2969C151.827 85.0674 151.757 84.8172 151.737 84.5606C151.717 84.3039 151.748 84.0459 151.828 83.8013C151.909 83.5566 152.036 83.3302 152.204 83.1349C152.372 82.9397 152.576 82.7795 152.806 82.6635L155.043 81.5622C155.437 81.3877 155.873 81.3304 156.298 81.3971C156.724 81.4638 157.122 81.6517 157.444 81.9384Z" fill="#B55B52"/>
<path d="M181.124 87.0342C180.912 87.5746 180.754 87.9508 180.57 88.4022C180.385 88.8536 180.193 89.2298 180.009 89.6334C179.626 90.4474 179.208 91.234 178.791 92.0206C177.936 93.5869 177 95.1074 175.987 96.576C175.481 97.3147 174.947 98.0398 174.407 98.758C173.866 99.4762 173.285 100.167 172.676 100.851C171.477 102.238 170.183 103.54 168.805 104.75L168.62 104.921C168.456 105.071 168.277 105.204 168.087 105.318C167.29 105.787 166.405 106.087 165.487 106.2C164.5 106.319 163.498 106.2 162.567 105.851C161.308 105.348 160.204 104.522 159.366 103.457C158.788 102.744 158.292 101.969 157.888 101.145C157.535 100.436 157.222 99.7076 156.951 98.9632C156.461 97.586 156.07 96.1757 155.781 94.7429C155.493 93.3439 155.299 91.9271 155.2 90.5021C155.162 89.9537 155.314 89.409 155.63 88.959C155.945 88.5089 156.406 88.1809 156.934 88.0295C157.463 87.8782 158.027 87.9128 158.533 88.1275C159.039 88.3423 159.456 88.7241 159.714 89.2093L159.783 89.3324C160.364 90.42 160.952 91.6033 161.554 92.6977C162.156 93.7921 162.772 94.8728 163.415 95.8373C163.711 96.2936 164.031 96.7342 164.372 97.1574C164.633 97.4874 164.929 97.7878 165.255 98.0534C165.48 98.2381 165.672 98.1902 165.255 97.9577C164.951 97.8262 164.62 97.7721 164.29 97.8004C164.033 97.8223 163.781 97.8871 163.545 97.9919L162.82 98.5528C163.777 97.4584 164.714 96.3434 165.556 95.1328C166.397 93.9221 167.259 92.6909 168.039 91.3981C168.818 90.1054 169.578 88.8058 170.282 87.4651C170.631 86.7811 170.966 86.0971 171.308 85.4473L171.787 84.4418L172.218 83.5253L172.327 83.2859C172.868 82.1875 173.81 81.3382 174.958 80.9125C176.106 80.4867 177.373 80.517 178.499 80.997C179.626 81.4769 180.526 82.3702 181.014 83.4931C181.502 84.616 181.541 85.8832 181.124 87.0342Z" fill="#B55B52"/>
<path d="M220.269 228.061C221.329 223.273 221.062 222.138 221.924 219.511C222.373 218.019 223.022 216.595 223.853 215.277C224.605 213.875 223.169 212.76 221.746 212.582C220.631 212.439 219.455 212.391 218.087 212.172L215.132 217.678C216.692 219.662 217.936 224.518 217.389 228.198C216.999 230.859 219.845 229.99 220.269 228.061Z" fill="#263238"/>
<path d="M172.642 113.984C172.642 113.984 171.855 154.525 171.028 176.987C168.853 190.284 214.564 217.959 214.564 217.959C215.542 218.424 218.128 213.355 218.087 212.172C218.087 212.172 198.436 183.218 186.719 176.228C199.681 140.352 196.158 113.984 196.158 113.984H172.642Z" fill="#096F9F"/>
<path opacity="0.2" d="M196.158 113.984H181.322C181.322 113.984 184.29 153.615 187.594 173.738C199.516 139.141 196.158 113.984 196.158 113.984Z" fill="black"/>
<path opacity="0.2" d="M205.33 194.976C199.701 187.952 193.189 180.612 187.957 177.028C188.702 183.978 189.468 192.363 190.057 200.968C194.975 204.86 200.077 208.492 204.345 211.372C205.053 205.936 205.382 200.458 205.33 194.976Z" fill="black"/>
<path d="M211.691 216.953C212.293 217.384 213.347 218.15 214.113 218.745C214.234 218.84 214.387 218.883 214.54 218.865C214.692 218.847 214.831 218.77 214.927 218.65C216.396 216.631 217.676 214.481 218.75 212.227C218.807 212.115 218.826 211.989 218.805 211.865C218.784 211.742 218.724 211.629 218.634 211.543L216.719 209.641C216.658 209.58 216.584 209.533 216.503 209.504C216.422 209.475 216.336 209.465 216.25 209.473C216.164 209.482 216.081 209.509 216.007 209.554C215.934 209.598 215.87 209.658 215.823 209.73L211.555 216.146C211.51 216.208 211.478 216.278 211.461 216.352C211.444 216.426 211.441 216.503 211.454 216.578C211.467 216.653 211.494 216.725 211.535 216.79C211.576 216.854 211.629 216.91 211.691 216.953Z" fill="#096F9F"/>
<path opacity="0.3" d="M211.691 216.953C212.293 217.384 213.347 218.15 214.113 218.745C214.234 218.84 214.387 218.883 214.54 218.865C214.692 218.847 214.831 218.77 214.927 218.65C216.396 216.631 217.676 214.481 218.75 212.227C218.807 212.115 218.826 211.989 218.805 211.865C218.784 211.742 218.724 211.629 218.634 211.543L216.719 209.641C216.658 209.58 216.584 209.533 216.503 209.504C216.422 209.475 216.336 209.465 216.25 209.473C216.164 209.482 216.081 209.509 216.007 209.554C215.934 209.598 215.87 209.658 215.823 209.73L211.555 216.146C211.51 216.208 211.478 216.278 211.461 216.352C211.444 216.426 211.441 216.503 211.454 216.578C211.467 216.653 211.494 216.725 211.535 216.79C211.576 216.854 211.629 216.91 211.691 216.953Z" fill="white"/>
<path d="M189.66 251.242C194.66 251.242 194.304 251.167 197.122 251.071C199.537 250.989 200.084 251.283 202.02 251.242C203.634 251.208 203.716 249.662 203.388 247.884C203.224 246.994 202.936 245.9 202.704 244.464H195.111C194.424 245.528 193.505 246.425 192.424 247.087C191.343 247.748 190.127 248.159 188.866 248.287C186.151 248.643 187.656 251.242 189.66 251.242Z" fill="#263238"/>
<path d="M179.694 113.984C179.694 113.984 187.546 157.213 190.426 176.809C193.442 197.384 197.17 230.784 195.118 244.457C196.226 245.141 200.344 245.175 202.711 244.457C202.711 244.457 214.715 197.528 204.687 177.719C210.392 129.565 201.951 127.055 199.626 113.984H179.694Z" fill="#096F9F"/>
<path d="M194.804 241.618C194.7 242.565 194.526 243.502 194.284 244.423C194.26 244.496 194.253 244.574 194.262 244.65C194.272 244.727 194.298 244.8 194.339 244.865C194.38 244.931 194.435 244.986 194.5 245.028C194.565 245.069 194.638 245.096 194.715 245.107C197.451 245.551 201.555 244.908 202.834 244.683C202.955 244.656 203.067 244.597 203.158 244.511C203.248 244.426 203.314 244.317 203.347 244.197L203.997 241.57C204.022 241.49 204.027 241.404 204.013 241.32C203.998 241.237 203.963 241.158 203.911 241.091C203.86 241.024 203.793 240.97 203.716 240.935C203.639 240.899 203.554 240.882 203.47 240.886L195.426 241.044C195.273 241.056 195.128 241.119 195.015 241.223C194.902 241.327 194.828 241.466 194.804 241.618Z" fill="#096F9F"/>
<path opacity="0.3" d="M194.804 241.618C194.7 242.565 194.526 243.502 194.284 244.423C194.26 244.496 194.253 244.574 194.262 244.65C194.272 244.727 194.298 244.8 194.339 244.865C194.38 244.931 194.435 244.986 194.5 245.028C194.565 245.069 194.638 245.096 194.715 245.107C197.451 245.551 201.555 244.908 202.834 244.683C202.955 244.656 203.067 244.597 203.158 244.511C203.248 244.426 203.314 244.317 203.347 244.197L203.997 241.57C204.022 241.49 204.027 241.404 204.013 241.32C203.998 241.237 203.963 241.158 203.911 241.091C203.86 241.024 203.793 240.97 203.716 240.935C203.639 240.899 203.554 240.882 203.47 240.886L195.426 241.044C195.273 241.056 195.128 241.119 195.015 241.223C194.902 241.327 194.828 241.466 194.804 241.618Z" fill="white"/>
<path d="M179.003 76.0902C174.024 77.0273 172.97 79.0656 169.304 86.6307C170.412 91.6033 176.363 95.9741 176.363 95.9741C176.363 95.9741 187.218 82.554 179.003 76.0902Z" fill="#263238"/>
<path d="M171.11 85.5431C171.028 88.197 171.288 91.405 171.883 97.7183C172.286 103.067 170.952 113.238 172.642 113.984H199.626C200.166 106.323 199.968 101.049 204.817 83.9426C205.108 83.0465 205.194 82.0966 205.069 81.1628C204.944 80.229 204.611 79.3353 204.094 78.5475C203.578 77.7597 202.891 77.0979 202.084 76.6111C201.278 76.1242 200.372 75.8247 199.434 75.7346C198.36 75.6251 197.232 75.5362 196.062 75.4815C191.984 75.1871 187.89 75.1871 183.812 75.4815C182.478 75.5978 181.076 75.7688 179.776 75.9534C177.443 76.2972 175.302 77.4422 173.721 79.192C172.139 80.9417 171.216 83.1872 171.11 85.5431Z" fill="#263238"/>
<path d="M195.18 61.7262C194.113 65.6729 192.8 72.8959 195.365 75.5293C195.365 75.5293 191.63 74.9684 183.702 79.8727C181.404 76.5758 183.107 75.5293 183.107 75.5293C187.587 74.476 187.717 71.2133 187.177 68.149L195.18 61.7262Z" fill="#B55B52"/>
<path d="M185.392 78.8604C188.005 79.2366 188.812 83.1764 188.812 83.1764C188.812 83.1764 195.084 78.7441 197.068 75.6114C196.278 75.1672 195.513 74.6809 194.776 74.1545C194.776 74.1545 186.917 77.3556 185.392 78.8604Z" fill="white"/>
<path d="M182.909 78.4432C182.909 78.4432 180.857 78.8878 179.797 81.7743C179.202 76.0218 181.931 75.4951 181.931 75.4951C182.648 75.092 183.489 74.9701 184.291 75.1531C183.714 75.4559 183.261 75.9498 183.009 76.55C182.757 77.1503 182.721 77.8197 182.909 78.4432Z" fill="white"/>
<path opacity="0.2" d="M191.944 64.3323L187.204 68.1285C187.341 68.8457 187.414 69.5735 187.423 70.3036C189.12 70.0574 191.568 68.2516 191.876 66.4595C192.024 65.7601 192.048 65.0398 191.944 64.3323Z" fill="black"/>
<path d="M200.474 56.4663C198.155 62.5128 197.3 65.1189 193.176 67.465C186.972 70.9944 180.022 67.253 180.487 60.7344C180.905 54.8726 184.639 45.9737 191.473 45.0914C192.933 44.8499 194.432 45.004 195.813 45.5377C197.194 46.0713 198.407 46.9651 199.325 48.1261C200.244 49.287 200.835 50.6729 201.037 52.1395C201.239 53.6062 201.045 55.1002 200.474 56.4663Z" fill="#B55B52"/>
<path d="M185.392 45.2349C185.884 48.4839 195.898 51.6851 197.799 51.2952C195.405 53.4224 197.04 62.8274 202.129 59.9409C203.463 48.9559 197.047 39.1952 185.392 45.2349Z" fill="#263238"/>
<path opacity="0.2" d="M191.76 55.9259C192.588 55.6869 193.477 55.7827 194.236 56.1926C193.401 56.2692 192.559 56.1785 191.76 55.9259Z" fill="black"/>
<path opacity="0.2" d="M191.712 56.521C192.1 56.4921 192.489 56.5482 192.853 56.6852C193.217 56.8223 193.546 57.037 193.819 57.3144C193.067 57.2059 192.348 56.9352 191.712 56.521Z" fill="black"/>
<path d="M190.392 55.6933C190.221 56.2063 189.81 56.5551 189.475 56.4662C189.14 56.3773 189.01 55.8917 189.181 55.3787C189.352 54.8657 189.769 54.51 190.104 54.5989C190.44 54.6878 190.542 55.1735 190.392 55.6933Z" fill="#263238"/>
<path d="M184.037 54.1407C183.866 54.6605 183.456 55.0025 183.121 54.9204C182.786 54.8383 182.656 54.339 182.827 53.826C182.998 53.313 183.415 52.9642 183.75 53.0531C184.085 53.142 184.236 53.6277 184.037 54.1407Z" fill="#263238"/>
<path d="M183.887 53.1147L182.779 52.4307C182.779 52.4307 183.08 53.5729 183.887 53.1147Z" fill="#263238"/>
<path d="M185.508 55.4471C184.654 56.5057 183.671 57.4525 182.58 58.2652C182.786 58.5215 183.046 58.7283 183.342 58.8704C183.638 59.0125 183.962 59.0862 184.29 59.086L185.508 55.4471Z" fill="#A02724"/>
<path d="M186.596 61.7604C186.298 61.7319 186.003 61.6816 185.713 61.6099C185.693 61.6054 185.674 61.5966 185.658 61.5841C185.641 61.5716 185.628 61.5558 185.618 61.5376C185.608 61.5194 185.603 61.4994 185.601 61.4788C185.6 61.4583 185.603 61.4377 185.611 61.4184C185.623 61.3778 185.651 61.3434 185.687 61.3219C185.724 61.3004 185.767 61.2934 185.809 61.3021C186.463 61.4769 187.149 61.5018 187.815 61.3751C188.48 61.2484 189.108 60.9733 189.653 60.5702C189.668 60.5551 189.685 60.5431 189.705 60.5349C189.724 60.5267 189.745 60.5225 189.766 60.5225C189.787 60.5225 189.808 60.5267 189.827 60.5349C189.847 60.5431 189.864 60.5551 189.879 60.5702C189.908 60.6007 189.924 60.6411 189.924 60.6831C189.924 60.7251 189.908 60.7655 189.879 60.796C188.941 61.5109 187.771 61.8543 186.596 61.7604Z" fill="#263238"/>
<path d="M200.501 61.6373C200.149 62.1467 199.693 62.5767 199.164 62.8995C198.635 63.2222 198.044 63.4307 197.43 63.5115C195.905 63.6414 195.563 61.8562 196.336 60.2693C197.02 58.8397 198.675 57.0545 200.036 57.6633C201.397 58.272 201.493 60.2966 200.501 61.6373Z" fill="#B55B52"/>
<path d="M192.512 53.0599C192.473 53.0449 192.436 53.022 192.406 52.9926C192.375 52.9632 192.351 52.928 192.334 52.8889C192.205 52.5264 191.988 52.2013 191.702 51.9425C191.417 51.6836 191.073 51.4989 190.7 51.4047C190.66 51.3994 190.621 51.3855 190.587 51.364C190.553 51.3425 190.524 51.3139 190.502 51.2801C190.48 51.2464 190.465 51.2082 190.459 51.1684C190.453 51.1285 190.456 51.0877 190.467 51.049C190.488 50.9654 190.54 50.8929 190.612 50.846C190.685 50.7991 190.772 50.7812 190.857 50.7959C191.331 50.9068 191.771 51.1344 192.135 51.4581C192.499 51.7818 192.777 52.1913 192.943 52.6495C192.969 52.7294 192.963 52.8163 192.926 52.8918C192.889 52.9672 192.824 53.0251 192.745 53.0531C192.67 53.0825 192.588 53.0849 192.512 53.0599Z" fill="#263238"/>
<path d="M182.943 50.7207C182.905 50.7134 182.868 50.698 182.837 50.6756C182.805 50.6532 182.778 50.6243 182.758 50.5907C182.738 50.5553 182.724 50.5162 182.719 50.4756C182.714 50.435 182.717 50.3937 182.727 50.3542C182.738 50.3147 182.757 50.2778 182.782 50.2456C182.807 50.2134 182.839 50.1865 182.875 50.1666C183.304 49.8875 183.792 49.7103 184.301 49.6486C184.809 49.587 185.325 49.6425 185.809 49.811C185.846 49.8276 185.879 49.8518 185.907 49.882C185.934 49.9121 185.954 49.9476 185.967 49.9862C185.98 50.0247 185.985 50.0655 185.981 50.106C185.977 50.1465 185.965 50.1858 185.946 50.2214C185.906 50.2963 185.84 50.3539 185.761 50.383C185.681 50.412 185.593 50.4105 185.515 50.3787C185.131 50.251 184.723 50.2117 184.321 50.2638C183.92 50.3159 183.535 50.4581 183.196 50.6796C183.121 50.7263 183.029 50.7411 182.943 50.7207Z" fill="#263238"/>
<path d="M190.214 54.6673L189.106 53.9833C189.106 53.9833 189.407 55.1188 190.214 54.6673Z" fill="#263238"/>
<path d="M207.41 82.7113C207.649 83.238 207.813 83.6142 207.998 84.0451C208.183 84.476 208.333 84.8864 208.497 85.3105C208.819 86.145 209.092 86.9931 209.366 87.8413C209.901 89.5444 210.344 91.2752 210.693 93.026C210.878 93.9015 211.021 94.7908 211.165 95.6731C211.308 96.5555 211.404 97.4652 211.473 98.3681C211.634 100.187 211.672 102.016 211.589 103.84V104.134C211.582 104.365 211.552 104.594 211.5 104.818C211.285 105.717 210.887 106.563 210.33 107.301C209.732 108.098 208.948 108.737 208.046 109.162C206.812 109.718 205.452 109.937 204.106 109.798C203.192 109.719 202.29 109.535 201.418 109.251C200.661 109.015 199.919 108.737 199.195 108.416C197.865 107.812 196.58 107.113 195.351 106.323C194.143 105.556 192.987 104.711 191.89 103.792C191.468 103.438 191.182 102.95 191.077 102.41C190.973 101.87 191.057 101.31 191.315 100.825C191.574 100.339 191.992 99.9574 192.499 99.743C193.005 99.5286 193.57 99.4948 194.099 99.6471L194.236 99.6882C195.426 100.023 196.685 100.42 197.888 100.748C199.092 101.077 200.296 101.385 201.438 101.59C202.006 101.692 202.553 101.781 203.053 101.822C203.471 101.865 203.893 101.865 204.311 101.822C204.598 101.822 204.694 101.617 204.243 101.761C203.935 101.88 203.665 102.081 203.463 102.342C203.295 102.545 203.165 102.777 203.08 103.026L202.977 103.936C202.861 102.486 202.704 101.036 202.444 99.5719C202.184 98.1081 201.869 96.6512 201.486 95.1943C201.103 93.7374 200.686 92.2873 200.207 90.8509C199.975 90.1669 199.721 89.4145 199.468 88.71L199.085 87.6635L198.723 86.7195L198.627 86.4733C198.27 85.3357 198.35 84.1059 198.852 83.0244C199.354 81.9429 200.241 81.0875 201.34 80.6256C202.44 80.1637 203.672 80.1285 204.795 80.5269C205.919 80.9253 206.854 81.7286 207.416 82.7797L207.41 82.7113Z" fill="#B55B52"/>
<path d="M199.681 75.7961C204.079 76.4801 205.837 77.807 209.428 86.6375C207.8 89.9275 200.166 93.0808 200.166 93.0808C200.166 93.0808 194.188 82.2462 199.681 75.7961Z" fill="#263238"/>
<path d="M151.404 164.723L150.234 159.743C147.293 147.192 150.822 134.511 154.236 122.253C157.204 111.61 160.002 101.562 157.977 92.9508L159.53 92.5883C161.643 101.597 158.791 111.836 155.768 122.684C152.409 134.75 148.928 147.226 151.787 159.381L152.957 164.36L151.404 164.723Z" fill="#096F9F"/>
<path d="M149.722 92.2555C151.872 65.3577 131.81 41.8098 104.912 39.6598C78.0142 37.5099 54.4663 57.572 52.3163 84.4698C50.1664 111.368 70.2284 134.915 97.1262 137.065C124.024 139.215 147.572 119.153 149.722 92.2555Z" fill="#096F9F"/>
<path opacity="0.2" d="M149.722 92.2555C151.872 65.3577 131.81 41.8098 104.912 39.6598C78.0142 37.5099 54.4663 57.572 52.3163 84.4698C50.1664 111.368 70.2284 134.915 97.1262 137.065C124.024 139.215 147.572 119.153 149.722 92.2555Z" fill="black"/>
<path d="M106.315 127.972C102.013 127.971 97.7982 126.758 94.1544 124.471C90.5105 122.185 87.5848 118.918 85.7128 115.045C83.8408 111.171 83.0983 106.849 83.5704 102.573C84.0425 98.2975 85.7101 94.2413 88.3819 90.8699C91.0538 87.4984 94.6218 84.9483 98.6767 83.5119C102.732 82.0755 107.109 81.8109 111.308 82.7486C115.506 83.6863 119.355 85.7883 122.413 88.8135C125.472 91.8386 127.616 95.6645 128.599 99.8524C129.384 103.211 129.4 106.704 128.646 110.07C127.893 113.436 126.388 116.589 124.246 119.292C122.103 121.996 119.378 124.18 116.273 125.683C113.168 127.186 109.764 127.968 106.315 127.972ZM106.315 83.7784C101.892 83.7783 97.5786 85.155 93.9738 87.7174C90.369 90.2798 87.6512 93.9009 86.1976 98.078C84.7441 102.255 84.6269 106.781 85.8623 111.028C87.0977 115.274 89.6245 119.031 93.0919 121.777C96.5593 124.522 100.795 126.121 105.212 126.349C109.629 126.578 114.008 125.426 117.74 123.054C121.473 120.681 124.374 117.206 126.042 113.109C127.709 109.013 128.061 104.499 127.047 100.194C125.94 95.5253 123.293 91.3654 119.531 88.3867C115.769 85.408 111.113 83.7845 106.315 83.7784Z" fill="white"/>
<path d="M102.477 46.2268L119.317 117.999C119.883 120.405 121.381 122.488 123.482 123.79C125.583 125.091 128.115 125.506 130.521 124.941L179.386 113.478C181.334 113.015 183.083 111.939 184.375 110.409C185.666 108.878 186.433 106.974 186.561 104.976C187.213 95.0422 185.627 85.0892 181.919 75.8508C178.211 66.6123 172.477 58.324 165.139 51.5972C157.801 44.8703 149.047 39.8766 139.521 36.9844C129.996 34.0921 119.943 33.375 110.104 34.886C108.837 35.0855 107.624 35.5443 106.542 36.2338C105.461 36.9232 104.533 37.8285 103.817 38.893C103.101 39.9575 102.613 41.1582 102.382 42.4201C102.152 43.682 102.184 44.9779 102.477 46.2268Z" fill="#096F9F"/>
<path opacity="0.4" d="M102.477 46.2268L119.317 117.999C119.883 120.405 121.381 122.488 123.482 123.79C125.583 125.091 128.115 125.506 130.521 124.941L179.386 113.478C181.334 113.015 183.083 111.939 184.375 110.409C185.666 108.878 186.433 106.974 186.561 104.976C187.213 95.0422 185.627 85.0892 181.919 75.8508C178.211 66.6123 172.477 58.324 165.139 51.5972C157.801 44.8703 149.047 39.8766 139.521 36.9844C129.996 34.0921 119.943 33.375 110.104 34.886C108.837 35.0855 107.624 35.5443 106.542 36.2338C105.461 36.9232 104.533 37.8285 103.817 38.893C103.101 39.9575 102.613 41.1582 102.382 42.4201C102.152 43.682 102.184 44.9779 102.477 46.2268Z" fill="white"/>
<path d="M163.791 176.638L117.614 187.439C117.055 187.567 116.468 187.496 115.956 187.238C115.444 186.979 115.038 186.549 114.81 186.023L110.706 176.501C110.566 176.174 110.499 175.819 110.51 175.463C110.522 175.106 110.611 174.757 110.772 174.439C110.933 174.12 111.162 173.841 111.442 173.621C111.723 173.401 112.048 173.245 112.395 173.163L162.102 161.494C162.449 161.414 162.811 161.411 163.16 161.485C163.509 161.559 163.838 161.708 164.123 161.922C164.409 162.137 164.644 162.411 164.812 162.726C164.98 163.041 165.078 163.388 165.098 163.745L165.665 174.094C165.702 174.671 165.535 175.242 165.192 175.708C164.849 176.173 164.353 176.503 163.791 176.638Z" fill="#096F9F"/>
<path d="M160.439 184.162L123.962 192.726C123.392 192.857 122.794 192.781 122.276 192.51C121.758 192.239 121.354 191.791 121.137 191.248L117.833 182.986C117.703 182.659 117.644 182.309 117.662 181.958C117.679 181.607 117.773 181.264 117.935 180.952C118.097 180.64 118.325 180.367 118.603 180.152C118.88 179.936 119.201 179.783 119.543 179.703L158.606 170.482C158.948 170.401 159.303 170.395 159.647 170.464C159.992 170.533 160.317 170.676 160.601 170.883C160.885 171.089 161.121 171.355 161.292 171.661C161.464 171.967 161.567 172.307 161.595 172.657L162.32 181.549C162.377 182.139 162.218 182.729 161.872 183.21C161.525 183.69 161.017 184.029 160.439 184.162Z" fill="#096F9F"/>
<path d="M156.828 191.146L130.316 197.37C129.734 197.505 129.123 197.422 128.597 197.137C128.072 196.853 127.669 196.386 127.464 195.824L124.851 188.642C124.733 188.318 124.684 187.973 124.709 187.629C124.735 187.285 124.833 186.95 124.997 186.647C125.161 186.344 125.388 186.079 125.662 185.87C125.937 185.661 126.252 185.512 126.588 185.434L154.858 178.8C155.194 178.72 155.544 178.713 155.883 178.778C156.223 178.844 156.544 178.981 156.827 179.18C157.109 179.379 157.347 179.636 157.522 179.934C157.698 180.231 157.809 180.563 157.847 180.906L158.695 188.499C158.764 189.092 158.612 189.691 158.268 190.179C157.923 190.668 157.41 191.012 156.828 191.146Z" fill="#096F9F"/>
<path d="M142.512 96.6102C141.216 91.1153 137.793 86.3587 132.995 83.3838C128.197 80.4089 122.414 79.4587 116.916 80.7414L116.554 79.1956C122.463 77.8144 128.679 78.8342 133.836 82.0312C138.994 85.2283 142.673 90.3412 144.064 96.2477L142.512 96.6102Z" fill="#096F9F"/>
<path opacity="0.2" d="M113.852 42.3895L90.3226 50.4402L89.9738 52.3828L91.9847 53.7644L91.6017 55.8848L93.3117 57.629L93.298 59.5237L116.547 51.562L117.231 49.6536L115.172 47.9299L115.378 45.6727L113.592 44.4484L113.852 42.3895Z" fill="white"/>
<path d="M137.231 120.708C131.386 120.7 125.765 118.459 121.518 114.443C117.272 110.426 114.721 104.938 114.389 99.1022C114.057 93.2664 115.968 87.5244 119.731 83.0519C123.495 78.5793 128.825 75.7147 134.632 75.0444C140.439 74.3741 146.282 75.9489 150.965 79.4464C155.649 82.9439 158.818 88.0994 159.824 93.8574C160.83 99.6153 159.597 105.54 156.378 110.419C153.158 115.297 148.195 118.76 142.505 120.099C140.776 120.504 139.007 120.708 137.231 120.708ZM137.313 76.5075C134.1 76.5065 130.928 77.2313 128.033 78.6278C125.139 80.0242 122.598 82.0563 120.598 84.5723C118.599 87.0883 117.194 90.0232 116.488 93.1582C115.782 96.2932 115.793 99.5471 116.52 102.677C117.158 105.4 118.327 107.97 119.959 110.241C121.591 112.512 123.654 114.439 126.031 115.913C128.408 117.386 131.051 118.377 133.811 118.829C136.571 119.281 139.392 119.185 142.115 118.546C144.838 117.907 147.408 116.739 149.679 115.107C151.95 113.475 153.877 111.412 155.35 109.035C156.824 106.658 157.815 104.015 158.267 101.255C158.719 98.4951 158.623 95.6734 157.984 92.9508C156.882 88.2874 154.24 84.1313 150.487 81.153C146.733 78.1746 142.085 76.5478 137.293 76.5348L137.313 76.5075Z" fill="#096F9F"/>
<path d="M129.646 105.974L144.625 156.713L87.0531 173.718L70.0557 116.145L106.417 105.406L129.646 105.974Z" fill="#096F9F"/>
<path opacity="0.8" d="M129.646 105.974L144.625 156.713L87.0531 173.718L70.0557 116.145L106.417 105.406L129.646 105.974Z" fill="white"/>
<path d="M129.646 105.974L116.759 114.681L106.417 105.406L129.646 105.974Z" fill="#096F9F"/>
<path d="M88.4758 117.561C88.7602 118.548 89.1597 119.499 89.6659 120.393C90.1942 121.288 90.818 122.122 91.5264 122.883C92.956 124.442 94.7002 125.851 96.4033 127.363C98.1456 128.859 99.797 130.458 101.349 132.151C102.128 133.006 102.867 133.895 103.585 134.805C104.304 135.714 104.953 136.569 105.678 137.438C108.49 140.906 111.574 144.189 114.345 147.869C115.753 149.717 117.007 151.677 118.093 153.731C119.179 155.807 120.015 158.004 120.583 160.277C120.662 160.549 120.629 160.841 120.493 161.09C120.356 161.338 120.126 161.522 119.854 161.6C119.582 161.679 119.29 161.647 119.042 161.51C118.793 161.374 118.61 161.144 118.531 160.872C117.096 156.744 114.942 152.902 112.17 149.524C109.434 146.043 106.444 142.684 103.633 139.073C102.949 138.191 102.231 137.247 101.581 136.385C100.931 135.523 100.213 134.675 99.4676 133.861C97.9854 132.227 96.4096 130.681 94.748 129.23C93.0859 127.739 91.328 126.309 89.6864 124.545C88.8619 123.646 88.135 122.662 87.5182 121.61C86.9123 120.531 86.437 119.382 86.1023 118.19C86.0378 117.883 86.0922 117.562 86.2546 117.292C86.417 117.023 86.6754 116.825 86.9778 116.738C87.2802 116.652 87.6042 116.683 87.8846 116.825C88.165 116.968 88.3811 117.211 88.4894 117.506L88.4758 117.561Z" fill="#096F9F"/>
<path d="M143.551 205.134C141.509 205.132 139.508 204.555 137.779 203.469C136.049 202.382 134.661 200.831 133.773 198.991C132.885 197.152 132.533 195.1 132.757 193.07C132.982 191.04 133.774 189.114 135.042 187.514C136.311 185.913 138.005 184.702 139.93 184.02C141.855 183.338 143.934 183.212 145.927 183.657C147.921 184.102 149.748 185.099 151.201 186.535C152.653 187.971 153.672 189.787 154.14 191.775C154.51 193.372 154.516 195.032 154.156 196.631C153.796 198.23 153.079 199.727 152.06 201.011C151.041 202.295 149.746 203.333 148.27 204.046C146.795 204.76 145.177 205.132 143.538 205.134H143.551ZM143.593 184.976C142.872 184.977 142.154 185.06 141.452 185.222C139.664 185.642 138.041 186.582 136.788 187.923C135.535 189.265 134.708 190.948 134.411 192.76C134.115 194.571 134.362 196.43 135.122 198.102C135.882 199.773 137.121 201.181 138.681 202.148C140.242 203.115 142.054 203.598 143.889 203.535C145.723 203.473 147.498 202.867 148.989 201.796C150.48 200.724 151.619 199.235 152.263 197.516C152.907 195.796 153.027 193.925 152.608 192.138C152.129 190.104 150.979 188.291 149.343 186.992C147.708 185.692 145.682 184.982 143.593 184.976Z" fill="#096F9F"/>
<path d="M187.307 96.2067L189.311 96.0151C189.683 95.9798 190.058 96.0333 190.405 96.1713C190.753 96.3092 191.062 96.5276 191.308 96.8086L193.627 99.4762C194.086 100.003 194.412 100.631 194.577 101.31C194.743 101.988 194.743 102.696 194.578 103.375L194.373 104.223C191.069 104.77 187.095 102.93 187.095 102.93L185.905 102.534C185.658 102.459 185.429 102.336 185.231 102.172C185.032 102.008 184.868 101.806 184.748 101.579C184.628 101.351 184.554 101.102 184.531 100.845C184.507 100.589 184.535 100.331 184.612 100.085L185.371 97.7115C185.515 97.3012 185.775 96.9412 186.118 96.6743C186.461 96.4075 186.874 96.2451 187.307 96.2067Z" fill="#B55B52"/>
<path d="M239.83 35.292C240.486 31.2462 237.739 27.4341 233.693 26.7774C229.647 26.1207 225.835 28.868 225.178 32.9138C224.522 36.9596 227.269 40.7717 231.315 41.4284C235.361 42.0851 239.173 39.3378 239.83 35.292Z" fill="white"/>
<path d="M232.499 42.3211C230.876 42.3211 229.289 41.8398 227.939 40.9379C226.589 40.0359 225.537 38.754 224.916 37.2542C224.294 35.7544 224.132 34.104 224.449 32.5119C224.765 30.9197 225.547 29.4571 226.695 28.3092C227.843 27.1613 229.305 26.3796 230.898 26.0629C232.49 25.7462 234.14 25.9087 235.64 26.53C237.14 27.1512 238.422 28.2032 239.324 29.553C240.225 30.9028 240.707 32.4898 240.707 34.1132C240.707 36.29 239.842 38.3778 238.303 39.9171C236.764 41.4564 234.676 42.3211 232.499 42.3211ZM232.499 27.4715C231.188 27.4715 229.907 27.8602 228.817 28.5885C227.727 29.3168 226.877 30.352 226.375 31.5631C225.874 32.7742 225.743 34.1068 225.998 35.3925C226.254 36.6782 226.885 37.8592 227.812 38.7861C228.739 39.7131 229.92 40.3443 231.206 40.6001C232.492 40.8558 233.824 40.7246 235.035 40.2229C236.246 39.7213 237.282 38.8717 238.01 37.7818C238.738 36.6918 239.127 35.4104 239.127 34.0995C239.125 32.3422 238.426 30.6574 237.184 29.4148C235.941 28.1722 234.256 27.4733 232.499 27.4715Z" fill="#096F9F"/>
<path d="M214.859 46.7056C217.159 46.7056 219.024 44.8406 219.024 42.54C219.024 40.2394 217.159 38.3745 214.859 38.3745C212.558 38.3745 210.693 40.2394 210.693 42.54C210.693 44.8406 212.558 46.7056 214.859 46.7056Z" fill="white"/>
<path d="M214.859 47.5059C213.874 47.5099 212.911 47.2212 212.091 46.6765C211.271 46.1318 210.631 45.3557 210.253 44.4466C209.875 43.5376 209.776 42.5368 209.968 41.5712C210.16 40.6057 210.635 39.719 211.332 39.0238C212.029 38.3287 212.917 37.8564 213.883 37.667C214.849 37.4776 215.849 37.5796 216.757 37.9601C217.665 38.3406 218.44 38.9824 218.982 39.804C219.525 40.6255 219.811 41.5898 219.804 42.5742C219.795 43.8818 219.271 45.133 218.345 46.0563C217.419 46.9796 216.166 47.5005 214.859 47.5059ZM214.859 39.1679C214.193 39.1679 213.542 39.3649 212.989 39.7339C212.435 40.103 212.003 40.6276 211.747 41.2418C211.49 41.856 211.422 42.5322 211.549 43.1854C211.676 43.8386 211.994 44.4395 212.462 44.9124C212.93 45.3853 213.528 45.7092 214.18 45.8431C214.832 45.9771 215.509 45.9152 216.126 45.6652C216.742 45.4152 217.271 44.9883 217.646 44.4383C218.02 43.8882 218.224 43.2397 218.231 42.5742C218.237 42.1274 218.154 41.6837 217.988 41.2691C217.821 40.8544 217.574 40.477 217.26 40.1588C216.946 39.8405 216.572 39.5879 216.16 39.4154C215.748 39.243 215.305 39.1542 214.859 39.1542V39.1679Z" fill="#096F9F"/>
<path d="M294.62 41.2746C293.688 37.3047 291.537 33.7262 288.468 31.0413C285.399 28.3564 281.566 26.7001 277.507 26.3047C273.449 25.9093 269.368 26.7948 265.839 28.8369C262.309 30.8789 259.508 33.975 257.827 37.6905C256.247 37.3854 254.615 37.4983 253.092 38.0179C251.569 38.5375 250.208 39.4459 249.144 40.6531C248.079 41.8603 247.349 43.3245 247.025 44.9007C246.7 46.477 246.793 48.1106 247.294 49.64C244.464 52.3036 242.721 55.9202 242.399 59.7928C242.078 63.6655 243.201 67.5201 245.552 70.6139C247.904 73.7077 251.317 75.8218 255.134 76.5488C258.952 77.2758 262.903 76.5642 266.227 74.5512C269.455 76.949 273.48 78.0192 277.473 77.5422C281.466 77.0652 285.125 75.077 287.698 71.9862C288.697 72.1872 289.715 72.288 290.735 72.2872C294.604 72.3377 298.355 70.9607 301.273 68.4193C304.191 65.8779 306.069 62.3505 306.55 58.5112C307.031 54.672 306.08 50.7902 303.879 47.6079C301.678 44.4256 298.382 42.166 294.62 41.261V41.2746Z" fill="white"/>
<path d="M275.611 78.4432C272.239 78.4527 268.946 77.4233 266.179 75.4951C262.7 77.4079 258.649 78.006 254.766 77.1803C250.883 76.3545 247.426 74.16 245.026 70.9971C242.626 67.8343 241.444 63.914 241.694 59.9518C241.945 55.9896 243.612 52.2495 246.391 49.4142C246.157 48.5535 246.038 47.6658 246.035 46.774C246.039 44.1149 247.095 41.5654 248.973 39.6826C250.85 37.7998 253.397 36.7368 256.056 36.726C256.484 36.7265 256.911 36.7539 257.335 36.8081C259.16 33.0799 262.083 29.9999 265.71 27.9824C269.338 25.9649 273.496 25.1067 277.626 25.5231C281.756 25.9395 285.659 27.6106 288.811 30.3117C291.963 33.0127 294.212 36.6142 295.256 40.6317C299.09 41.7325 302.397 44.1808 304.57 47.5259C306.742 50.8711 307.633 54.8883 307.08 58.8384C306.527 62.7885 304.565 66.406 301.557 69.0252C298.549 71.6445 294.696 73.0895 290.707 73.0943C289.791 73.0939 288.876 73.0184 287.971 72.8686C286.423 74.6197 284.521 76.0221 282.39 76.9831C280.259 77.9441 277.949 78.4417 275.611 78.4432ZM266.227 73.7578C266.396 73.7553 266.562 73.8081 266.699 73.9082C269.764 76.1833 273.583 77.2005 277.374 76.7516C281.164 76.3027 284.64 74.4217 287.089 71.4937C287.178 71.3832 287.297 71.2993 287.43 71.2511C287.564 71.2028 287.709 71.1921 287.848 71.2201C288.799 71.4105 289.765 71.5067 290.735 71.5074C294.383 71.5121 297.907 70.1833 300.645 67.7711C303.382 65.3588 305.143 62.0294 305.597 58.4093C306.051 54.7892 305.166 51.1281 303.109 48.1147C301.052 45.1014 297.965 42.9437 294.428 42.0475C294.287 42.011 294.159 41.9371 294.056 41.8335C293.954 41.73 293.882 41.6007 293.847 41.4593C292.95 37.6526 290.884 34.2222 287.939 31.6492C284.994 29.0763 281.317 27.4899 277.424 27.1127C273.532 26.7355 269.618 27.5864 266.234 29.546C262.849 31.5056 260.163 34.4756 258.552 38.0393C258.478 38.2014 258.351 38.3339 258.192 38.4157C258.034 38.4975 257.852 38.5239 257.677 38.4907C257.152 38.3886 256.618 38.3359 256.083 38.3334C253.841 38.337 251.692 39.2298 250.107 40.816C248.522 42.4022 247.631 44.5522 247.629 46.7945C247.632 47.6841 247.772 48.5678 248.046 49.4142C248.092 49.5565 248.097 49.7089 248.061 49.8539C248.025 49.999 247.948 50.131 247.841 50.235C246.384 51.6257 245.225 53.2988 244.436 55.1522C243.647 57.0056 243.244 59.0005 243.251 61.0149C243.254 63.6526 243.954 66.2428 245.28 68.523C246.607 70.8032 248.512 72.6923 250.803 73.9991C253.094 75.3059 255.691 75.9838 258.328 75.9642C260.966 75.9447 263.552 75.2283 265.823 73.8877C265.943 73.808 266.083 73.763 266.227 73.7578Z" fill="#096F9F"/>
<path d="M286.706 47.6358C286.711 50.4227 285.76 53.127 284.011 55.2966C283.03 56.5061 282.239 57.8576 281.665 59.3049C281.432 59.8966 281.028 60.4052 280.504 60.7648C279.979 61.1245 279.359 61.3188 278.724 61.3227H270.174C269.538 61.3203 268.919 61.1273 268.394 60.7688C267.87 60.4103 267.465 59.9027 267.232 59.3117C266.64 57.8367 265.838 56.4546 264.852 55.2077C262.99 52.8532 262.067 49.8925 262.26 46.8971C262.471 43.7343 263.901 40.777 266.25 38.6478C268.598 36.5186 271.681 35.3837 274.849 35.4821C278.017 35.5805 281.024 36.9045 283.235 39.1753C285.447 41.4461 286.691 44.4865 286.706 47.6563V47.6358Z" fill="white"/>
<path d="M278.724 62.1161H270.174C269.379 62.1169 268.602 61.8777 267.946 61.4298C267.289 60.9819 266.783 60.3461 266.494 59.6058C265.932 58.1937 265.167 56.8711 264.223 55.6797C262.707 53.7518 261.766 51.4356 261.507 48.997C261.249 46.5584 261.683 44.0962 262.761 41.8934C263.838 39.6905 265.515 37.8362 267.599 36.5435C269.683 35.2507 272.089 34.5719 274.542 34.5851C276.994 34.5982 279.393 35.3028 281.463 36.6178C283.532 37.9328 285.19 39.805 286.243 42.0193C287.297 44.2336 287.705 46.7002 287.42 49.1359C287.136 51.5716 286.17 53.8777 284.633 55.7891C283.701 56.9387 282.949 58.2233 282.404 59.599C282.115 60.3406 281.61 60.9778 280.953 61.4269C280.296 61.8761 279.519 62.1164 278.724 62.1161ZM274.483 36.1925C274.202 36.1925 273.922 36.1925 273.642 36.1925C271.572 36.3429 269.583 37.0534 267.886 38.2479C266.19 39.4425 264.85 41.076 264.011 42.9735C263.172 44.8711 262.865 46.9612 263.123 49.0199C263.38 51.0786 264.193 53.0285 265.475 54.6605C266.508 55.9754 267.349 57.431 267.971 58.9834C268.144 59.4273 268.447 59.8089 268.84 60.0785C269.232 60.3481 269.697 60.4932 270.174 60.495H278.724C279.201 60.4927 279.666 60.3465 280.059 60.0757C280.452 59.8048 280.754 59.4217 280.926 58.9765C281.533 57.456 282.365 56.0356 283.395 54.7631C285.034 52.7371 285.923 50.2074 285.912 47.6016C285.911 46.0314 285.587 44.4783 284.961 43.0382C284.335 41.5982 283.421 40.3018 282.274 39.2295C280.158 37.2618 277.372 36.1755 274.483 36.1925Z" fill="#096F9F"/>
<path d="M278.176 63.3131H270.769C270.236 63.3131 269.804 63.7449 269.804 64.2775V64.8111C269.804 65.3437 270.236 65.7755 270.769 65.7755H278.176C278.709 65.7755 279.141 65.3437 279.141 64.8111V64.2775C279.141 63.7449 278.709 63.3131 278.176 63.3131Z" fill="#096F9F"/>
<path d="M276.815 66.6237H272.137C271.604 66.6237 271.172 67.0555 271.172 67.5881V68.1216C271.172 68.6543 271.604 69.0861 272.137 69.0861H276.815C277.348 69.0861 277.78 68.6543 277.78 68.1216V67.5881C277.78 67.0555 277.348 66.6237 276.815 66.6237Z" fill="#096F9F"/>
</svg>
