<svg width="17" height="15" viewBox="0 0 17 15" fill="none" xmlns="http://www.w3.org/2000/svg">
<path d="M16.4375 7C16.4381 6.35402 16.2798 5.71781 15.9764 5.14748C15.6731 4.57714 15.2341 4.09019 14.6982 3.72956C14.1622 3.36893 13.5458 3.1457 12.9032 3.07956C12.2606 3.01341 11.6116 3.10637 11.0135 3.35025C10.4153 3.59413 9.8863 3.98144 9.47314 4.47802C9.05999 4.9746 8.77535 5.56521 8.64434 6.19776C8.51332 6.83032 8.53995 7.48539 8.72187 8.10522C8.90378 8.72506 9.23541 9.29062 9.6875 9.75203V13.75C9.68743 13.8459 9.7119 13.9403 9.75858 14.0241C9.80525 14.1079 9.87259 14.1784 9.95418 14.2288C10.0358 14.2793 10.1289 14.308 10.2248 14.3123C10.3206 14.3166 10.4159 14.2964 10.5017 14.2534L12.5 13.2536L14.4983 14.2534C14.5841 14.2964 14.6794 14.3166 14.7753 14.3123C14.8711 14.308 14.9642 14.2793 15.0458 14.2288C15.1274 14.1784 15.1947 14.1079 15.2414 14.0241C15.2881 13.9403 15.3126 13.8459 15.3125 13.75V9.75203C16.0339 9.01775 16.438 8.02939 16.4375 7ZM12.5 4.1875C13.0563 4.1875 13.6 4.35245 14.0625 4.66149C14.5251 4.97053 14.8855 5.40979 15.0984 5.9237C15.3113 6.43762 15.367 7.00312 15.2585 7.54869C15.1499 8.09426 14.8821 8.5954 14.4887 8.98874C14.0954 9.38207 13.5943 9.64994 13.0487 9.75846C12.5031 9.86698 11.9376 9.81128 11.4237 9.59841C10.9098 9.38554 10.4705 9.02505 10.1615 8.56254C9.85245 8.10003 9.6875 7.55626 9.6875 7C9.6875 6.25408 9.98382 5.53871 10.5113 5.01126C11.0387 4.48382 11.7541 4.1875 12.5 4.1875ZM12.7517 12.1216C12.6736 12.0825 12.5874 12.0621 12.5 12.0621C12.4126 12.0621 12.3264 12.0825 12.2483 12.1216L10.8125 12.8402V10.5571C11.3398 10.8076 11.9162 10.9375 12.5 10.9375C13.0838 10.9375 13.6602 10.8076 14.1875 10.5571V12.8402L12.7517 12.1216ZM8.5625 11.5C8.5625 11.6492 8.50324 11.7923 8.39775 11.8977C8.29226 12.0032 8.14919 12.0625 8 12.0625H1.8125C1.51413 12.0625 1.22798 11.944 1.017 11.733C0.806026 11.522 0.6875 11.2359 0.6875 10.9375V1.9375C0.6875 1.63913 0.806026 1.35298 1.017 1.142C1.22798 0.931026 1.51413 0.8125 1.8125 0.8125H14.1875C14.4859 0.8125 14.772 0.931026 14.983 1.142C15.194 1.35298 15.3125 1.63913 15.3125 1.9375C15.3125 2.08668 15.2532 2.22976 15.1477 2.33525C15.0423 2.44074 14.8992 2.5 14.75 2.5C14.6008 2.5 14.4577 2.44074 14.3523 2.33525C14.2468 2.22976 14.1875 2.08668 14.1875 1.9375H1.8125V10.9375H8C8.14919 10.9375 8.29226 10.9968 8.39775 11.1023C8.50324 11.2077 8.5625 11.3508 8.5625 11.5ZM7.4375 7.5625C7.4375 7.71168 7.37824 7.85476 7.27275 7.96025C7.16726 8.06574 7.02419 8.125 6.875 8.125H4.0625C3.91332 8.125 3.77024 8.06574 3.66475 7.96025C3.55926 7.85476 3.5 7.71168 3.5 7.5625C3.5 7.41332 3.55926 7.27024 3.66475 7.16475C3.77024 7.05926 3.91332 7 4.0625 7H6.875C7.02419 7 7.16726 7.05926 7.27275 7.16475C7.37824 7.27024 7.4375 7.41332 7.4375 7.5625ZM7.4375 5.3125C7.4375 5.46168 7.37824 5.60476 7.27275 5.71025C7.16726 5.81574 7.02419 5.875 6.875 5.875H4.0625C3.91332 5.875 3.77024 5.81574 3.66475 5.71025C3.55926 5.60476 3.5 5.46168 3.5 5.3125C3.5 5.16332 3.55926 5.02024 3.66475 4.91475C3.77024 4.80926 3.91332 4.75 4.0625 4.75H6.875C7.02419 4.75 7.16726 4.80926 7.27275 4.91475C7.37824 5.02024 7.4375 5.16332 7.4375 5.3125Z" fill="black"/>
</svg>
