<svg width="16" height="16" viewBox="0 0 16 16" fill="none" xmlns="http://www.w3.org/2000/svg">
<path d="M8 0.6875C6.55373 0.6875 5.13993 1.11637 3.9374 1.91988C2.73486 2.72339 1.7976 3.86544 1.24413 5.20163C0.690668 6.53781 0.545857 8.00811 0.828011 9.4266C1.11017 10.8451 1.80661 12.148 2.82928 13.1707C3.85196 14.1934 5.15492 14.8898 6.57341 15.172C7.99189 15.4541 9.46219 15.3093 10.7984 14.7559C12.1346 14.2024 13.2766 13.2651 14.0801 12.0626C14.8836 10.8601 15.3125 9.44628 15.3125 8C15.3105 6.06123 14.5394 4.20246 13.1685 2.83154C11.7975 1.46063 9.93877 0.689547 8 0.6875ZM8 14.1875C6.77623 14.1875 5.57994 13.8246 4.56241 13.1447C3.54488 12.4648 2.75182 11.4985 2.2835 10.3679C1.81518 9.23724 1.69265 7.99314 1.93139 6.79288C2.17014 5.59262 2.75944 4.49011 3.62478 3.62478C4.49012 2.75944 5.59262 2.17014 6.79288 1.93139C7.99314 1.69264 9.23724 1.81518 10.3679 2.2835C11.4985 2.75181 12.4648 3.54488 13.1447 4.56241C13.8246 5.57994 14.1875 6.77623 14.1875 8C14.1856 9.64046 13.5331 11.2132 12.3732 12.3732C11.2132 13.5331 9.64046 14.1856 8 14.1875ZM9.125 11.375C9.125 11.5242 9.06574 11.6673 8.96025 11.7727C8.85476 11.8782 8.71169 11.9375 8.5625 11.9375C8.26413 11.9375 7.97799 11.819 7.76701 11.608C7.55603 11.397 7.4375 11.1109 7.4375 10.8125V8C7.28832 8 7.14525 7.94074 7.03976 7.83525C6.93427 7.72976 6.875 7.58668 6.875 7.4375C6.875 7.28832 6.93427 7.14524 7.03976 7.03975C7.14525 6.93426 7.28832 6.875 7.4375 6.875C7.73587 6.875 8.02202 6.99353 8.233 7.2045C8.44398 7.41548 8.5625 7.70163 8.5625 8V10.8125C8.71169 10.8125 8.85476 10.8718 8.96025 10.9773C9.06574 11.0827 9.125 11.2258 9.125 11.375ZM6.875 4.90625C6.875 4.73937 6.92449 4.57624 7.0172 4.43749C7.10991 4.29873 7.24169 4.19059 7.39586 4.12673C7.55004 4.06287 7.71969 4.04616 7.88336 4.07871C8.04703 4.11127 8.19737 4.19163 8.31537 4.30963C8.43337 4.42763 8.51373 4.57797 8.54629 4.74164C8.57885 4.90531 8.56214 5.07496 8.49828 5.22914C8.43441 5.38331 8.32627 5.51509 8.18752 5.6078C8.04876 5.70052 7.88563 5.75 7.71875 5.75C7.49498 5.75 7.28037 5.66111 7.12213 5.50287C6.9639 5.34464 6.875 5.13003 6.875 4.90625Z" fill="black"/>
</svg>
