<svg width="15" height="15" viewBox="0 0 15 15" fill="none" xmlns="http://www.w3.org/2000/svg">
<path d="M13.6354 10.1418L10.323 8.65752L10.3138 8.6533C10.1419 8.57976 9.95429 8.55024 9.76805 8.56743C9.58181 8.58461 9.40279 8.64796 9.24719 8.75174C9.22887 8.76384 9.21127 8.77699 9.19446 8.79112L7.48305 10.2501C6.39883 9.72346 5.27946 8.61252 4.75282 7.54237L6.21391 5.80495C6.22798 5.78737 6.24133 5.76979 6.25399 5.75081C6.35554 5.59563 6.41716 5.41775 6.43335 5.233C6.44954 5.04826 6.41981 4.86238 6.3468 4.6919V4.68346L4.85829 1.36541C4.76178 1.14271 4.59583 0.957191 4.38522 0.836551C4.1746 0.715911 3.93062 0.666621 3.68969 0.696039C2.73694 0.821411 1.8624 1.28931 1.22941 2.01236C0.596427 2.7354 0.248284 3.66413 0.250006 4.6251C0.250006 10.2079 4.79219 14.7501 10.375 14.7501C11.336 14.7518 12.2647 14.4037 12.9878 13.7707C13.7108 13.1377 14.1787 12.2632 14.3041 11.3104C14.3335 11.0696 14.2844 10.8256 14.1638 10.615C14.0433 10.4044 13.858 10.2384 13.6354 10.1418ZM10.375 13.6251C7.98886 13.6225 5.70119 12.6734 4.01392 10.9862C2.32666 9.29892 1.37761 7.01125 1.37501 4.6251C1.37236 3.93849 1.61973 3.2744 2.07091 2.75683C2.5221 2.23927 3.14625 1.90363 3.8268 1.8126C3.82653 1.81541 3.82653 1.81823 3.8268 1.82104L5.30337 5.12573L3.85001 6.86526C3.83525 6.88223 3.82185 6.90033 3.80993 6.9194C3.70412 7.08176 3.64205 7.26871 3.62973 7.46211C3.61741 7.65552 3.65526 7.84883 3.73962 8.02331C4.37665 9.3262 5.68938 10.6291 7.00633 11.2654C7.18209 11.349 7.37652 11.3855 7.57062 11.3715C7.76473 11.3574 7.95187 11.2933 8.11376 11.1853C8.13181 11.1731 8.14918 11.16 8.16579 11.1459L9.87508 9.6876L13.1798 11.1677C13.1798 11.1677 13.1854 11.1677 13.1875 11.1677C13.0976 11.8492 12.7624 12.4746 12.2448 12.9269C11.7271 13.3792 11.0624 13.6274 10.375 13.6251Z" fill="black"/>
</svg>
