<svg width="18" height="18" viewBox="0 0 18 18" fill="none" xmlns="http://www.w3.org/2000/svg">
<path d="M5.66508 8.22656C5.69268 8.15788 5.73357 8.09532 5.7854 8.04248C5.83722 7.98963 5.89897 7.94753 5.9671 7.91859C6.03523 7.88966 6.1084 7.87445 6.18242 7.87385C6.25644 7.87324 6.32985 7.88726 6.39844 7.91508L8.4375 8.73141V6.75C8.4375 6.60082 8.49676 6.45774 8.60225 6.35225C8.70774 6.24676 8.85082 6.1875 9 6.1875C9.14918 6.1875 9.29226 6.24676 9.39775 6.35225C9.50324 6.45774 9.5625 6.60082 9.5625 6.75V8.73141L11.6016 7.91508C11.6702 7.88738 11.7436 7.87346 11.8175 7.87412C11.8915 7.87478 11.9647 7.89001 12.0328 7.91894C12.1009 7.94786 12.1626 7.98991 12.2144 8.0427C12.2663 8.09548 12.3072 8.15796 12.3349 8.22656C12.3626 8.29517 12.3765 8.36856 12.3759 8.44254C12.3752 8.51653 12.36 8.58965 12.3311 8.65775C12.3021 8.72585 12.2601 8.78759 12.2073 8.83943C12.1545 8.89128 12.092 8.93222 12.0234 8.95992L9.89227 9.81211L11.1375 11.475C11.227 11.5943 11.2654 11.7444 11.2443 11.892C11.2232 12.0397 11.1443 12.173 11.025 12.2625C10.9057 12.352 10.7556 12.3904 10.608 12.3693C10.4603 12.3482 10.327 12.2693 10.2375 12.15L9 10.4998L7.7625 12.15C7.71818 12.2091 7.66265 12.2589 7.59909 12.2965C7.53553 12.3342 7.46518 12.3589 7.39205 12.3693C7.31892 12.3798 7.24446 12.3757 7.1729 12.3574C7.10134 12.3391 7.03409 12.3068 6.975 12.2625C6.9159 12.2182 6.86612 12.1627 6.82848 12.0991C6.79085 12.0355 6.7661 11.9652 6.75565 11.892C6.74521 11.8189 6.74927 11.7445 6.7676 11.6729C6.78593 11.6013 6.81818 11.5341 6.8625 11.475L8.10984 9.81211L5.97656 8.95992C5.90788 8.93232 5.84532 8.89143 5.79248 8.8396C5.73963 8.78778 5.69753 8.72603 5.66859 8.6579C5.63966 8.58977 5.62445 8.5166 5.62385 8.44258C5.62324 8.36856 5.63725 8.29515 5.66508 8.22656ZM15.75 3.9375V8.06977C15.75 14.3712 10.4189 16.4609 9.35156 16.8159C9.12368 16.8939 8.87632 16.8939 8.64844 16.8159C7.57969 16.4644 2.25 14.3719 2.25 8.07047V3.9375C2.25 3.63913 2.36853 3.35298 2.5795 3.142C2.79048 2.93103 3.07663 2.8125 3.375 2.8125H14.625C14.9234 2.8125 15.2095 2.93103 15.4205 3.142C15.6315 3.35298 15.75 3.63913 15.75 3.9375ZM14.625 3.9375H3.375V8.07117C3.375 13.5907 8.04867 15.4315 9 15.7479C9.96047 15.4273 14.625 13.5851 14.625 8.07117V3.9375Z" fill="black"/>
</svg>
